<svg width="40" height="40" viewBox="0 0 40 40" fill="none" xmlns="http://www.w3.org/2000/svg">
<g clip-path="url(#clip0_1_10780)">
<path d="M4.0193 34.5858C4.90505 35.9112 5.98407 37.0968 7.22055 38.103L7.23367 38.1136C8.59128 39.3274 10.3485 39.9983 12.1696 39.9982C12.6564 39.9983 13.142 39.9498 13.6192 39.8534C13.9801 39.7821 14.3201 39.63 14.6138 39.4085L16.6875 37.8599C17.1058 37.5481 17.4154 37.1125 17.5723 36.6149C17.7292 36.1173 17.7254 35.5829 17.5615 35.0876L15.5805 29.0828C15.3993 28.5369 15.0349 28.0705 14.549 27.7626C14.0632 27.4547 13.4859 27.3242 12.9148 27.3933L9.94273 27.7588C9.88626 27.7684 9.82821 27.7585 9.77804 27.7309C9.72787 27.7033 9.68855 27.6594 9.66648 27.6066C7.58703 23.1989 7.58711 16.8007 9.66648 12.3931C9.68854 12.3402 9.72788 12.2963 9.77807 12.2687C9.82826 12.2411 9.88634 12.2313 9.94281 12.2409L12.9148 12.6063C13.4859 12.6754 14.0632 12.5449 14.549 12.237C15.0349 11.9291 15.3993 11.4627 15.5806 10.9168L17.5615 4.91212C17.7254 4.41677 17.7292 3.8824 17.5723 3.38478C17.4154 2.88717 17.1058 2.45157 16.6875 2.13978L14.6139 0.591261C14.3202 0.369682 13.9801 0.217563 13.6191 0.146339C12.4928 -0.0791821 11.3295 -0.0393975 10.2212 0.262543C9.11289 0.564483 8.09011 1.12029 7.23383 1.88595L7.22086 1.8965C5.98427 2.90279 4.90515 4.08838 4.0193 5.41392C3.10196 6.78547 2.34822 8.25963 1.77344 9.80634C0.613125 12.8785 0 16.4034 0 19.9999C0 23.5963 0.613125 27.121 1.77344 30.1933C2.34819 31.74 3.10194 33.2142 4.0193 34.5858ZM13.0677 28.6343C13.3521 28.597 13.6407 28.6607 13.883 28.8143C14.1254 28.9679 14.3061 29.2017 14.3938 29.4749L16.375 35.4792C16.459 35.7254 16.4621 35.992 16.3838 36.2401C16.3056 36.4882 16.1502 36.7048 15.9402 36.8584L15.1523 37.4467C14.7684 36.6067 14.4188 35.7514 14.1041 34.8831C13.3819 32.8742 12.8212 30.8108 12.4274 28.7127L13.0677 28.6343ZM15.152 2.55345L15.9399 3.14173C16.1499 3.29523 16.3053 3.51178 16.3836 3.7598C16.4618 4.00782 16.4588 4.27436 16.375 4.52056L14.3941 10.5252C14.3064 10.7984 14.1257 11.0322 13.8833 11.1858C13.641 11.3394 13.3524 11.4031 13.068 11.3657L12.4273 11.287C12.8211 9.18882 13.3817 7.12547 14.1039 5.11657C14.4185 4.24826 14.7682 3.39305 15.152 2.55306V2.55345ZM2.9425 10.2478C3.48286 8.7926 4.19159 7.40557 5.05422 6.11501C5.8701 4.89266 6.8642 3.79919 8.00352 2.87087C8.02539 2.85329 8.04719 2.83525 8.06773 2.81689C9.19524 1.80838 10.6549 1.25087 12.1677 1.25095C12.5717 1.25087 12.9747 1.29117 13.3708 1.37126C13.5505 1.40614 13.7198 1.48186 13.8656 1.59259L14.1281 1.78853C13.6952 2.71439 13.2922 3.6886 12.9286 4.68993C12.1744 6.78743 11.5908 8.9424 11.1834 11.1338L10.0952 11C9.77759 10.9576 9.45472 11.0182 9.17406 11.1729C8.8934 11.3276 8.66974 11.5682 8.53594 11.8594C6.3107 16.5761 6.3107 23.4229 8.53594 28.1395C8.66958 28.4309 8.89321 28.6716 9.17391 28.8263C9.45461 28.981 9.77756 29.0415 10.0952 28.9989L11.1834 28.8651C11.5908 31.0565 12.1743 33.2114 12.9285 35.3089C13.2918 36.3102 13.6952 37.2847 14.1281 38.2104L13.8657 38.4064C13.7199 38.5171 13.5506 38.5928 13.3709 38.6277C12.4353 38.815 11.469 38.7819 10.5485 38.531C9.62799 38.2802 8.77851 37.8185 8.06734 37.1824C8.04652 37.164 8.02521 37.146 8.00344 37.1287C6.86413 36.2003 5.87005 35.1068 5.05414 33.8845C4.19147 32.5939 3.48277 31.2069 2.9425 29.7517C1.83523 26.8192 1.25 23.447 1.25 19.9999C1.25 16.5527 1.83523 13.1805 2.9425 10.2478ZM40 18.4963C39.9995 18.0699 39.8299 17.6611 39.5284 17.3596C39.2268 17.058 38.818 16.8884 38.3916 16.8879H31.4021V14.2148C31.4016 13.7883 31.232 13.3795 30.9304 13.0779C30.6289 12.7764 30.22 12.6068 29.7936 12.6063H16.9844C16.5579 12.6068 16.1491 12.7764 15.8475 13.0779C15.546 13.3795 15.3764 13.7883 15.3759 14.2148V23.1528C15.3763 23.5793 15.546 23.9881 15.8475 24.2897C16.1491 24.5912 16.5579 24.7609 16.9844 24.7613H18.1598V26.8195C18.1598 26.9292 18.1887 27.0369 18.2436 27.132C18.2984 27.227 18.3773 27.3059 18.4724 27.3607C18.5674 27.4156 18.6751 27.4444 18.7848 27.4444C18.8946 27.4444 19.0023 27.4156 19.0973 27.3607L23.5997 24.7613H23.9738V27.4345C23.9742 27.8609 24.1439 28.2697 24.4454 28.5713C24.747 28.8728 25.1558 29.0424 25.5823 29.0429H31.776L36.2784 31.6424C36.3734 31.6972 36.4811 31.7261 36.5909 31.7261C36.7006 31.7261 36.8083 31.6972 36.9034 31.6424C36.9984 31.5875 37.0773 31.5086 37.1321 31.4136C37.187 31.3186 37.2159 31.2108 37.2159 31.1011V29.0429H38.3914C38.8179 29.0424 39.2267 28.8728 39.5283 28.5713C39.8299 28.2698 39.9995 27.8609 40 27.4345V18.4963ZM23.4323 23.5113C23.3226 23.5113 23.2148 23.5402 23.1198 23.5951L19.41 25.737V24.1363C19.41 23.9706 19.3442 23.8116 19.2269 23.6944C19.1097 23.5772 18.9508 23.5113 18.785 23.5113H16.9844C16.8893 23.5112 16.7982 23.4734 16.731 23.4062C16.6638 23.339 16.626 23.2479 16.6259 23.1528V14.2148C16.6261 14.1198 16.6639 14.0287 16.7311 13.9615C16.7983 13.8943 16.8894 13.8565 16.9844 13.8563H29.7936C29.8886 13.8564 29.9798 13.8942 30.047 13.9614C30.1142 14.0286 30.152 14.1197 30.1521 14.2148V23.1528C30.152 23.2479 30.1142 23.339 30.047 23.4062C29.9798 23.4735 29.8887 23.5113 29.7936 23.5113H23.4323ZM38.75 27.4345C38.7499 27.5295 38.7121 27.6206 38.6449 27.6878C38.5777 27.755 38.4866 27.7928 38.3916 27.7929H36.591C36.4253 27.7929 36.2663 27.8587 36.1491 27.976C36.0319 28.0932 35.966 28.2521 35.966 28.4179V30.0185L32.2562 27.8767C32.1612 27.8218 32.0534 27.7929 31.9437 27.7929H25.5824C25.4874 27.7928 25.3962 27.755 25.329 27.6878C25.2618 27.6206 25.224 27.5295 25.2239 27.4345V24.7613H29.7936C30.2201 24.7609 30.6289 24.5912 30.9305 24.2897C31.232 23.9881 31.4016 23.5793 31.4021 23.1528V18.1379H38.3916C38.4866 18.138 38.5777 18.1758 38.6449 18.243C38.7121 18.3102 38.7499 18.4013 38.75 18.4963V27.4345ZM37.1513 26.1243C37.1513 26.2901 37.0855 26.449 36.9683 26.5662C36.8511 26.6835 36.6921 26.7493 36.5263 26.7493H28.85C28.6842 26.7493 28.5253 26.6835 28.4081 26.5662C28.2908 26.449 28.225 26.2901 28.225 26.1243C28.225 25.9585 28.2908 25.7996 28.4081 25.6824C28.5253 25.5652 28.6842 25.4993 28.85 25.4993H36.5263C36.6921 25.4993 36.8511 25.5652 36.9683 25.6824C37.0855 25.7996 37.1513 25.9585 37.1513 26.1243ZM37.1513 20.3049C37.1513 20.4706 37.0855 20.6296 36.9683 20.7468C36.8511 20.864 36.6921 20.9299 36.5263 20.9299H32.8666C32.7009 20.9299 32.5419 20.864 32.4247 20.7468C32.3075 20.6296 32.2416 20.4706 32.2416 20.3049C32.2416 20.1391 32.3075 19.9801 32.4247 19.8629C32.5419 19.7457 32.7009 19.6799 32.8666 19.6799H36.5263C36.692 19.6799 36.851 19.7457 36.9682 19.8628C37.0854 19.9799 37.1512 20.1388 37.1513 20.3045V20.3049ZM37.1513 23.2145C37.1513 23.3803 37.0855 23.5393 36.9683 23.6565C36.8511 23.7737 36.6921 23.8395 36.5263 23.8395H32.8744C32.7086 23.8395 32.5496 23.7737 32.4324 23.6565C32.3152 23.5393 32.2494 23.3803 32.2494 23.2145C32.2494 23.0488 32.3152 22.8898 32.4324 22.7726C32.5496 22.6554 32.7086 22.5895 32.8744 22.5895H36.5263C36.6921 22.5895 36.8511 22.6554 36.9683 22.7726C37.0855 22.8898 37.1513 23.0488 37.1513 23.2145ZM20.4297 18.6838C20.4297 18.8074 20.393 18.9283 20.3244 19.031C20.2557 19.1338 20.1581 19.2139 20.044 19.2612C19.9298 19.3085 19.8042 19.3209 19.6829 19.2969C19.5617 19.2728 19.4503 19.2133 19.3629 19.1259C19.2755 19.0386 19.2159 18.9273 19.1918 18.8061C19.1676 18.6848 19.1799 18.5592 19.2271 18.445C19.2744 18.3308 19.3544 18.2331 19.4571 18.1644C19.5598 18.0957 19.6806 18.0589 19.8042 18.0588H19.8047C19.9704 18.0588 20.1294 18.1247 20.2466 18.2419C20.3638 18.3591 20.4297 18.5181 20.4297 18.6838ZM24.0143 18.6838C24.0143 18.8075 23.9776 18.9283 23.909 19.0311C23.8403 19.1339 23.7427 19.214 23.6285 19.2613C23.5143 19.3086 23.3886 19.3209 23.2674 19.2968C23.1461 19.2727 23.0348 19.2132 22.9474 19.1258C22.8599 19.0384 22.8004 18.927 22.7763 18.8058C22.7522 18.6845 22.7646 18.5589 22.8119 18.4447C22.8592 18.3305 22.9393 18.2328 23.0421 18.1642C23.1448 18.0955 23.2657 18.0588 23.3893 18.0588C23.555 18.0589 23.714 18.1247 23.8312 18.2419C23.9484 18.3591 24.0142 18.5181 24.0142 18.6838H24.0143ZM27.5991 18.6838C27.5991 18.8074 27.5624 18.9283 27.4938 19.031C27.4251 19.1338 27.3275 19.2139 27.2133 19.2612C27.0992 19.3085 26.9735 19.3209 26.8523 19.2969C26.7311 19.2728 26.6197 19.2133 26.5323 19.1259C26.4449 19.0386 26.3853 18.9273 26.3611 18.8061C26.337 18.6848 26.3493 18.5592 26.3965 18.445C26.4437 18.3308 26.5238 18.2331 26.6265 18.1644C26.7292 18.0957 26.85 18.0589 26.9736 18.0588H26.9741C27.1398 18.0589 27.2988 18.1247 27.416 18.2419C27.5331 18.3591 27.599 18.5181 27.599 18.6838H27.5991Z" fill="#54E346"/>
</g>
<defs>
<clipPath id="clip0_1_10780">
<rect width="40" height="40" fill="white"/>
</clipPath>
</defs>
</svg>
