<svg width="40" height="40" viewBox="0 0 40 40" fill="none" xmlns="http://www.w3.org/2000/svg">
<g clip-path="url(#clip0_1_10802)">
<path d="M37.7209 28.0304C37.352 27.8325 36.9456 27.714 36.5281 27.6827C36.1105 27.6514 35.6911 27.7079 35.2967 27.8485L27.2421 30.7395C27.4007 30.2556 27.4327 29.7393 27.3351 29.2396C27.2375 28.7399 27.0135 28.2735 26.6846 27.8849C26.4066 27.5568 26.0602 27.2936 25.6696 27.1135C25.2791 26.9334 24.854 26.8409 24.424 26.8425H20.0118C18.9876 26.8425 17.9937 26.4849 17.1512 25.8122C15.23 24.2788 11.327 22.2546 6.21184 25.1273V24.1092C6.21184 23.7716 6.07775 23.4479 5.83907 23.2092C5.60039 22.9705 5.27666 22.8364 4.93912 22.8364H1.9573C1.61975 22.8364 1.29603 22.9705 1.05734 23.2092C0.818661 23.4479 0.68457 23.7716 0.68457 24.1092V36.8607C0.68457 37.5637 1.25427 38.1334 1.9573 38.1334H4.93912C5.27666 38.1334 5.60039 37.9993 5.83907 37.7606C6.07775 37.5219 6.21184 37.1982 6.21184 36.8607V36.2425C7.18154 36.2304 9.64821 36.3698 13.1815 37.7576C15.4482 38.6425 17.8058 39.091 20.1573 39.091C21.4603 39.091 22.7634 38.9516 24.0421 38.6728C27.5694 37.9031 32.8361 36.3395 37.8967 33.2425C38.2328 33.0331 38.5241 32.7593 38.754 32.4368C38.9839 32.1144 39.1477 31.7497 39.2361 31.3637C39.5452 30.0485 38.927 28.6789 37.7209 28.0304ZM5.15124 36.8546C5.15124 36.9698 5.05427 37.0667 4.93912 37.0667H1.9573C1.84215 37.0667 1.74518 36.9698 1.74518 36.8546V24.1031C1.74518 23.9879 1.84215 23.891 1.9573 23.891H4.93912C5.05427 23.891 5.15124 23.9879 5.15124 24.1031V36.8546ZM38.2058 31.1213C38.0846 31.6304 37.7755 32.0728 37.3452 32.3334C32.4058 35.3576 27.2603 36.8849 23.8179 37.6364C20.4421 38.3698 16.8967 38.0728 13.5694 36.7698C10.024 35.3819 7.50881 35.1819 6.33912 35.1819H6.20578V26.3395C11.0482 23.3334 14.7149 25.2243 16.4846 26.6364C17.5028 27.4546 18.7573 27.9031 20.0058 27.9031H24.4179C24.9755 27.9031 25.5088 28.1455 25.8724 28.5758C26.2421 29.0061 26.3937 29.5637 26.2967 30.1334C26.2118 30.6667 25.8724 31.1213 25.4058 31.4061C25.3755 31.4182 25.3391 31.4364 25.3149 31.4607C25.0118 31.6243 24.6603 31.7152 24.2906 31.7152H18.0906C17.7997 31.7152 17.5573 31.9516 17.5573 32.2485C17.5573 32.5455 17.7937 32.7819 18.0906 32.7819H24.2967C24.8603 32.7819 25.3937 32.6364 25.8543 32.3819L35.6603 28.8667C36.1694 28.6849 36.7452 28.7213 37.2421 28.994C38.0058 29.3879 38.4058 30.2728 38.2058 31.1213Z" fill="#54E346"/>
<path d="M12.957 14.9758C13.363 15.3576 13.7812 15.7576 13.8903 16.103C14.0115 16.4788 13.9024 17.0606 13.7994 17.6303C13.6418 18.5091 13.4721 19.4182 13.9812 20.1091C14.4903 20.8061 15.4115 20.9334 16.3024 21.0546C16.8661 21.1334 17.454 21.2121 17.763 21.4364C18.0661 21.6546 18.3206 22.1879 18.563 22.697C18.9327 23.4788 19.357 24.3576 20.1873 24.6303C20.357 24.6849 20.5267 24.7091 20.6903 24.7091C21.3206 24.7091 21.957 24.3697 22.5691 24.0364C23.0843 23.7576 23.6176 23.4727 24.0237 23.4727C24.4297 23.4727 24.963 23.7576 25.4782 24.0364C26.26 24.4546 27.06 24.8909 27.8661 24.6303C28.7024 24.3576 29.1206 23.4788 29.4903 22.697C29.7327 22.1879 29.9873 21.6606 30.2903 21.4364C30.5994 21.2121 31.1873 21.1334 31.7509 21.0546C32.6418 20.9334 33.563 20.8121 34.0721 20.1152C34.5752 19.4243 34.4115 18.5152 34.254 17.6364C34.1509 17.0667 34.0479 16.4849 34.163 16.1091C34.2721 15.7637 34.6964 15.3697 35.0964 14.9818C35.7267 14.3818 36.4418 13.703 36.4418 12.8121C36.4418 11.9212 35.7267 11.2424 35.0964 10.6424C34.6903 10.2606 34.2721 9.86063 34.163 9.51517C34.0418 9.13941 34.1509 8.5576 34.254 7.9879C34.4115 7.10911 34.5812 6.20002 34.0721 5.50911C33.563 4.81214 32.6418 4.68487 31.7509 4.56366C31.1873 4.48487 30.5994 4.40608 30.2903 4.18184C29.9873 3.96366 29.7327 3.43032 29.4903 2.92123C29.1206 2.13941 28.6964 1.26063 27.8661 0.987898C27.0661 0.727292 26.26 1.16366 25.4782 1.58184C24.963 1.86063 24.4297 2.14547 24.0237 2.14547C23.6176 2.14547 23.0843 1.86063 22.5691 1.58184C21.7873 1.16366 20.9812 0.727292 20.1812 0.987898C19.3449 1.26063 18.9267 2.13941 18.557 2.92123C18.3146 3.43032 18.06 3.9576 17.757 4.18184C17.4479 4.40608 16.86 4.48487 16.2964 4.56366C15.4055 4.68487 14.4843 4.80608 13.9752 5.50911C13.4721 6.20002 13.6358 7.10911 13.7933 7.9879C13.8964 8.5576 13.9994 9.13941 13.8843 9.51517C13.7691 9.86063 13.3509 10.2546 12.9509 10.6424C12.3206 11.2424 11.6055 11.9212 11.6055 12.8121C11.6055 13.697 12.3267 14.3758 12.957 14.9758ZM13.6843 11.4061C14.1873 10.9334 14.7024 10.4424 14.8964 9.83638C15.1024 9.21214 14.9691 8.49093 14.8418 7.79396C14.7206 7.13335 14.5994 6.4485 14.8358 6.12729C15.0782 5.79396 15.7691 5.70305 16.4418 5.61214C17.1388 5.52123 17.86 5.42426 18.3873 5.03638C18.9085 4.66063 19.2176 4.00608 19.5206 3.37578C19.8115 2.76366 20.1206 2.12729 20.5206 1.99396C20.5752 1.97578 20.6358 1.96972 20.6964 1.96972C21.0661 1.96972 21.5812 2.2485 22.0782 2.51517C22.7085 2.85456 23.363 3.20608 24.0358 3.20608C24.7085 3.20608 25.363 2.85456 25.9933 2.51517C26.5752 2.20002 27.1752 1.87881 27.5509 2.00002C27.9509 2.12729 28.254 2.76366 28.5509 3.38184C28.854 4.01214 29.163 4.66063 29.6843 5.04244C30.2115 5.42426 30.9327 5.52123 31.6297 5.6182C32.3024 5.70911 32.9933 5.80002 33.2358 6.13335C33.4721 6.46063 33.3509 7.13941 33.2297 7.80002C33.1024 8.49699 32.9752 9.2182 33.1752 9.84244C33.3691 10.4424 33.8903 10.9334 34.3873 11.4121C34.8843 11.8849 35.4055 12.3758 35.4055 12.8121C35.4055 13.2485 34.8903 13.7394 34.3873 14.2121C33.8843 14.6849 33.3691 15.1758 33.1752 15.7818C32.9691 16.4061 33.1024 17.1273 33.2297 17.8243C33.3509 18.4849 33.4721 19.1637 33.2358 19.4909C32.9933 19.8243 32.3024 19.9152 31.6297 20.0061C30.9327 20.097 30.2115 20.194 29.6843 20.5818C29.163 20.9576 28.854 21.6121 28.5509 22.2424C28.26 22.8606 27.9509 23.4909 27.5509 23.6243C27.1812 23.7455 26.5752 23.4182 25.9933 23.1091C25.363 22.7697 24.7085 22.4182 24.0358 22.4182C23.363 22.4182 22.7085 22.7697 22.0782 23.1091C21.4964 23.4243 20.8964 23.7455 20.5206 23.6243C20.1206 23.497 19.8176 22.8606 19.5206 22.2424C19.2176 21.6121 18.9085 20.9637 18.3873 20.5818C17.86 20.2 17.1388 20.103 16.4418 20.0061C15.7691 19.9152 15.0782 19.8243 14.8358 19.4909C14.5994 19.1637 14.7206 18.4849 14.8418 17.8243C14.9691 17.1273 15.0964 16.4061 14.8964 15.7818C14.7024 15.1818 14.1812 14.6909 13.6843 14.2121C13.1873 13.7394 12.6661 13.2485 12.6661 12.8121C12.6661 12.3697 13.1873 11.8788 13.6843 11.4061Z" fill="#54E346"/>
<path d="M24.0303 20.2182C28.1151 20.2182 31.4424 16.8909 31.4424 12.806C31.4424 8.72119 28.1212 5.39392 24.0303 5.39392C19.9394 5.39392 16.6182 8.72119 16.6182 12.806C16.6182 16.8909 19.9454 20.2182 24.0303 20.2182ZM24.0303 6.45453C27.5333 6.45453 30.3818 9.30301 30.3818 12.806C30.3818 16.3091 27.5333 19.1576 24.0303 19.1576C20.5273 19.1576 17.6788 16.3091 17.6788 12.806C17.6788 9.30301 20.5273 6.45453 24.0303 6.45453Z" fill="#54E346"/>
<path d="M21.5517 16.1031C21.879 16.4304 22.3214 16.6122 22.782 16.6122C23.2426 16.6122 23.685 16.4304 24.0123 16.1031L28.1396 11.9758C28.4669 11.6485 28.6487 11.2061 28.6487 10.7455C28.6487 10.2849 28.4669 9.84247 28.1396 9.5152C27.8119 9.18914 27.3685 9.0061 26.9063 9.0061C26.444 9.0061 26.0006 9.18914 25.6729 9.5152L22.782 12.4061L22.382 12.0061C22.0544 11.6801 21.6109 11.497 21.1487 11.497C20.6864 11.497 20.243 11.6801 19.9153 12.0061C19.5893 12.3338 19.4062 12.7772 19.4062 13.2394C19.4062 13.7017 19.5893 14.1451 19.9153 14.4728L21.5517 16.1031ZM20.6729 12.7576C20.8063 12.6243 20.982 12.5576 21.1578 12.5576C21.3335 12.5576 21.5093 12.6243 21.6426 12.7576L22.4184 13.5273C22.6244 13.7334 22.9638 13.7334 23.1699 13.5273L26.4366 10.2607C26.7032 9.99399 27.1335 9.99399 27.4002 10.2607C27.5275 10.3879 27.6002 10.5576 27.6002 10.7394C27.6002 10.9213 27.5275 11.091 27.4002 11.2243L23.2729 15.3516C23.0184 15.6061 22.5638 15.6061 22.3093 15.3516L20.679 13.7213C20.4063 13.4546 20.4063 13.0243 20.6729 12.7576Z" fill="#54E346"/>
</g>
<defs>
<clipPath id="clip0_1_10802">
<rect width="40" height="40" fill="white"/>
</clipPath>
</defs>
</svg>
