<svg width="25" height="24" viewBox="0 0 25 24" fill="none" xmlns="http://www.w3.org/2000/svg">
<path d="M10.2087 1.23097C8.33606 1.62916 6.59971 2.50908 5.17124 3.78379C3.74278 5.05849 2.67163 6.68387 2.06367 8.49929C1.4557 10.3147 1.33194 12.2574 1.70463 14.1353C2.07732 16.0132 2.93355 17.7613 4.18872 19.207C4.33845 19.3866 4.42712 19.6092 4.44186 19.8426C4.4566 20.0759 4.39666 20.3079 4.27072 20.505L3.76472 21.32C3.66137 21.4865 3.6044 21.6776 3.5997 21.8736C3.595 22.0695 3.64274 22.2632 3.73797 22.4345C3.83321 22.6058 3.97249 22.7485 4.1414 22.8479C4.31031 22.9474 4.50272 22.9999 4.69872 23H12.1837C15.0272 23.0306 17.776 21.9795 19.8735 20.0594C21.971 18.1394 23.2605 15.494 23.4807 12.659C23.5816 10.967 23.2906 9.27465 22.6303 7.71361C21.97 6.15257 20.9583 4.76501 19.674 3.65901C18.3896 2.553 16.8673 1.7584 15.2255 1.33709C13.5838 0.91577 11.8669 0.880115 10.2087 1.23097ZM12.4997 4.99997C12.8039 5.00017 13.1011 5.09054 13.3539 5.25966C13.6067 5.42878 13.8037 5.66905 13.9199 5.9501C14.0362 6.23115 14.0665 6.54036 14.007 6.83864C13.9476 7.13691 13.801 7.41086 13.5859 7.62586C13.3708 7.84085 13.0967 7.98723 12.7984 8.04649C12.5001 8.10576 12.1909 8.07524 11.9099 7.95881C11.6289 7.84237 11.3888 7.64524 11.2199 7.39234C11.0509 7.13944 10.9607 6.84212 10.9607 6.53797C10.961 6.12998 11.1232 5.73879 11.4118 5.45038C11.7004 5.16198 12.0917 4.99997 12.4997 4.99997ZM13.7297 18H12.4997C12.2345 18 11.9801 17.8946 11.7926 17.7071C11.6051 17.5195 11.4997 17.2652 11.4997 17V11.846H11.2697C11.0045 11.846 10.7501 11.7406 10.5626 11.5531C10.3751 11.3655 10.2697 11.1112 10.2697 10.846C10.2697 10.5808 10.3751 10.3264 10.5626 10.1389C10.7501 9.95133 11.0045 9.84597 11.2697 9.84597H12.4997C12.7649 9.84597 13.0193 9.95133 13.2068 10.1389C13.3944 10.3264 13.4997 10.5808 13.4997 10.846V16H13.7297C13.9949 16 14.2493 16.1053 14.4368 16.2929C14.6244 16.4804 14.7297 16.7348 14.7297 17C14.7297 17.2652 14.6244 17.5195 14.4368 17.7071C14.2493 17.8946 13.9949 18 13.7297 18Z" fill="#2C9CF0"/>
</svg>
