<svg width="15" height="14" viewBox="0 0 15 14" fill="none" xmlns="http://www.w3.org/2000/svg">
<path fill-rule="evenodd" clip-rule="evenodd" d="M9.78301 1.51826C9.75627 1.31961 9.5873 1.1665 9.38285 1.1665C9.15981 1.1665 8.979 1.34871 8.979 1.57348V2.02356H5.43904V1.57348L5.43535 1.51826C5.40861 1.31961 5.23964 1.1665 5.03519 1.1665C4.81216 1.1665 4.63135 1.34871 4.63135 1.57348V2.03362C2.97609 2.14739 1.95703 3.21971 1.95703 4.95001V9.86067C1.95703 11.7175 3.0994 12.8333 4.92985 12.8333H9.48416C11.3168 12.8333 12.457 11.7362 12.457 9.90172V4.95001C12.4623 3.21877 11.4461 2.14666 9.78669 2.03351V1.57348L9.78301 1.51826ZM8.979 2.83789V3.35917L8.98269 3.4144C9.00943 3.61304 9.1784 3.76615 9.38285 3.76615C9.60589 3.76615 9.78669 3.58394 9.78669 3.35917V2.84976C10.9946 2.94953 11.6536 3.67625 11.6497 4.94914V5.18176H2.76514V4.95039C2.76514 3.67893 3.42708 2.95076 4.63135 2.84999V3.35917L4.63503 3.4144C4.66178 3.61304 4.83074 3.76615 5.03519 3.76615C5.25823 3.76615 5.43904 3.58394 5.43904 3.35917V2.83789H8.979ZM2.76514 5.99571V9.86105C2.76514 11.2626 3.54033 12.0197 4.93026 12.0197H9.48457C10.8793 12.0197 11.6497 11.2784 11.6497 9.9021L11.6497 5.99571H2.76514ZM10.0075 7.71215C10.0075 7.48738 9.82669 7.30518 9.60366 7.30518L9.54387 7.30889C9.34675 7.33584 9.19482 7.50612 9.19482 7.71215C9.19482 7.93692 9.37563 8.11913 9.60366 8.11913L9.65846 8.11541C9.85557 8.08846 10.0075 7.91819 10.0075 7.71215ZM7.21402 7.30518C7.43706 7.30518 7.61787 7.48738 7.61787 7.71215C7.61787 7.91819 7.46594 8.08846 7.26882 8.11541L7.21402 8.11913C6.98599 8.11913 6.80518 7.93692 6.80518 7.71215C6.80518 7.50612 6.95711 7.33584 7.15423 7.30889L7.21402 7.30518ZM5.22381 7.71215C5.22381 7.48739 5.043 7.30518 4.81997 7.30518L4.76018 7.30889C4.56306 7.33584 4.41113 7.50612 4.41113 7.71215C4.41113 7.93692 4.59194 8.11913 4.81498 8.11913L4.87477 8.11541C5.07188 8.08846 5.22381 7.91819 5.22381 7.71215ZM9.60366 9.41492C9.82669 9.41492 10.0075 9.59713 10.0075 9.82189C10.0075 10.0279 9.85557 10.1982 9.65846 10.2252L9.60366 10.2289C9.37563 10.2289 9.19482 10.0467 9.19482 9.82189C9.19482 9.61586 9.34675 9.44558 9.54387 9.41863L9.60366 9.41492ZM7.61787 9.82189C7.61787 9.59713 7.43706 9.41492 7.21402 9.41492L7.15423 9.41863C6.95711 9.44558 6.80518 9.61586 6.80518 9.82189C6.80518 10.0467 6.98599 10.2289 7.21402 10.2289L7.26882 10.2252C7.46594 10.1982 7.61787 10.0279 7.61787 9.82189ZM4.81997 9.41492C5.043 9.41492 5.22381 9.59713 5.22381 9.82189C5.22381 10.0279 5.07188 10.1982 4.87477 10.2252L4.81498 10.2289C4.59194 10.2289 4.41113 10.0467 4.41113 9.82189C4.41113 9.61586 4.56306 9.44558 4.76018 9.41863L4.81997 9.41492Z" fill="#979797"/>
</svg>
