<svg width="24" height="24" viewBox="0 0 24 24" fill="none" xmlns="http://www.w3.org/2000/svg">
<g id="&#216;&#170;&#217;&#133;&#216;&#167;&#216;&#179; &#216;&#168;&#216;&#167; &#217;&#133;&#216;&#167; 1">
<g id="Group">
<path id="Vector" d="M17.2451 16.2849L16.5001 14.8199C16.47 14.7593 16.4278 14.7055 16.3763 14.6617C16.3247 14.6178 16.2648 14.5849 16.2001 14.5649C16.0543 14.5205 15.9025 14.4986 15.7501 14.4999C15.3178 14.4999 14.9032 14.6717 14.5975 14.9774C14.2918 15.283 14.1201 15.6976 14.1201 16.1299C14.1201 16.9016 14.2723 17.6658 14.5679 18.3786C14.8635 19.0914 15.2968 19.739 15.8429 20.2842C16.3891 20.8294 17.0374 21.2616 17.7507 21.556C18.464 21.8504 19.2284 22.0012 20.0001 21.9999C20.2532 22.0015 20.5032 21.9439 20.7301 21.8317C20.9571 21.7196 21.1546 21.556 21.3071 21.354C21.4596 21.1519 21.5628 20.9171 21.6085 20.6681C21.6541 20.4191 21.641 20.1629 21.5701 19.9199C21.5502 19.8539 21.5168 19.7927 21.472 19.7402C21.4273 19.6878 21.3721 19.6451 21.3101 19.6149L19.8501 18.8849C19.7558 18.8375 19.6489 18.8212 19.5447 18.8382C19.4405 18.8553 19.3444 18.9049 19.2701 18.9799L18.8601 19.3899C18.3707 19.219 17.9261 18.9402 17.5591 18.5741C17.1921 18.2079 16.9122 17.7639 16.7401 17.2749L17.1551 16.8599C17.2283 16.7855 17.2763 16.69 17.2924 16.5869C17.3085 16.4838 17.292 16.3782 17.2451 16.2849ZM16.8501 19.2849C17.3968 19.834 18.0777 20.2305 18.8251 20.4349H18.9051C18.9854 20.451 19.0685 20.4471 19.147 20.4236C19.2254 20.4 19.2969 20.3576 19.3551 20.2999L19.7251 19.9299L20.6301 20.3849C20.6262 20.5494 20.5581 20.7058 20.4404 20.8207C20.3226 20.9357 20.1646 21 20.0001 20.9999C19.3608 20.9999 18.7278 20.8739 18.1372 20.6291C17.5466 20.3843 17.0101 20.0255 16.5583 19.5732C16.1065 19.121 15.7482 18.5841 15.504 17.9932C15.2598 17.4024 15.1345 16.7692 15.1351 16.1299C15.1349 15.9679 15.1972 15.8121 15.3089 15.6947C15.4206 15.5774 15.5733 15.5076 15.7351 15.4999L16.1901 16.4099L15.8201 16.7799C15.7617 16.8387 15.7188 16.911 15.6952 16.9904C15.6716 17.0698 15.6682 17.1538 15.6851 17.2349C15.6835 17.2582 15.6835 17.2816 15.6851 17.3049C15.8923 18.0546 16.2942 18.736 16.8501 19.2799V19.2849Z" fill="#2C9CF0"/>
<path id="Vector_2" d="M2.36524 19.7899C2.3649 20.0455 2.37826 20.3008 2.40524 20.5549C2.41884 20.6778 2.47746 20.7913 2.56979 20.8734C2.66213 20.9556 2.78163 21.0007 2.90524 20.9999H13.1352C13.2678 20.9999 13.395 20.9473 13.4888 20.8535C13.5826 20.7597 13.6352 20.6325 13.6352 20.4999C13.6352 20.3673 13.5826 20.2402 13.4888 20.1464C13.395 20.0526 13.2678 19.9999 13.1352 19.9999H3.37024V19.7899C3.37288 17.6013 4.24244 15.5029 5.78861 13.9539C7.33479 12.4049 9.43164 11.5315 11.6202 11.5249H11.6452C13.7919 11.5223 15.8541 12.3605 17.3902 13.8599C17.4857 13.9521 17.6139 14.0026 17.7466 14.0002C17.8793 13.9979 18.0056 13.9429 18.0977 13.8474C18.1899 13.752 18.2404 13.6238 18.238 13.4911C18.2357 13.3584 18.1807 13.2321 18.0852 13.1399C16.9666 12.0523 15.5904 11.2661 14.0852 10.8549C14.9846 10.3233 15.6842 9.51075 16.0765 8.54248C16.4688 7.57421 16.532 6.50385 16.2564 5.49613C15.9808 4.48841 15.3817 3.5992 14.5512 2.96535C13.7207 2.33151 12.705 1.98816 11.6602 1.98816C10.6155 1.98816 9.59974 2.33151 8.76926 2.96535C7.93879 3.5992 7.33964 4.48841 7.06404 5.49613C6.78843 6.50385 6.85165 7.57421 7.24396 8.54248C7.63627 9.51075 8.33593 10.3233 9.23524 10.8549C7.26827 11.3839 5.52997 12.5453 4.28843 14.16C3.04689 15.7748 2.37108 17.7531 2.36524 19.7899ZM7.86524 6.78994C7.86425 6.04551 8.08398 5.31749 8.49664 4.6979C8.9093 4.07831 9.49638 3.59496 10.1837 3.30894C10.871 3.02292 11.6276 2.94706 12.358 3.09096C13.0884 3.23486 13.7597 3.59206 14.2872 4.1174C14.8146 4.64275 15.1745 5.31266 15.3213 6.04247C15.4681 6.77229 15.3953 7.52924 15.112 8.21767C14.8287 8.9061 14.3477 9.49509 13.7297 9.91022C13.1118 10.3253 12.3847 10.548 11.6402 10.5499H11.6152C11.1208 10.5473 10.6317 10.4473 10.176 10.2557C9.72016 10.0641 9.30658 9.78454 8.95883 9.43307C8.61107 9.0816 8.33595 8.66507 8.14917 8.20727C7.96239 7.74947 7.86761 7.25937 7.87024 6.76494L7.86524 6.78994Z" fill="#2C9CF0"/>
</g>
</g>
</svg>
