<svg width="22" height="22" viewBox="0 0 22 22" fill="none" xmlns="http://www.w3.org/2000/svg">
<path d="M15 7L11 11L15 7ZM11 11L7 15L11 11ZM11 11L7 7L11 11ZM11 11L15 15L11 11Z" fill="#E21414" fill-opacity="0.15"/>
<path d="M15 7L11 11M11 11L7 15M11 11L7 7M11 11L15 15" stroke="#E21414" stroke-width="1.5" stroke-linecap="round" stroke-linejoin="round"/>
<path d="M11 21C16.5228 21 21 16.5228 21 11C21 5.47715 16.5228 1 11 1C5.47715 1 1 5.47715 1 11C1 16.5228 5.47715 21 11 21Z" fill="#E21414" fill-opacity="0.15" stroke="#E21414" stroke-width="1.5" stroke-linecap="round" stroke-linejoin="round"/>
</svg>
