<svg width="40" height="40" viewBox="0 0 40 40" fill="none" xmlns="http://www.w3.org/2000/svg">
<g id="&#217;&#133;&#216;&#180;&#216;&#167;&#217;&#136;&#216;&#177;&#217;&#135; 1 1">
<g id="Group">
<path id="Vector" d="M5.64668 24.6372C4.85428 24.6373 4.07966 24.4024 3.42077 23.9622C2.76188 23.522 2.24832 22.8963 1.94504 22.1643C1.64175 21.4322 1.56235 20.6267 1.71689 19.8495C1.87143 19.0723 2.25297 18.3584 2.81324 17.798C3.37352 17.2377 4.08738 16.8561 4.86455 16.7015C5.64171 16.5468 6.44728 16.6261 7.17937 16.9293C7.91147 17.2325 8.53721 17.746 8.97748 18.4049C9.41774 19.0637 9.65274 19.8383 9.65277 20.6307C9.65162 21.6929 9.22919 22.7112 8.47817 23.4623C7.72714 24.2134 6.70885 24.636 5.64668 24.6372ZM5.64668 17.8744C5.10149 17.8744 4.56853 18.036 4.1152 18.3388C3.66187 18.6417 3.30852 19.0722 3.09985 19.5758C2.89119 20.0795 2.83656 20.6337 2.9429 21.1685C3.04923 21.7032 3.31174 22.1943 3.69724 22.5799C4.08273 22.9654 4.57389 23.2279 5.1086 23.3343C5.64331 23.4406 6.19755 23.3861 6.70123 23.1774C7.20492 22.9688 7.63542 22.6155 7.93829 22.1621C8.24116 21.7088 8.40281 21.1759 8.40277 20.6307C8.40178 19.9001 8.11107 19.1997 7.59441 18.6831C7.07774 18.1665 6.37729 17.8759 5.64668 17.8751V17.8744ZM6.97855 38.4674C6.81279 38.4674 6.65382 38.4016 6.53661 38.2843C6.4194 38.1671 6.35355 38.0082 6.35355 37.8424V30.7344C6.35361 30.6263 6.38173 30.52 6.43518 30.4259C6.48862 30.3319 6.56556 30.2533 6.65847 30.1979C6.75137 30.1425 6.85707 30.1122 6.96521 30.1099C7.07335 30.1076 7.18024 30.1334 7.27543 30.1847L9.88918 31.598L14.0142 31.7805C14.034 31.7821 14.054 31.7793 14.0726 31.7724C14.0912 31.7654 14.1081 31.7543 14.122 31.7401C14.1364 31.7265 14.1479 31.7101 14.1557 31.6918C14.1635 31.6736 14.1674 31.6539 14.1671 31.6341C14.1679 31.3391 14.0689 31.0525 13.8861 30.821C13.7034 30.5894 13.4477 30.4265 13.1606 30.3587L9.5734 29.5016C9.44882 29.4717 9.3364 29.4043 9.25121 29.3087L7.75262 27.6212C7.27641 27.085 6.64843 26.7063 5.95201 26.5353C5.25559 26.3644 4.52364 26.4092 3.85329 26.6639C3.18293 26.9186 2.60587 27.3711 2.19865 27.9613C1.79143 28.5516 1.57331 29.2517 1.57324 29.9688V37.8419C1.57324 38.0077 1.50739 38.1667 1.39018 38.2839C1.27297 38.4011 1.114 38.4669 0.948242 38.4669C0.782482 38.4669 0.623511 38.4011 0.5063 38.2839C0.38909 38.1667 0.323242 38.0077 0.323242 37.8419V29.9688C0.32323 28.9981 0.618433 28.0502 1.16967 27.2512C1.72091 26.4521 2.50211 25.8396 3.40961 25.4949C4.3171 25.1501 5.30797 25.0896 6.2507 25.3211C7.19343 25.5527 8.04344 26.0655 8.68793 26.7915L10.0559 28.3319L13.4517 29.1433C14.0124 29.2758 14.5119 29.5941 14.8688 30.0464C15.2258 30.4987 15.4192 31.0584 15.4178 31.6346C15.4178 31.8232 15.3796 32.0098 15.3055 32.1833C15.2314 32.3567 15.1229 32.5133 14.9867 32.6437C14.8504 32.7741 14.6891 32.8755 14.5126 32.9419C14.3361 33.0083 14.1479 33.0382 13.9595 33.0299L9.69106 32.841C9.59667 32.8368 9.50447 32.8112 9.42137 32.7663L7.60355 31.7833V37.8424C7.60355 38.0082 7.53771 38.1671 7.4205 38.2843C7.30329 38.4016 7.14432 38.4674 6.97855 38.4674ZM34.3542 24.6372C33.5618 24.6373 32.7872 24.4023 32.1283 23.9621C31.4694 23.5219 30.9559 22.8962 30.6526 22.1642C30.3494 21.4321 30.27 20.6266 30.4246 19.8494C30.5791 19.0722 30.9607 18.3583 31.521 17.798C32.0812 17.2377 32.7951 16.8561 33.5723 16.7014C34.3494 16.5468 35.155 16.6261 35.8871 16.9293C36.6192 17.2325 37.2449 17.746 37.6851 18.4049C38.1254 19.0637 38.3604 19.8383 38.3604 20.6307C38.3593 21.6929 37.9368 22.7112 37.1858 23.4624C36.4347 24.2135 35.4164 24.636 34.3542 24.6372ZM34.3542 17.8744C33.809 17.8744 33.2761 18.036 32.8227 18.3389C32.3694 18.6418 32.0161 19.0723 31.8075 19.5759C31.5988 20.0796 31.5442 20.6338 31.6506 21.1686C31.7569 21.7033 32.0195 22.1944 32.405 22.5799C32.7905 22.9654 33.2816 23.2279 33.8163 23.3343C34.351 23.4406 34.9053 23.386 35.4089 23.1774C35.9126 22.9688 36.3431 22.6154 36.646 22.1621C36.9488 21.7088 37.1105 21.1759 37.1104 20.6307C37.1095 19.9 36.8188 19.1996 36.3021 18.683C35.7853 18.1664 35.0848 17.8758 34.3542 17.8751V17.8744ZM39.0526 38.4674C38.8869 38.4674 38.7279 38.4016 38.6107 38.2843C38.4935 38.1671 38.4276 38.0082 38.4276 37.8424V29.9688C38.4275 29.2517 38.2094 28.5516 37.8022 27.9613C37.395 27.371 36.8179 26.9185 36.1475 26.6638C35.4772 26.4091 34.7452 26.3643 34.0488 26.5352C33.3523 26.7062 32.7243 27.0849 32.2481 27.621L30.7496 29.3085C30.6645 29.4042 30.552 29.4715 30.4275 29.5015L26.8403 30.3594C26.5532 30.4272 26.2975 30.5902 26.1147 30.8218C25.932 31.0533 25.8329 31.3399 25.8337 31.6349C25.8337 31.6547 25.8377 31.6743 25.8455 31.6925C25.8532 31.7107 25.8646 31.7272 25.8789 31.7409C25.8933 31.7546 25.9102 31.7652 25.9287 31.7722C25.9473 31.7791 25.9671 31.7822 25.9868 31.7813L30.1118 31.5988L32.7257 30.1855C32.8209 30.1341 32.9278 30.1084 33.036 30.1107C33.1441 30.113 33.2498 30.1433 33.3427 30.1987C33.4356 30.2541 33.5126 30.3327 33.566 30.4267C33.6194 30.5207 33.6476 30.627 33.6476 30.7352V37.8427C33.6476 38.0085 33.5818 38.1674 33.4646 38.2847C33.3474 38.4019 33.1884 38.4677 33.0226 38.4677C32.8569 38.4677 32.6979 38.4019 32.5807 38.2847C32.4635 38.1674 32.3976 38.0085 32.3976 37.8427V31.7833L30.5795 32.7657C30.4964 32.8106 30.4042 32.8361 30.3098 32.8404L26.042 33.0293C25.8536 33.0376 25.6654 33.0077 25.4889 32.9413C25.3124 32.8749 25.1511 32.7735 25.0148 32.6431C24.8786 32.5127 24.7701 32.3561 24.696 32.1826C24.6219 32.0092 24.5837 31.8226 24.5837 31.634C24.5822 31.0578 24.7757 30.498 25.1327 30.0457C25.4896 29.5934 25.9891 29.2752 26.5498 29.1427L29.9456 28.3313L31.3134 26.7908C31.958 26.0651 32.808 25.5525 33.7507 25.3211C34.6934 25.0897 35.6841 25.1504 36.5915 25.4952C37.4989 25.8399 38.28 26.4524 38.8312 27.2514C39.3824 28.0504 39.6776 28.9981 39.6776 29.9688V37.8419C39.6777 37.924 39.6616 38.0054 39.6302 38.0813C39.5988 38.1571 39.5528 38.2261 39.4947 38.2842C39.4367 38.3423 39.3678 38.3883 39.2919 38.4198C39.216 38.4512 39.1347 38.4674 39.0526 38.4674ZM28.27 18.5751C28.1397 18.5751 28.0127 18.5344 27.9067 18.4587L23.0506 14.9888H16.5428C16.0652 14.9882 15.6073 14.7983 15.2696 14.4606C14.9319 14.1229 14.7419 13.6651 14.7412 13.1876V3.33412C14.7417 2.8565 14.9317 2.39859 15.2695 2.06087C15.6072 1.72316 16.0651 1.53321 16.5428 1.53271H31.1354C31.6131 1.53321 32.071 1.72316 32.4087 2.06087C32.7465 2.39859 32.9365 2.8565 32.937 3.33412V13.1876C32.9365 13.6652 32.7465 14.1231 32.4087 14.4609C32.071 14.7987 31.6131 14.9887 31.1354 14.9893H28.895V17.9501C28.895 18.1158 28.8291 18.2748 28.7119 18.392C28.5947 18.5092 28.4357 18.5751 28.27 18.5751ZM16.5428 2.78271C16.3966 2.78288 16.2564 2.84102 16.153 2.94439C16.0496 3.04776 15.9914 3.18792 15.9912 3.33412V13.1876C15.9914 13.3338 16.0495 13.474 16.1529 13.5774C16.2563 13.6809 16.3965 13.7391 16.5428 13.7393H23.2504C23.3807 13.7393 23.5077 13.78 23.6137 13.8557L27.645 16.7357V14.3638C27.645 14.198 27.7108 14.0391 27.828 13.9219C27.9452 13.8047 28.1042 13.7388 28.27 13.7388H31.1354C31.2817 13.7386 31.4219 13.6804 31.5253 13.577C31.6287 13.4735 31.6868 13.3333 31.687 13.1871V3.33412C31.6868 3.18792 31.6286 3.04776 31.5252 2.94439C31.4218 2.84102 31.2816 2.78288 31.1354 2.78271H16.5428Z" fill="#2C9CF0"/>
<path id="Vector_2" d="M29.365 7.82349H18.3125C18.1467 7.82349 17.9878 7.75764 17.8706 7.64043C17.7533 7.52322 17.6875 7.36425 17.6875 7.19849C17.6875 7.03273 17.7533 6.87375 17.8706 6.75654C17.9878 6.63933 18.1467 6.57349 18.3125 6.57349H29.3652C29.5309 6.57349 29.6899 6.63933 29.8071 6.75654C29.9243 6.87375 29.9902 7.03273 29.9902 7.19849C29.9902 7.36425 29.9243 7.52322 29.8071 7.64043C29.6899 7.75764 29.5308 7.82349 29.365 7.82349ZM27.0872 10.6788H26.3944C26.2286 10.6788 26.0696 10.613 25.9524 10.4957C25.8352 10.3785 25.7694 10.2196 25.7694 10.0538C25.7694 9.88804 25.8352 9.72907 25.9524 9.61186C26.0696 9.49465 26.2286 9.4288 26.3944 9.4288H27.0872C27.2529 9.4288 27.4119 9.49465 27.5291 9.61186C27.6463 9.72907 27.7122 9.88804 27.7122 10.0538C27.7122 10.2196 27.6463 10.3785 27.5291 10.4957C27.4119 10.613 27.2529 10.6788 27.0872 10.6788ZM24.8094 10.6788H18.3125C18.1467 10.6788 17.9878 10.613 17.8706 10.4957C17.7533 10.3785 17.6875 10.2196 17.6875 10.0538C17.6875 9.88804 17.7533 9.72907 17.8706 9.61186C17.9878 9.49465 18.1467 9.4288 18.3125 9.4288H24.8094C24.9751 9.4288 25.1341 9.49465 25.2513 9.61186C25.3685 9.72907 25.4344 9.88804 25.4344 10.0538C25.4344 10.2196 25.3685 10.3785 25.2513 10.4957C25.1341 10.613 24.9751 10.6788 24.8094 10.6788Z" fill="#2C9CF0"/>
<path id="Vector_3" d="M12.3405 20.2813C12.1747 20.2813 12.0157 20.2155 11.8985 20.0983C11.7813 19.9811 11.7155 19.8221 11.7155 19.6563V17.0132H9.72906C9.27897 17.0128 8.84741 16.8339 8.5291 16.5157C8.2108 16.1975 8.03175 15.766 8.03125 15.3159V6.33711C8.03175 5.88702 8.2108 5.45551 8.5291 5.13729C8.84741 4.81907 9.27897 4.64014 9.72906 4.63977H13.3022C13.4679 4.63977 13.6269 4.70562 13.7441 4.82283C13.8613 4.94004 13.9272 5.09901 13.9272 5.26477C13.9272 5.43053 13.8613 5.5895 13.7441 5.70671C13.6269 5.82392 13.4679 5.88977 13.3022 5.88977H9.72906C9.61039 5.88981 9.49658 5.93694 9.41262 6.02081C9.32866 6.10468 9.28142 6.21844 9.28125 6.33711V15.3159C9.28137 15.4345 9.32854 15.5482 9.41241 15.632C9.49628 15.7159 9.60999 15.7631 9.72859 15.7632H12.3405C12.5062 15.7632 12.6652 15.8291 12.7824 15.9463C12.8996 16.0635 12.9655 16.2224 12.9655 16.3882V18.4415L16.5508 15.879C16.6568 15.8033 16.7838 15.7626 16.9141 15.7626H23.027C23.1928 15.7626 23.3518 15.8284 23.469 15.9456C23.5862 16.0629 23.652 16.2218 23.652 16.3876C23.652 16.5533 23.5862 16.7123 23.469 16.8295C23.3518 16.9467 23.1928 17.0126 23.027 17.0126H17.1144L12.7031 20.1649C12.5973 20.2405 12.4705 20.2812 12.3405 20.2813ZM29.6642 34.6909H27.2173C27.0516 34.6909 26.8926 34.625 26.7754 34.5078C26.6582 34.3906 26.5923 34.2316 26.5923 34.0659C26.5923 33.9001 26.6582 33.7411 26.7754 33.6239C26.8926 33.5067 27.0516 33.4409 27.2173 33.4409H29.6642C29.83 33.4409 29.9889 33.5067 30.1062 33.6239C30.2234 33.7411 30.2892 33.9001 30.2892 34.0659C30.2892 34.2316 30.2234 34.3906 30.1062 34.5078C29.9889 34.625 29.83 34.6909 29.6642 34.6909ZM25.2083 34.6909H24.5966C24.4308 34.6909 24.2718 34.625 24.1546 34.5078C24.0374 34.3906 23.9716 34.2316 23.9716 34.0659C23.9716 33.9001 24.0374 33.7411 24.1546 33.6239C24.2718 33.5067 24.4308 33.4409 24.5966 33.4409H25.2083C25.374 33.4409 25.533 33.5067 25.6502 33.6239C25.7674 33.7411 25.8333 33.9001 25.8333 34.0659C25.8333 34.2316 25.7674 34.3906 25.6502 34.5078C25.533 34.625 25.374 34.6909 25.2083 34.6909ZM22.8158 34.6909H10.3358C10.17 34.6909 10.011 34.625 9.89384 34.5078C9.77663 34.3906 9.71078 34.2316 9.71078 34.0659C9.71078 33.9001 9.77663 33.7411 9.89384 33.6239C10.011 33.5067 10.17 33.4409 10.3358 33.4409H22.8158C22.9815 33.4409 23.1405 33.5067 23.2577 33.6239C23.3749 33.7411 23.4408 33.9001 23.4408 34.0659C23.4408 34.2316 23.3749 34.3906 23.2577 34.5078C23.1405 34.625 22.9815 34.6909 22.8158 34.6909Z" fill="#2C9CF0"/>
</g>
</g>
</svg>
