<svg width="48" height="48" viewBox="0 0 48 48" fill="none" xmlns="http://www.w3.org/2000/svg">
<path d="M22.7732 14.6278L20.275 14.0895C18.2371 13.6502 16.2126 14.8709 15.7523 16.8162L15.1832 19.2207C16.8228 16.7355 19.5751 14.9881 22.7732 14.6278ZM13.6577 25.671L13.0938 28.0556C12.6335 30.0009 13.9124 31.9335 15.9503 32.3728L18.4693 32.916C15.8658 31.3504 14.0351 28.7238 13.6577 25.671ZM32.0497 16.6272L29.5307 16.084C32.1342 17.649 33.9649 20.2762 34.3423 23.3284L34.9062 20.9438C35.3665 18.9996 34.0876 17.0665 32.0497 16.6272ZM25.2268 34.3722L27.725 34.9105C29.7629 35.3498 31.7874 34.1291 32.2477 32.1838L32.8168 29.7793C31.1772 32.2645 28.4249 34.0119 25.2268 34.3722Z" fill="#2C9CF0"/>
<path d="M24.5 16C19.8053 16 16 19.8053 16 24.5C16 29.1947 19.8053 33 24.5 33C29.1947 33 33 29.1947 33 24.5C33 19.8053 29.1947 16 24.5 16ZM22.375 18.6562C23.5485 18.6562 24.5 19.6077 24.5 20.7812C24.5 21.9548 23.5485 22.9062 22.375 22.9062C21.2015 22.9062 20.25 21.9548 20.25 20.7812C20.25 19.6077 21.2015 18.6562 22.375 18.6562ZM20.7812 28.75C19.6077 28.75 18.6562 27.7985 18.6562 26.625C18.6562 25.4515 19.6077 24.5 20.7812 24.5C21.9548 24.5 22.9062 25.4515 22.9062 26.625C22.9062 27.7985 21.9548 28.75 20.7812 28.75ZM23.4375 24.5C23.4375 23.913 23.913 23.4375 24.5 23.4375C25.087 23.4375 25.5625 23.913 25.5625 24.5C25.5625 25.087 25.087 25.5625 24.5 25.5625C23.913 25.5625 23.4375 25.087 23.4375 24.5ZM26.625 30.3438C25.4515 30.3438 24.5 29.3923 24.5 28.2188C24.5 27.0452 25.4515 26.0938 26.625 26.0938C27.7985 26.0938 28.75 27.0452 28.75 28.2188C28.75 29.3923 27.7985 30.3438 26.625 30.3438ZM28.2188 24.5C27.0452 24.5 26.0938 23.5485 26.0938 22.375C26.0938 21.2015 27.0452 20.25 28.2188 20.25C29.3923 20.25 30.3438 21.2015 30.3438 22.375C30.3438 23.5485 29.3923 24.5 28.2188 24.5Z" fill="#2C9CF0"/>
<circle cx="24" cy="24" r="23.5" stroke="#2C9CF0"/>
</svg>
