<svg width="568" height="378" viewBox="0 0 568 378" fill="none" xmlns="http://www.w3.org/2000/svg">
<path d="M518.016 324.626C518.016 324.626 538.464 287.582 537.707 227.102C536.949 166.622 500.597 109.922 455.915 94.0464C411.232 78.1704 371.851 98.5824 318.837 100.85C265.824 103.118 234.773 36.5904 159.04 68.3424C83.3067 100.094 83.3067 164.354 96.1814 195.35C109.056 226.346 133.291 241.466 106.784 263.39C80.2774 285.314 54.528 298.922 46.9547 307.238C42.4776 312.058 39.5725 318.122 38.624 324.626H518.016Z" fill="#94EE8B"/>
<path opacity="0.7" d="M518.016 324.626C518.016 324.626 538.464 287.582 537.707 227.102C536.949 166.622 500.597 109.922 455.915 94.0464C411.232 78.1704 371.851 98.5824 318.837 100.85C265.824 103.118 234.773 36.5904 159.04 68.3424C83.3067 100.094 83.3067 164.354 96.1814 195.35C109.056 226.346 133.291 241.466 106.784 263.39C80.2774 285.314 54.528 298.922 46.9547 307.238C42.4776 312.058 39.5725 318.122 38.624 324.626H518.016Z" fill="white"/>
<g opacity="0.2">
<path d="M184.79 57.834C181.125 57.837 177.542 58.9246 174.496 60.9593C171.449 62.994 169.075 65.8845 167.674 69.2656C166.273 72.6467 165.907 76.3665 166.623 79.9551C167.338 83.5437 169.104 86.8399 171.696 89.4272C174.288 92.0146 177.59 93.7769 181.185 94.4914C184.779 95.206 188.506 94.8408 191.893 93.4419C195.28 92.043 198.176 89.6733 200.214 86.6322C202.252 83.5911 203.342 80.015 203.345 76.356C203.345 71.4437 201.39 66.7325 197.91 63.259C194.43 59.7854 189.711 57.834 184.79 57.834ZM186.676 87.6431V89.4273H183.533V87.6431C180.769 87.0912 179.375 84.9593 179.375 81.648V79.9773H183.01V81.8899C183.01 83.6363 183.768 84.2638 185.002 84.2638C186.237 84.2638 186.994 83.6363 186.994 81.8899C186.994 76.8701 179.481 76.5979 179.481 69.6503C179.481 66.3693 180.844 64.2827 183.533 63.6855V61.8711H186.676V63.6855C189.402 64.2449 190.796 66.339 190.796 69.6503V70.4063H187.168V69.4084C187.168 67.662 186.464 66.9967 185.244 66.9967C184.025 66.9967 183.321 67.662 183.321 69.4084C183.321 74.4282 190.834 74.7004 190.834 81.648C190.849 84.9593 189.417 87.0912 186.691 87.6431H186.676Z" stroke="black" stroke-linecap="round" stroke-linejoin="round"/>
<path d="M184.79 50.4025C179.65 50.401 174.625 51.9212 170.351 54.7708C166.076 57.6204 162.745 61.6713 160.777 66.4112C158.81 71.1511 158.294 76.3671 159.297 81.3994C160.299 86.4316 162.774 91.0541 166.408 94.6821C170.043 98.3101 174.673 100.781 179.715 101.781C184.756 102.782 189.981 102.268 194.729 100.303C199.477 98.3392 203.536 95.0135 206.39 90.7468C209.245 86.4801 210.768 81.4641 210.766 76.3333C210.766 69.4561 208.029 62.8605 203.158 57.9975C198.286 53.1345 191.679 50.4025 184.79 50.4025ZM184.79 97.6374C180.568 97.6344 176.443 96.3818 172.935 94.0381C169.426 91.6944 166.693 88.3647 165.081 84.4703C163.469 80.5759 163.05 76.2917 163.877 72.1595C164.704 68.0273 166.74 64.2327 169.727 61.2557C172.715 58.2787 176.52 56.253 180.661 55.4347C184.802 54.6165 189.093 55.0425 192.991 56.6589C196.889 58.2753 200.22 61.0094 202.562 64.5155C204.903 68.0216 206.151 72.1421 206.146 76.356C206.134 82.003 203.879 87.4148 199.875 91.4043C195.872 95.3938 190.447 97.6354 184.79 97.6374Z" stroke="black" stroke-linecap="round" stroke-linejoin="round"/>
</g>
<g opacity="0.2">
<path d="M339.21 61.1906C336.528 61.1906 333.905 61.9847 331.675 63.4725C329.444 64.9603 327.706 67.075 326.679 69.5491C325.652 72.0232 325.384 74.7456 325.907 77.3721C326.43 79.9986 327.722 82.4112 329.619 84.3048C331.516 86.1984 333.933 87.488 336.564 88.0104C339.195 88.5328 341.923 88.2647 344.401 87.2399C346.879 86.2151 348.998 84.4796 350.488 82.253C351.979 80.0264 352.774 77.4086 352.774 74.7306C352.77 71.1408 351.34 67.6992 348.797 65.1608C346.254 62.6225 342.806 61.1946 339.21 61.1906ZM340.589 83.0088V84.3091H338.317V83.0088C336.295 82.6006 335.287 81.0432 335.287 78.6164V77.3917H337.946V78.7979C337.946 80.0755 338.514 80.5291 339.407 80.5291C340.301 80.5291 340.861 80.0755 340.861 78.7979C340.861 75.1237 335.363 74.9423 335.363 69.8393C335.363 67.4428 336.363 65.9081 338.332 65.4772V64.1466H340.604V65.4772C342.596 65.8854 343.633 67.4125 343.633 69.8393V70.3987H340.975V69.6427C340.975 68.3726 340.467 67.8812 339.566 67.8812C338.665 67.8812 338.165 68.3726 338.165 69.6427C338.165 73.3169 343.663 73.4983 343.663 78.6013C343.633 81.0432 342.58 82.6006 340.589 83.0088Z" stroke="black" stroke-linecap="round" stroke-linejoin="round"/>
<path d="M339.21 55.755C335.451 55.755 331.775 56.8679 328.649 58.953C325.523 61.038 323.087 64.0016 321.648 67.469C320.209 70.9363 319.833 74.7517 320.566 78.4326C321.3 82.1135 323.11 85.4946 325.769 88.1484C328.427 90.8022 331.814 92.6094 335.502 93.3416C339.189 94.0738 343.011 93.698 346.485 92.2618C349.958 90.8256 352.927 88.3934 355.016 85.2729C357.104 82.1524 358.219 78.4836 358.219 74.7306C358.219 69.698 356.217 64.8714 352.652 61.3128C349.087 57.7542 344.252 55.755 339.21 55.755ZM339.21 90.3193C336.122 90.3193 333.102 89.4051 330.534 87.6922C327.966 85.9792 325.965 83.5446 324.783 80.6961C323.601 77.8477 323.292 74.7133 323.894 71.6894C324.497 68.6655 325.984 65.8878 328.168 63.7077C330.352 61.5276 333.134 60.0429 336.164 59.4414C339.193 58.8399 342.333 59.1486 345.186 60.3285C348.04 61.5084 350.479 63.5064 352.195 66.07C353.911 68.6335 354.826 71.6474 354.826 74.7306C354.822 78.8638 353.176 82.8265 350.248 85.7491C347.32 88.6717 343.351 90.3153 339.21 90.3193Z" stroke="black" stroke-linecap="round" stroke-linejoin="round"/>
</g>
<g opacity="0.2">
<path d="M55.9515 181.221C53.2689 181.221 50.6464 182.015 48.4159 183.503C46.1853 184.99 44.4468 187.105 43.4202 189.579C42.3936 192.053 42.125 194.776 42.6483 197.402C43.1717 200.029 44.4635 202.441 46.3605 204.335C48.2574 206.229 50.6742 207.518 53.3054 208.041C55.9365 208.563 58.6637 208.295 61.1422 207.27C63.6207 206.245 65.739 204.51 67.2295 202.283C68.7199 200.056 69.5154 197.439 69.5154 194.761C69.5114 191.171 68.081 187.729 65.5382 185.191C62.9954 182.653 59.5477 181.225 55.9515 181.221ZM57.3299 203.039V204.339H55.0579V203.039C53.0358 202.631 52.0286 201.073 52.0286 198.647V197.422H54.6868V198.828C54.6868 200.106 55.2472 200.567 56.1484 200.567C57.0497 200.567 57.5571 200.106 57.5571 198.828C57.5571 195.154 52.0588 194.972 52.0588 189.869C52.0588 187.473 53.0585 185.938 55.0276 185.507V184.177H57.2996V185.507C59.2914 185.916 60.3289 187.443 60.3289 189.869V190.429H57.6858V189.673C57.6858 188.403 57.1708 187.919 56.2772 187.919C55.3835 187.919 54.8761 188.403 54.8761 189.673C54.8761 193.355 60.3668 193.528 60.3668 198.631C60.3668 201.096 59.3217 202.608 57.3299 203.039Z" stroke="black" stroke-linecap="round" stroke-linejoin="round"/>
<path d="M55.9519 175.785C52.1929 175.788 48.5192 176.904 45.3952 178.99C42.2712 181.077 39.8371 184.042 38.4007 187.51C36.9642 190.977 36.5899 194.792 37.3251 198.472C38.0603 202.152 39.8719 205.532 42.531 208.184C45.1901 210.836 48.5772 212.642 52.2642 213.373C55.9511 214.104 59.7725 213.727 63.245 212.29C66.7176 210.854 69.6855 208.422 71.7736 205.301C73.8617 202.181 74.9761 198.513 74.9762 194.761C74.9752 192.268 74.4823 189.8 73.5257 187.497C72.5691 185.194 71.1675 183.102 69.401 181.34C67.6344 179.578 65.5375 178.18 63.2299 177.227C60.9223 176.274 58.4492 175.784 55.9519 175.785ZM55.9519 210.349C52.8633 210.349 49.8441 209.435 47.276 207.722C44.708 206.009 42.7064 203.575 41.5244 200.726C40.3425 197.878 40.0332 194.743 40.6358 191.72C41.2383 188.696 42.7256 185.918 44.9096 183.738C47.0936 181.558 49.8761 180.073 52.9054 179.472C55.9346 178.87 59.0745 179.179 61.928 180.359C64.7815 181.539 67.2204 183.537 68.9363 186.1C70.6523 188.664 71.5682 191.678 71.5682 194.761C71.5641 198.894 69.9176 202.857 66.9898 205.779C64.0621 208.702 60.0924 210.345 55.9519 210.349Z" stroke="black" stroke-linecap="round" stroke-linejoin="round"/>
</g>
<g opacity="0.2">
<path d="M517.578 166.169C514.895 166.169 512.272 166.963 510.042 168.451C507.811 169.938 506.073 172.053 505.046 174.527C504.02 177.001 503.751 179.724 504.274 182.35C504.798 184.977 506.09 187.389 507.986 189.283C509.883 191.177 512.3 192.466 514.931 192.989C517.562 193.511 520.29 193.243 522.768 192.218C525.247 191.193 527.365 189.458 528.855 187.231C530.346 185.005 531.141 182.387 531.141 179.709C531.137 176.119 529.707 172.677 527.164 170.139C524.621 167.601 521.174 166.173 517.578 166.169ZM518.956 187.987V189.287H516.684V187.987C514.669 187.579 513.655 186.021 513.655 183.595V182.37H516.313V183.776C516.313 185.046 516.873 185.507 517.767 185.507C518.661 185.507 519.221 185.046 519.221 183.776C519.221 180.094 513.73 179.92 513.73 174.817C513.73 172.413 514.722 170.886 516.691 170.448V169.125H518.963V170.448C520.955 170.856 521.993 172.391 521.993 174.817V175.392H519.335V174.636C519.335 173.358 518.827 172.875 517.933 172.875C517.04 172.875 516.502 173.358 516.502 174.636C516.502 178.31 522 178.492 522 183.595C522 186.021 520.948 187.579 518.956 187.987Z" stroke="black" stroke-linecap="round" stroke-linejoin="round"/>
<path d="M517.577 160.733C513.818 160.733 510.143 161.846 507.017 163.931C503.891 166.016 501.454 168.98 500.015 172.447C498.577 175.914 498.2 179.73 498.934 183.411C499.667 187.092 501.478 190.473 504.136 193.127C506.794 195.78 510.182 197.588 513.869 198.32C517.556 199.052 521.378 198.676 524.852 197.24C528.325 195.804 531.294 193.372 533.383 190.251C535.472 187.131 536.587 183.462 536.587 179.709C536.587 177.217 536.095 174.749 535.14 172.447C534.184 170.145 532.784 168.053 531.019 166.291C529.254 164.529 527.158 163.131 524.852 162.178C522.546 161.224 520.074 160.733 517.577 160.733ZM517.577 195.297C514.488 195.303 511.465 194.394 508.893 192.685C506.321 190.976 504.315 188.543 503.128 185.695C501.942 182.847 501.628 179.712 502.227 176.686C502.826 173.66 504.311 170.88 506.494 168.697C508.677 166.513 511.459 165.026 514.489 164.422C517.519 163.818 520.661 164.125 523.516 165.304C526.371 166.483 528.812 168.481 530.529 171.045C532.247 173.609 533.163 176.624 533.163 179.709C533.159 183.837 531.517 187.795 528.596 190.717C525.675 193.638 521.713 195.285 517.577 195.297Z" stroke="black" stroke-linecap="round" stroke-linejoin="round"/>
</g>
<path d="M24.9922 325.012H529.376" stroke="#263238" stroke-linecap="round" stroke-linejoin="round"/>
<path d="M55.0501 258.552C57.3221 259.527 62.7674 259.399 62.7749 259.399C62.7825 259.399 61.5935 255.823 61.4875 255.619C60.2909 253.109 56.4891 248.966 53.3916 249.382C52.8805 249.466 52.3928 249.657 51.9603 249.941C51.5277 250.225 51.1599 250.598 50.8807 251.033C50.6015 251.469 50.4171 251.958 50.3395 252.469C50.262 252.98 50.2929 253.502 50.4304 254.001C50.9454 256.087 53.1417 257.675 55.0501 258.552Z" fill="#94EE8B"/>
<path d="M56.9438 274.352C59.2613 274.685 64.1536 273.271 64.5172 273.158C65.3224 275.95 66.3142 278.686 67.4859 281.345C68.1524 282.903 68.8794 284.445 69.6292 285.987C69.1823 285.337 68.781 284.755 68.7128 284.679C66.8876 282.578 62.1316 279.576 59.2537 280.801C58.7827 281.016 58.3623 281.328 58.0199 281.715C57.6775 282.103 57.4208 282.559 57.2664 283.052C57.1121 283.546 57.0637 284.066 57.1242 284.58C57.1848 285.093 57.353 285.588 57.6179 286.033C58.6781 287.96 61.2228 288.913 63.2827 289.215C65.3427 289.518 69.561 288.399 70.6667 288.081L71.5452 289.85C72.9614 292.663 74.3852 295.46 75.6954 298.257C76.1574 299.24 76.5815 300.223 77.0056 301.206C76.6042 300.631 76.2483 300.147 76.2483 300.079C74.4231 297.97 69.6595 294.976 66.7892 296.193C66.316 296.407 65.8932 296.718 65.5484 297.105C65.2036 297.493 64.9445 297.949 64.788 298.443C64.6315 298.937 64.5811 299.459 64.6402 299.974C64.6992 300.489 64.8663 300.986 65.1306 301.432C66.1909 303.36 68.7279 304.313 70.7879 304.615C72.8478 304.917 76.6648 303.897 77.9825 303.534C78.3839 304.555 78.7853 305.583 79.1337 306.558C79.3533 307.254 79.6108 307.904 79.7926 308.614C79.9743 309.325 80.1864 309.998 80.3757 310.686C80.6938 312.016 81.0346 313.385 81.3148 314.693C81.5117 315.6 81.6859 316.469 81.8677 317.339C81.4208 316.356 80.4969 314.451 80.3984 314.315C78.8838 311.956 74.6654 308.267 71.6437 309.023C71.145 309.164 70.6818 309.409 70.2841 309.741C69.8864 310.073 69.5631 310.485 69.3353 310.95C69.1074 311.414 68.9801 311.922 68.9616 312.439C68.9431 312.956 69.0338 313.472 69.2278 313.952C69.9851 316.016 72.3556 317.346 74.3398 317.951C76.536 318.624 81.383 318.011 81.9888 317.951C82.2842 319.402 82.5493 320.809 82.7462 322.147C82.9204 323.137 83.0794 324.082 83.2233 324.997H85.1696C84.9879 323.976 84.7834 322.918 84.5638 321.807C84.276 320.332 83.9352 318.783 83.5717 317.165C85.0333 316.58 86.4595 315.912 87.843 315.161C89.441 316.893 93.5306 318.941 94.0607 319.168C93.5079 320.536 92.9475 321.859 92.4022 323.099C92.122 323.757 91.8418 324.377 91.5615 324.997H93.6215L94.1062 323.817C94.6818 322.434 95.2649 320.937 95.848 319.402C96.4312 319.523 101.24 320.499 103.474 319.992C105.504 319.538 107.965 318.389 108.874 316.386C109.102 315.922 109.231 315.415 109.25 314.898C109.27 314.382 109.181 313.867 108.989 313.387C108.797 312.906 108.507 312.472 108.136 312.111C107.765 311.75 107.323 311.47 106.837 311.291C103.876 310.3 99.3621 313.649 97.749 315.887C97.6505 316.023 96.7493 317.573 96.1964 318.563C96.4312 317.928 96.666 317.323 96.9007 316.673C97.3779 315.388 97.8095 314.088 98.2791 312.697C98.4836 312.016 98.688 311.328 98.9001 310.64C99.1121 309.952 99.2636 309.204 99.453 308.478C99.8543 306.792 100.21 305.061 100.468 303.315C101.596 303.723 105.625 305.122 107.708 304.978C109.791 304.834 112.388 304.071 113.592 302.226C113.891 301.803 114.096 301.321 114.195 300.813C114.295 300.304 114.285 299.781 114.168 299.277C114.051 298.772 113.828 298.298 113.515 297.885C113.202 297.473 112.805 297.13 112.35 296.881C109.579 295.452 104.603 298.091 102.634 300.049C102.505 300.17 101.248 301.742 100.574 302.612C100.74 301.561 100.907 300.51 101.043 299.444C101.43 296.352 101.717 293.215 102.028 290.085C102.119 289.125 102.225 288.172 102.323 287.22C102.725 287.363 107.473 289.132 109.813 288.966C111.888 288.822 114.494 288.059 115.69 286.214C115.988 285.791 116.194 285.31 116.293 284.802C116.392 284.295 116.383 283.772 116.266 283.268C116.148 282.764 115.926 282.291 115.613 281.879C115.299 281.467 114.903 281.125 114.448 280.877C111.676 279.448 106.708 282.079 104.732 284.037C104.58 284.188 102.77 286.448 102.338 287.061C102.566 284.959 102.808 282.865 103.096 280.809C103.516 278.03 104.118 275.283 104.898 272.583C105.08 272.651 110.033 274.519 112.426 274.352C114.501 274.201 117.106 273.445 118.311 271.601C118.608 271.177 118.812 270.695 118.911 270.187C119.009 269.679 119 269.156 118.883 268.652C118.766 268.148 118.543 267.674 118.231 267.261C117.918 266.848 117.522 266.506 117.069 266.256C114.289 264.827 109.321 267.458 107.344 269.423C107.193 269.574 105.247 272.009 104.928 272.447C104.974 272.289 105.004 272.122 105.05 271.971C105.903 269.284 106.996 266.678 108.314 264.184C109.026 262.801 109.783 261.515 110.586 260.276C111.472 260.722 115.539 262.695 117.712 262.778C119.886 262.861 122.461 262.392 123.862 260.691C124.204 260.303 124.461 259.846 124.615 259.352C124.77 258.858 124.818 258.337 124.757 257.823C124.696 257.309 124.528 256.813 124.263 256.368C123.998 255.923 123.642 255.539 123.218 255.241C120.613 253.517 115.387 255.588 113.206 257.327C113.085 257.418 111.987 258.514 111.199 259.316C111.555 258.764 111.904 258.189 112.252 257.667C113.562 255.709 114.88 253.986 116.039 252.481C116.72 251.627 117.349 250.863 117.939 250.16C119.038 250.16 123.453 250.009 125.384 249.102C127.315 248.195 129.421 246.577 129.883 244.422C130.006 243.92 130.023 243.397 129.931 242.888C129.839 242.379 129.641 241.895 129.35 241.467C129.058 241.04 128.68 240.678 128.24 240.405C127.799 240.133 127.306 239.956 126.793 239.886C123.688 239.546 119.977 243.795 118.871 246.335C118.773 246.554 117.629 250.168 117.69 250.168H117.758C117.167 250.841 116.546 251.559 115.88 252.36C114.668 253.872 113.312 255.543 111.957 257.478C110.48 259.557 109.122 261.718 107.89 263.95C106.5 266.447 105.336 269.063 104.413 271.767C104.417 271.8 104.417 271.832 104.413 271.865C104.413 270.95 104.413 268.395 104.368 268.199C104.005 265.447 101.695 260.321 98.6199 259.754C98.1076 259.674 97.5841 259.702 97.0835 259.838C96.583 259.973 96.1167 260.212 95.7151 260.54C95.3134 260.867 94.9855 261.275 94.7526 261.738C94.5197 262.201 94.3872 262.707 94.3637 263.224C94.1819 265.416 95.7723 267.609 97.3248 268.992C99.0743 270.557 103.936 272.069 104.323 272.183C103.454 274.957 102.768 277.786 102.27 280.65C101.975 282.313 101.725 284.007 101.513 285.7C101.513 284.906 101.513 284.188 101.475 284.105C101.112 281.345 98.7941 276.227 95.7269 275.66C95.2146 275.58 94.6911 275.608 94.1905 275.744C93.69 275.879 93.2237 276.118 92.822 276.446C92.4204 276.773 92.0924 277.182 91.8596 277.644C91.6267 278.107 91.4942 278.613 91.4707 279.13C91.2889 281.315 92.8793 283.515 94.4318 284.899C95.9844 286.282 100.127 287.673 101.248 288.021C101.172 288.671 101.081 289.321 101.005 289.971C100.627 293.101 100.248 296.223 99.824 299.27C99.665 300.351 99.4757 301.402 99.2788 302.453C99.2788 301.757 99.2788 301.16 99.2788 301.077C98.9228 298.318 96.6054 293.192 93.5382 292.625C93.026 292.546 92.503 292.575 92.0029 292.711C91.5029 292.847 91.0371 293.086 90.6357 293.413C90.2344 293.741 89.9064 294.149 89.6732 294.611C89.44 295.072 89.3067 295.578 89.282 296.095C89.1002 298.287 90.6906 300.48 92.2431 301.863C93.7957 303.247 97.5445 304.509 98.8319 304.925C98.6047 305.999 98.3775 307.08 98.0746 308.108C97.8701 308.803 97.7262 309.491 97.4915 310.187C97.2567 310.882 97.0446 311.555 96.825 312.236C96.3555 313.521 95.8859 314.851 95.3936 316.091C95.0604 316.961 94.7272 317.785 94.394 318.609C94.5606 317.543 94.8484 315.441 94.8559 315.26C94.8153 312.814 94.1534 310.418 92.9323 308.297C92.9411 308.024 92.9233 307.75 92.8793 307.48C92.8153 306.964 92.6423 306.467 92.3719 306.022C92.1014 305.577 91.7396 305.195 91.3102 304.9C90.8808 304.605 90.3937 304.404 89.8809 304.311C89.3681 304.217 88.8414 304.233 88.3353 304.358C85.306 305.159 83.4051 310.406 83.2612 313.218C83.2612 313.385 83.3596 315.169 83.4429 316.303C83.2915 315.645 83.1551 315.01 82.9885 314.337C82.6704 313.007 82.3221 311.684 81.9434 310.262C81.7389 309.582 81.5269 308.894 81.3148 308.206C81.1028 307.518 80.8301 306.807 80.5575 306.097C79.9592 304.471 79.2776 302.846 78.5506 301.228C79.7244 300.948 83.8519 299.898 85.5104 298.628C87.169 297.357 88.9109 295.294 88.8957 293.094C88.9113 292.576 88.8173 292.061 88.6199 291.582C88.4225 291.103 88.1262 290.672 87.7502 290.315C87.3743 289.958 86.9272 289.685 86.4382 289.512C85.9491 289.34 85.4291 289.272 84.9122 289.314C81.8071 289.654 79.111 294.606 78.5506 297.312C78.5506 297.478 78.3309 299.482 78.2552 300.578C77.8084 299.61 77.3691 298.643 76.892 297.675C75.5061 294.885 74.0141 292.111 72.5373 289.359C72.0905 288.512 71.6437 287.658 71.2044 286.804C71.6209 286.713 76.5588 285.564 78.4142 284.143C80.0652 282.88 81.8147 280.809 81.7995 278.609C81.815 278.091 81.721 277.576 81.5237 277.097C81.3263 276.619 81.0299 276.187 80.654 275.83C80.2781 275.473 79.831 275.2 79.342 275.027C78.8529 274.855 78.3329 274.787 77.8159 274.829C74.7109 275.161 72.0148 280.121 71.4543 282.82C71.4089 283.031 71.1514 285.904 71.1211 286.645C70.1442 284.763 69.1899 282.865 68.319 280.99C67.1411 278.442 66.1292 275.821 65.2896 273.143C65.4865 273.097 70.644 271.926 72.5449 270.467C74.1959 269.204 75.9453 267.133 75.9302 264.933C75.9458 264.414 75.8516 263.899 75.6538 263.419C75.456 262.94 75.1589 262.508 74.7822 262.151C74.4054 261.794 73.9573 261.521 73.4674 261.349C72.9774 261.177 72.4566 261.11 71.939 261.153C68.8415 261.485 66.1454 266.445 65.585 269.144C65.5396 269.363 65.2594 272.455 65.2518 273.022C65.2063 272.871 65.1382 272.712 65.0927 272.553C64.3181 269.834 63.7884 267.051 63.5099 264.237C63.3357 262.687 63.26 261.213 63.2145 259.746C64.1991 259.625 68.6825 259.036 70.538 257.909C72.3934 256.783 74.2868 254.969 74.514 252.784C74.5867 252.271 74.5501 251.749 74.4067 251.252C74.2632 250.754 74.016 250.293 73.6814 249.897C73.3468 249.502 72.9322 249.181 72.4649 248.957C71.9975 248.733 71.488 248.61 70.9696 248.595C67.8494 248.595 64.6308 253.192 63.7674 255.838C63.722 255.989 63.4115 257.501 63.1994 258.605C63.1994 257.955 63.1615 257.274 63.1994 256.647C63.1994 254.296 63.3509 252.111 63.4948 250.228C63.5932 249.14 63.6917 248.165 63.8053 247.25C64.7065 246.63 68.3493 244.082 69.4247 242.268C70.5001 240.453 71.3937 237.936 70.5834 235.887C70.4104 235.399 70.1363 234.953 69.7789 234.578C69.4216 234.203 68.9891 233.907 68.5095 233.711C68.03 233.514 67.5143 233.42 66.996 233.435C66.4777 233.451 65.9685 233.575 65.5017 233.801C62.7299 235.229 62.0028 240.801 62.4724 243.545C62.5178 243.787 63.5629 247.424 63.6084 247.393H63.6614C63.5402 248.27 63.419 249.215 63.313 250.244C63.1237 252.156 62.9268 254.318 62.8662 256.677C62.7792 259.226 62.8399 261.778 63.0479 264.32C63.2694 267.167 63.7459 269.988 64.4717 272.75V272.848C63.9795 272.092 62.5329 269.968 62.4042 269.824C60.579 267.715 55.823 264.721 52.9451 265.938C52.4738 266.154 52.0533 266.466 51.7109 266.855C51.3684 267.243 51.1117 267.7 50.9575 268.194C50.8032 268.688 50.7548 269.209 50.8154 269.723C50.876 270.237 51.0443 270.732 51.3093 271.177C52.3392 273.097 54.8839 274.05 56.9438 274.352Z" fill="#94EE8B"/>
<path d="M110.456 259.716C110.502 259.716 111.449 256.08 111.486 255.838C111.873 253.086 110.987 247.522 108.177 246.184C107.704 245.972 107.192 245.861 106.674 245.86C106.156 245.859 105.643 245.966 105.169 246.176C104.695 246.386 104.271 246.693 103.924 247.077C103.577 247.461 103.316 247.914 103.156 248.406C102.398 250.47 103.353 253.003 104.489 254.749C105.814 256.798 110.449 259.709 110.456 259.716Z" fill="#94EE8B"/>
<path d="M433.952 235.789C436.981 237.097 444.305 236.93 444.312 236.93C444.32 236.93 442.729 232.13 442.593 231.843C440.98 228.471 435.883 222.914 431.733 223.474C431.046 223.584 430.39 223.838 429.808 224.22C429.226 224.601 428.731 225.1 428.356 225.685C427.98 226.271 427.733 226.928 427.63 227.615C427.527 228.302 427.57 229.004 427.757 229.673C428.446 232.538 431.392 234.67 433.952 235.789Z" fill="#94EE8B"/>
<path d="M436.489 257.04C439.602 257.494 446.16 255.596 446.683 255.437C447.764 259.186 449.095 262.858 450.666 266.43C451.568 268.516 452.537 270.588 453.544 272.651C452.946 271.774 452.401 270.996 452.317 270.897C449.864 268.078 443.479 264.056 439.624 265.689C438.992 265.978 438.428 266.397 437.968 266.919C437.508 267.44 437.164 268.052 436.957 268.716C436.75 269.379 436.685 270.078 436.766 270.768C436.847 271.457 437.073 272.122 437.428 272.719C438.852 275.305 442.26 276.583 445.001 276.983C447.743 277.384 453.431 275.887 454.915 275.471C455.309 276.265 455.672 277.051 456.089 277.838C457.982 281.618 459.876 285.398 461.655 289.117C462.284 290.44 462.844 291.763 463.412 293.079C462.882 292.323 462.428 291.657 462.344 291.567C459.898 288.739 453.514 284.725 449.659 286.358C449.026 286.646 448.461 287.063 448.001 287.584C447.541 288.105 447.196 288.716 446.988 289.379C446.781 290.042 446.716 290.741 446.798 291.431C446.88 292.12 447.106 292.785 447.463 293.381C448.887 295.966 452.295 297.244 455.036 297.652C457.778 298.061 462.912 296.692 464.677 296.208C465.222 297.577 465.768 298.945 466.192 300.298C466.487 301.228 466.835 302.105 467.078 303.058C467.32 304.01 467.6 304.917 467.835 305.84C468.259 307.624 468.714 309.461 469.092 311.215C469.357 312.432 469.592 313.596 469.85 314.768C469.244 313.445 468.009 310.89 467.88 310.686C465.896 307.526 460.186 302.589 456.134 303.617C455.465 303.807 454.844 304.136 454.31 304.582C453.777 305.027 453.343 305.58 453.037 306.204C452.731 306.828 452.561 307.509 452.536 308.203C452.511 308.897 452.633 309.588 452.893 310.232C453.908 313.007 457.081 314.768 459.754 315.6C462.693 316.499 469.206 315.675 470.016 315.6C470.41 317.543 470.774 319.433 471.084 321.224C471.311 322.547 471.531 323.825 471.728 325.05H474.333C474.083 323.689 473.818 322.26 473.523 320.771C473.129 318.798 472.674 316.696 472.19 314.541C474.15 313.761 476.062 312.865 477.915 311.858C480.058 314.171 485.549 316.885 486.246 317.225C485.488 319.062 484.731 320.839 484.027 322.517C483.641 323.402 483.27 324.233 482.891 325.065H485.655C485.867 324.543 486.087 324.029 486.306 323.485C487.064 321.625 487.859 319.622 488.639 317.558C489.396 317.724 495.872 319.032 498.878 318.314C501.605 317.701 504.937 316.159 506.118 313.475C506.423 312.855 506.593 312.177 506.619 311.487C506.644 310.796 506.524 310.108 506.267 309.467C506.009 308.825 505.619 308.245 505.123 307.764C504.626 307.282 504.034 306.91 503.384 306.671C499.416 305.333 493.357 309.839 491.138 312.84C491.009 313.014 489.805 315.108 489.063 316.424C489.381 315.577 489.692 314.761 490.01 313.891C490.646 312.168 491.222 310.429 491.858 308.554L492.683 305.794C492.979 304.872 493.175 303.867 493.44 302.899C493.978 300.631 494.417 298.318 494.804 295.966C496.318 296.518 501.718 298.393 504.513 298.197C507.307 298 510.799 296.979 512.412 294.507C512.811 293.939 513.085 293.293 513.217 292.612C513.35 291.931 513.337 291.229 513.18 290.553C513.023 289.877 512.725 289.242 512.305 288.688C511.886 288.135 511.354 287.675 510.746 287.34C507.02 285.42 500.355 288.951 497.704 291.589C497.538 291.748 495.849 293.857 494.94 295.029C495.167 293.615 495.394 292.209 495.569 290.773C496.084 286.622 496.477 282.419 496.886 278.216C497.015 276.93 497.151 275.653 497.288 274.368C497.825 274.572 504.195 276.938 507.33 276.719C510.117 276.522 513.616 275.502 515.229 273.029C515.628 272.46 515.903 271.814 516.035 271.132C516.167 270.45 516.155 269.748 515.997 269.072C515.84 268.395 515.542 267.759 515.123 267.205C514.703 266.651 514.172 266.191 513.563 265.855C509.837 263.942 503.165 267.473 500.522 270.104C500.317 270.308 497.894 273.332 497.31 274.133C497.613 271.313 497.939 268.501 498.371 265.742C498.935 262.014 499.739 258.328 500.779 254.704C501.029 254.795 507.671 257.297 510.882 257.078C513.669 256.881 517.16 255.861 518.773 253.381C519.172 252.813 519.447 252.167 519.579 251.485C519.711 250.804 519.699 250.103 519.541 249.427C519.384 248.751 519.086 248.115 518.667 247.562C518.247 247.008 517.716 246.549 517.107 246.214C513.389 244.294 506.717 247.832 504.066 250.463C503.861 250.667 501.249 253.925 500.817 254.553C500.885 254.341 500.923 254.122 500.991 253.91C502.166 250.291 503.664 246.784 505.467 243.432C506.421 241.572 507.436 239.841 508.496 238.185C509.685 238.783 515.146 241.429 518.061 241.542C520.848 241.655 524.438 241.02 526.309 238.745C526.769 238.224 527.114 237.612 527.321 236.949C527.528 236.286 527.593 235.587 527.512 234.897C527.43 234.208 527.204 233.543 526.848 232.946C526.492 232.349 526.014 231.834 525.445 231.434C521.954 229.121 514.934 231.903 512.01 234.224C511.851 234.352 510.382 235.819 509.322 236.9C509.799 236.144 510.268 235.388 510.738 234.685C512.495 232.054 514.26 229.748 515.842 227.722C516.744 226.573 517.592 225.56 518.395 224.615C519.864 224.615 525.786 224.411 528.376 223.194C530.966 221.977 533.791 219.799 534.435 216.912C534.602 216.238 534.625 215.536 534.502 214.853C534.379 214.17 534.114 213.52 533.723 212.946C533.333 212.372 532.825 211.887 532.234 211.521C531.643 211.156 530.981 210.919 530.292 210.826C526.127 210.372 521.204 216.072 519.69 219.482C519.561 219.777 518.039 224.623 518.114 224.615H518.198C517.44 225.507 516.577 226.475 515.691 227.548C514.063 229.552 512.238 231.82 510.39 234.428C508.403 237.213 506.58 240.111 504.929 243.107C503.066 246.454 501.507 249.96 500.272 253.585C500.256 253.629 500.243 253.675 500.234 253.721C500.234 252.496 500.234 249.072 500.166 248.807C499.681 245.11 496.576 238.223 492.456 237.467C491.769 237.361 491.067 237.401 490.396 237.584C489.725 237.766 489.101 238.087 488.562 238.526C488.024 238.966 487.584 239.513 487.271 240.133C486.958 240.752 486.779 241.431 486.746 242.124C486.503 245.065 488.639 248.006 490.722 249.866C493.069 251.96 499.59 253.986 500.105 254.145C498.94 257.86 498.022 261.648 497.356 265.485C496.955 267.753 496.599 269.983 496.318 272.289C496.318 271.23 496.318 270.285 496.265 270.157C495.781 266.452 492.676 259.573 488.556 258.817C487.868 258.709 487.166 258.746 486.494 258.927C485.823 259.108 485.197 259.429 484.657 259.867C484.118 260.306 483.677 260.853 483.363 261.473C483.05 262.093 482.871 262.772 482.838 263.466C482.603 266.407 484.739 269.348 486.821 271.207C488.904 273.067 494.455 274.935 495.909 275.403C495.803 276.273 495.682 277.15 495.576 278.019C495.076 282.215 494.592 286.403 493.993 290.493C493.781 291.937 493.524 293.351 493.236 294.764C493.236 293.827 493.236 293.033 493.183 292.912C492.706 289.208 489.601 282.328 485.481 281.572C484.793 281.465 484.091 281.504 483.419 281.686C482.747 281.868 482.121 282.189 481.582 282.628C481.043 283.068 480.602 283.615 480.289 284.236C479.975 284.856 479.796 285.535 479.763 286.229C479.521 289.17 481.664 292.111 483.747 293.971C485.829 295.83 490.843 297.509 492.585 298.076C492.282 299.512 491.979 300.956 491.615 302.34C491.35 303.277 491.153 304.199 490.858 305.129C490.563 306.059 490.26 306.974 489.964 307.881C489.336 309.605 488.7 311.389 488.041 313.06C487.594 314.216 487.147 315.328 486.7 316.431C486.927 314.995 487.314 312.183 487.314 311.941C487.272 308.657 486.385 305.439 484.739 302.597C484.746 302.232 484.723 301.868 484.671 301.508C484.584 300.819 484.353 300.156 483.993 299.562C483.632 298.968 483.151 298.456 482.579 298.06C482.008 297.664 481.359 297.393 480.675 297.264C479.992 297.135 479.289 297.152 478.612 297.312C474.56 298.386 472 305.477 471.796 309.204C471.796 309.423 471.932 311.82 472.046 313.332C471.841 312.455 471.652 311.601 471.432 310.701C471.008 308.909 470.531 307.14 470.031 305.235C469.754 304.323 469.473 303.4 469.191 302.468C468.933 301.546 468.539 300.593 468.214 299.648C467.411 297.463 466.495 295.286 465.525 293.116C467.093 292.738 472.629 291.332 474.856 289.624C477.082 287.915 479.4 285.156 479.4 282.2C479.419 281.506 479.291 280.816 479.026 280.174C478.76 279.533 478.362 278.954 477.858 278.477C477.354 277.999 476.754 277.632 476.099 277.401C475.443 277.17 474.746 277.079 474.053 277.134C469.887 277.588 466.275 284.211 465.518 287.862C465.472 288.089 465.222 290.773 465.116 292.254C464.526 290.954 463.935 289.654 463.291 288.354C461.428 284.619 459.429 280.892 457.452 277.157C456.846 276.016 456.255 274.889 455.657 273.732C456.218 273.604 462.844 272.069 465.336 270.157C467.547 268.463 469.88 265.689 469.88 262.733C469.898 262.039 469.77 261.349 469.503 260.708C469.237 260.067 468.838 259.489 468.333 259.012C467.828 258.535 467.228 258.169 466.572 257.939C465.916 257.708 465.219 257.619 464.526 257.675C460.368 258.121 456.755 264.744 455.998 268.395C455.937 268.675 455.589 272.538 455.551 273.521C454.241 271.003 452.953 268.478 451.764 265.961C450.174 262.543 448.808 259.025 447.675 255.43C447.94 255.369 454.854 253.797 457.407 251.846C459.626 250.145 461.951 247.371 461.951 244.422C461.971 243.728 461.844 243.038 461.579 242.396C461.314 241.754 460.916 241.175 460.412 240.697C459.907 240.218 459.307 239.852 458.651 239.621C457.995 239.391 457.297 239.3 456.604 239.357C452.438 239.803 448.826 246.426 448.069 250.085C448.016 250.372 447.637 254.523 447.622 255.279C447.561 255.074 447.47 254.863 447.41 254.659C446.381 251.011 445.679 247.279 445.312 243.508C445.077 241.429 444.971 239.433 444.911 237.46C446.228 237.301 452.249 236.499 454.756 234.995C457.263 233.491 459.792 231.049 460.095 228.108C460.189 227.42 460.137 226.721 459.942 226.055C459.748 225.388 459.415 224.77 458.966 224.241C458.517 223.711 457.961 223.282 457.335 222.98C456.709 222.679 456.026 222.512 455.331 222.491C451.143 222.491 446.827 228.667 445.675 232.221C445.607 232.41 445.191 234.443 444.918 235.925C444.918 235.048 444.873 234.141 444.918 233.302C444.918 230.142 445.123 227.254 445.32 224.683C445.448 223.232 445.585 221.916 445.736 220.692C446.948 219.86 451.795 216.443 453.309 214.008C454.824 211.574 455.952 208.187 454.862 205.443C454.629 204.789 454.261 204.192 453.781 203.689C453.302 203.187 452.722 202.791 452.079 202.527C451.436 202.263 450.745 202.138 450.05 202.158C449.355 202.178 448.672 202.345 448.046 202.646C444.32 204.566 443.343 212.043 443.956 215.725C444.017 216.042 445.418 220.918 445.471 220.881L445.539 220.828C445.373 222.007 445.214 223.277 445.07 224.661C444.812 227.223 444.547 230.119 444.471 233.294C444.352 236.711 444.435 240.131 444.721 243.538C445.013 247.367 445.649 251.162 446.622 254.878C446.622 254.916 446.622 254.961 446.622 255.006C445.963 253.971 444.025 251.143 443.85 250.947C441.404 248.119 435.02 244.105 431.165 245.738C430.533 246.027 429.968 246.446 429.509 246.968C429.049 247.489 428.704 248.102 428.497 248.765C428.29 249.428 428.225 250.127 428.306 250.817C428.388 251.507 428.613 252.172 428.969 252.769C430.317 255.362 433.725 256.639 436.489 257.04Z" fill="#94EE8B"/>
<path d="M508.291 237.384C508.352 237.429 509.624 232.508 509.67 232.19C510.185 228.493 509.003 221.047 505.232 219.232C504.598 218.948 503.91 218.8 503.215 218.798C502.52 218.796 501.832 218.94 501.196 219.221C500.56 219.502 499.991 219.913 499.525 220.429C499.059 220.944 498.707 221.551 498.492 222.211C497.484 224.986 498.764 228.388 500.279 230.724C502.059 233.491 508.284 237.384 508.291 237.384Z" fill="#94EE8B"/>
<g opacity="0.3">
<path d="M99.0438 181.901C103.967 183.474 115.47 182.015 115.478 182.015C115.599 182.015 112.214 174.742 111.949 174.303C108.874 169.284 99.9678 161.391 93.5532 162.963C88.9259 164.075 86.8053 169.011 88.32 173.328C89.8347 177.645 94.8482 180.571 99.0438 181.901Z" stroke="black" stroke-linecap="round" stroke-linejoin="round"/>
<path d="M173.005 258.62C175.807 255.596 178.306 251.431 177.837 247.333C177.329 242.797 173.293 239.259 168.62 240.257C162.16 241.64 157.571 252.61 156.98 258.469C156.98 258.832 156.98 263.08 157.071 265.416C155.927 263.474 154.799 261.531 153.572 259.603C150.043 254.031 146.302 248.512 142.591 242.971C141.447 241.277 140.319 239.576 139.213 237.883C139.728 237.709 143.53 236.371 147.286 234.655" stroke="black" stroke-linecap="round" stroke-linejoin="round"/>
<path d="M164.955 280.355C164.409 279.085 163.728 277.8 163.129 276.507C161.516 273.211 159.729 269.945 157.828 266.679C161.53 265.405 165.125 263.843 168.582 262.007" stroke="black" stroke-linecap="round" stroke-linejoin="round"/>
<path d="M213.567 220.752C211.959 221.938 210.493 223.306 209.198 224.827C208.917 225.167 205.608 230.315 204.828 231.631C204.828 227.155 204.888 222.695 205.116 218.303C205.397 212.364 206.06 206.45 207.1 200.597C207.509 200.703 218.331 203.545 223.33 202.676C227.669 201.92 232.986 199.743 235.114 195.6C237.242 191.457 235.765 186.354 231.327 184.623C225.177 182.226 215.294 188.849 211.568 193.407C211.273 193.763 207.713 199.304 207.138 200.355C207.206 200.015 207.229 199.66 207.297 199.319C208.509 193.481 210.238 187.76 212.462 182.226C213.658 179.149 214.969 176.284 216.301 173.517C218.263 174.273 227.268 177.524 231.85 177.229C236.25 176.949 241.771 175.377 244.338 171.499C246.905 167.62 245.996 162.374 241.786 160.159C235.939 157.135 225.382 162.593 221.179 166.721C220.944 166.94 218.907 169.48 217.392 171.347C218.013 170.108 218.634 168.822 219.255 167.643C221.572 163.228 223.966 159.327 226.116 155.895C227.351 153.952 228.51 152.213 229.615 150.603C231.887 150.323 241.18 149.091 245.042 146.755C248.905 144.419 252.949 140.616 253.471 135.974C253.994 131.332 250.737 127.114 245.981 127.099C239.377 127.099 232.546 136.806 230.714 142.408C230.554 142.892 228.956 150.724 229.07 150.724H229.214C228.123 152.236 226.942 153.906 225.753 155.736C223.519 159.138 221.035 162.994 218.611 167.371C215.949 172.065 213.562 176.909 211.462 181.878C209.084 187.434 207.206 193.19 205.85 199.077C205.85 199.146 205.85 199.221 205.85 199.289C205.684 197.369 205.04 192.001 204.941 191.593C203.586 185.87 197.588 175.596 191.007 175.074C186.266 174.696 182.676 178.741 182.805 183.3C182.933 187.858 186.735 192.221 190.302 194.799C194.331 197.702 204.888 199.818 205.729 199.992C204.497 206.014 203.669 212.11 203.253 218.242C202.995 221.818 202.844 225.424 202.73 229.045C202.533 227.382 202.344 225.9 202.298 225.696C200.943 219.966 194.945 209.699 188.363 209.178C183.623 208.8 180.033 212.844 180.161 217.403C180.29 221.962 184.092 226.324 187.659 228.894C191.226 231.465 200.246 233.498 202.624 233.997C202.624 235.381 202.556 236.772 202.533 238.155C202.427 244.815 202.351 251.468 202.079 257.985C201.988 260.253 201.806 262.521 201.639 264.789C201.458 263.277 201.299 262.075 201.253 261.894C199.898 256.163 193.907 245.897 187.326 245.367C182.577 244.997 178.995 249.042 179.116 253.593C179.238 258.144 183.047 262.521 186.614 265.091C190.181 267.662 198.33 269.499 201.155 270.096C200.912 272.409 200.67 274.723 200.329 276.945C200.064 278.457 199.913 279.969 199.572 281.481C199.231 282.993 198.936 284.46 198.625 285.934C197.921 288.739 197.209 291.642 196.452 294.371C195.944 296.269 195.414 298.068 194.937 299.875C195.058 297.607 195.202 293.116 195.172 292.738C194.562 287.596 192.643 282.695 189.598 278.503C189.555 277.928 189.459 277.359 189.31 276.802C188.129 272.402 183.569 269.514 179.124 271.2C172.952 273.543 170.081 285.08 170.392 290.962C170.392 291.302 171.028 295.044 171.452 297.395C170.99 296.057 170.559 294.742 170.066 293.366C169.112 290.629 168.074 287.93 166.969 285.05" stroke="black" stroke-linecap="round" stroke-linejoin="round"/>
<path d="M135.305 274.126C137.537 274.948 139.887 275.41 142.265 275.494C146.521 275.668 154.465 272.712 157.154 271.661C158.229 273.725 159.305 275.781 160.251 277.83C160.865 279.244 161.554 280.559 162.092 282.011C162.629 283.462 163.212 284.846 163.765 286.244C164.727 288.973 165.742 291.786 166.613 294.477C167.234 296.344 167.794 298.129 168.362 299.928C167.204 297.955 164.848 294.144 164.613 293.842C160.978 289.215 151.224 282.396 145.029 284.672C140.561 286.312 139.023 291.476 141.03 295.573C143.037 299.671 148.338 302.03 152.663 302.876C157.419 303.799 167.499 301.463 168.756 301.16C169.68 304.139 170.559 307.049 171.339 309.809C171.919 311.85 172.465 313.816 172.974 315.706L177.064 315.282C176.451 313.181 175.799 310.988 175.087 308.697C174.156 305.673 173.103 302.445 171.99 299.149C174.936 297.601 177.788 295.882 180.533 294.001C184.274 297.289 193.324 300.646 194.498 301.077C193.627 304.101 192.748 306.981 191.87 309.711C191.416 311.162 190.961 312.53 190.514 313.884L194.839 313.438C195.096 312.583 195.354 311.744 195.596 310.852C196.49 307.828 197.391 304.547 198.285 301.183C199.549 301.311 209.872 302.309 214.469 300.767C218.642 299.361 223.557 296.405 225.071 291.997C226.586 287.59 224.314 282.752 219.664 281.716C213.227 280.272 204.457 288.316 201.488 293.388C201.306 293.683 199.761 297.168 198.815 299.346C199.171 297.97 199.534 296.632 199.882 295.21C200.602 292.406 201.223 289.586 201.912 286.554C202.192 285.042 202.48 283.583 202.76 282.079C203.041 280.574 203.222 278.979 203.465 277.414C203.942 273.778 204.222 270.073 204.472 266.331C206.933 266.944 215.711 269.007 220.073 268.251C224.435 267.495 229.721 265.318 231.85 261.183C233.978 257.048 232.501 251.929 228.063 250.198C221.913 247.802 212.023 254.424 208.296 258.983C208.062 259.27 205.759 262.839 204.51 264.827C204.623 262.559 204.752 260.329 204.798 258.023C204.934 251.438 204.858 244.77 204.798 238.117C204.798 236.076 204.798 234.043 204.798 232.009C205.676 232.243 216.052 234.919 220.936 234.065C225.276 233.309 230.585 231.139 232.713 226.997C234.841 222.854 233.364 217.751 228.926 216.019C226.033 214.893 222.315 215.762 218.801 217.471" stroke="black" stroke-linecap="round" stroke-linejoin="round"/>
<path d="M128.33 266.997C128.568 268.082 129.018 269.11 129.655 270.021C130.242 270.865 130.957 271.612 131.776 272.236" stroke="black" stroke-linecap="round" stroke-linejoin="round"/>
<path d="M108.299 214.749C113.547 214.19 121.537 210.969 122.249 210.659C124.546 216.36 127.223 221.902 130.261 227.246C132.019 230.376 133.882 233.468 135.79 236.545C134.707 235.267 133.738 234.133 133.579 233.99C129.285 229.96 118.606 224.698 112.828 227.881C108.662 230.149 107.928 235.517 110.556 239.266C113.184 243.016 118.765 244.558 123.158 244.725C127.55 244.891 136.199 241.633 138.463 240.733C139.221 241.905 139.933 243.084 140.682 244.256C144.28 249.866 147.892 255.452 151.285 261.039C152.474 263.005 153.557 264.986 154.685 266.966C153.724 265.84 152.906 264.895 152.762 264.759C148.468 260.729 137.789 255.468 132.011 258.65C130.699 259.37 129.641 260.476 128.982 261.818" stroke="black" stroke-linecap="round" stroke-linejoin="round"/>
<path d="M138.478 167.832C138.64 167.133 138.724 166.418 138.728 165.7C138.728 161.164 135.078 157.18 130.344 157.656C123.771 158.329 118.007 168.732 116.78 174.485C116.712 174.795 116.379 178.053 116.182 180.427C116.015 179.051 115.819 177.637 115.69 176.314C115.182 171.355 115.023 166.789 114.932 162.706C114.887 160.401 114.895 158.322 114.932 156.371C116.697 154.859 123.74 148.728 125.679 144.661C127.618 140.593 128.875 135.112 126.724 130.985C124.573 126.857 119.545 125.095 115.569 127.704C110.048 131.317 109.73 143.202 111.297 148.872C111.434 149.363 114.433 156.787 114.523 156.711L114.63 156.621C114.561 158.495 114.516 160.514 114.508 162.706C114.508 166.766 114.584 171.355 114.985 176.314C115.356 181.695 116.041 187.049 117.038 192.349C118.129 198.291 119.746 204.125 121.87 209.782C121.87 209.85 121.93 209.919 121.953 209.979C120.756 208.467 117.25 204.347 116.947 204.06C112.653 200.03 101.974 194.768 96.196 197.959C92.0307 200.227 91.2961 205.587 93.924 209.336C95.9158 212.202 99.5434 213.736 103.08 214.402" stroke="black" stroke-linecap="round" stroke-linejoin="round"/>
<path d="M150.134 233.241C151.457 232.556 152.691 231.71 153.807 230.724C157.011 227.7 160.244 222.967 159.729 218.34C159.214 213.714 155.185 210.274 150.513 211.272C144.053 212.655 139.463 223.625 138.88 229.476C138.835 229.922 138.918 236.031 139.009 237.588C136.547 233.846 134.124 230.096 131.882 226.309C128.832 221.198 126.117 215.895 123.756 210.433C124.15 210.297 134.752 206.706 138.441 203.228C141.637 200.204 144.87 195.471 144.355 190.845C143.84 186.218 139.811 182.771 135.139 183.768C128.679 185.152 124.097 196.122 123.506 201.981C123.461 202.442 123.552 209.019 123.65 210.206C123.514 209.896 123.339 209.578 123.211 209.261C120.992 203.722 119.274 197.997 118.076 192.153C117.372 188.94 116.879 185.825 116.463 182.778C118.508 182.317 127.823 180.079 131.481 177.312C133.257 175.989 134.829 174.412 136.146 172.633" stroke="black" stroke-linecap="round" stroke-linejoin="round"/>
<path d="M215.9 172.368C216.014 172.421 217.203 164.506 217.226 163.999C217.43 158.117 214.363 146.611 208.138 144.388C203.669 142.778 199.163 145.742 198.05 150.157C196.937 154.572 199.481 159.803 202.246 163.22C205.502 167.235 215.893 172.368 215.9 172.368Z" stroke="black" stroke-linecap="round" stroke-linejoin="round"/>
</g>
<g opacity="0.3">
<path d="M389.572 75.4488C393.684 77.1044 397.804 78.2536 397.812 78.2536C397.819 78.2536 397.637 70.308 397.599 69.7788C396.713 63.9652 391.541 53.2375 385.066 52.1791C380.37 51.4231 376.485 55.1578 376.212 59.7391C375.94 64.3205 379.401 68.9472 382.748 71.8351" stroke="black" stroke-linecap="round" stroke-linejoin="round"/>
<path d="M486.693 138.288C487.481 138.645 488.3 138.931 489.139 139.142C493.433 140.117 499.174 140.185 502.771 137.191C506.368 134.198 506.967 128.921 503.528 125.609C498.795 121.013 487.102 123.281 481.891 126.04C481.482 126.252 476.052 129.979 475.113 130.72C475.303 130.433 475.469 130.115 475.659 129.828C479.052 124.919 482.874 120.32 487.079 116.084C489.351 113.71 491.691 111.548 494.001 109.544C495.516 110.988 502.544 117.482 506.876 118.994C511.034 120.446 516.721 121.134 520.614 118.556C522.04 117.638 523.142 116.297 523.763 114.72C524.384 113.144 524.493 111.413 524.075 109.771" stroke="black" stroke-linecap="round" stroke-linejoin="round"/>
<path d="M425.038 44.1655C426.909 41.6178 428.257 38.6014 428.014 35.5774C427.643 31.0414 423.69 27.3748 419.01 28.229C412.512 29.4235 407.597 40.2494 406.832 46.0858C406.771 46.5847 406.642 54.5908 406.756 54.5605L406.892 54.5152C406.135 56.2237 405.272 58.0532 404.416 60.0793C402.848 63.8593 401.121 68.0778 399.546 72.833C397.793 77.9347 396.341 83.1349 395.199 88.4066C393.889 94.3029 393.108 100.304 392.866 106.339C392.863 106.412 392.863 106.485 392.866 106.558C392.351 104.691 390.723 99.5425 390.594 99.157C388.201 93.7818 380.416 84.793 373.85 85.4885C369.116 85.9874 366.36 90.6217 367.299 95.0821C368.238 99.5425 372.812 103.126 376.796 105.001C381.287 107.11 392.056 107.269 392.912 107.269C392.806 113.413 393.107 119.558 393.813 125.662C394.215 129.223 394.729 132.791 395.328 136.367C394.828 134.772 394.366 133.343 394.283 133.162C391.889 127.779 384.097 118.798 377.53 119.486C372.805 119.992 370.048 124.627 370.987 129.079C371.926 133.532 376.5 137.131 380.484 138.998C384.468 140.865 393.7 141.206 396.131 141.266C396.365 142.635 396.577 144.003 396.812 145.371C397.941 151.941 399.084 158.488 400.031 164.944C400.364 167.212 400.606 169.48 400.856 171.748C400.409 170.327 400.023 169.14 399.94 168.966C397.554 163.583 389.761 154.602 383.195 155.29C378.47 155.796 375.713 160.431 376.652 164.884C377.591 169.336 382.165 172.935 386.149 174.802C390.004 176.617 398.471 176.98 401.356 177.07C401.546 179.391 401.735 181.705 401.811 183.957C401.811 185.469 401.954 186.981 401.886 188.493C401.818 190.005 401.811 191.517 401.78 193.029C401.606 195.917 401.439 198.904 401.205 201.716C401.046 203.682 400.864 205.541 400.69 207.424C400.387 205.156 399.698 200.726 399.599 200.363C398.084 194.685 391.715 184.615 385.119 184.313C380.348 184.086 376.925 188.244 377.152 192.78C377.379 197.316 381.378 201.565 385.028 204.014C389.057 206.721 399.251 208.467 400.531 208.679C400.22 211.786 399.895 214.802 399.546 217.652C399.289 219.754 399.024 221.78 398.751 223.7L402.689 224.895C402.947 222.728 403.199 220.46 403.446 218.091C403.772 214.938 404.052 211.559 404.31 208.089C407.616 207.803 410.904 207.326 414.155 206.66C416.329 211.136 423.364 217.743 424.273 218.59C422.304 221.017 420.365 223.353 418.495 225.53C417.51 226.687 416.563 227.798 415.624 228.849L419.782 230.111L421.501 228.032C423.516 225.583 425.614 222.914 427.749 220.162C428.855 220.775 437.981 225.696 442.82 226.052C447.213 226.377 452.9 225.568 455.975 222.075C459.05 218.582 458.868 213.26 454.991 210.508C449.621 206.675 438.412 210.69 433.679 214.197C433.399 214.409 430.65 216.995 428.9 218.658C429.764 217.524 430.62 216.435 431.49 215.263C433.24 212.958 434.921 210.599 436.731 208.066L439.253 204.286C440.124 203.031 440.881 201.603 441.714 200.257C443.57 197.089 445.289 193.793 446.955 190.429C448.985 191.941 456.27 197.233 460.587 198.246C464.904 199.259 470.622 199.289 474.219 196.295C477.817 193.302 478.415 188.025 474.977 184.713C470.243 180.117 458.558 182.385 453.347 185.144C453.021 185.318 449.507 187.715 447.599 189.068C448.583 187.042 449.576 185.023 450.507 182.937C453.196 176.889 455.725 170.75 458.27 164.604C459.027 162.721 459.853 160.824 460.648 158.979C461.405 159.531 469.887 166.025 474.719 167.129C479.006 168.112 484.754 168.172 488.351 165.178C491.948 162.185 492.547 156.915 489.108 153.604C484.375 149.008 472.689 151.276 467.479 154.027C467.085 154.239 462.034 157.694 460.792 158.639C462.541 154.511 464.321 150.421 466.244 146.46C468.81 141.096 471.722 135.904 474.961 130.917C477.614 132.935 480.38 134.801 483.247 136.503" stroke="black" stroke-linecap="round" stroke-linejoin="round"/>
<path d="M418.6 78.624C421.592 77.2254 424.364 75.1086 425.598 72.1829C427.37 67.9871 425.545 62.9143 421.001 61.5233C414.685 59.5879 405.324 66.9362 401.954 71.7671C401.765 72.0317 400.197 74.9045 399.084 77.0137C399.47 75.6832 399.841 74.2997 400.235 73.0296C401.697 68.2668 403.333 63.9954 404.779 60.223C405.635 58.0835 406.453 56.1632 407.24 54.3791C409.452 53.676 418.32 50.7503 421.69 47.7565C422.024 47.4617 422.349 47.1517 422.675 46.8266" stroke="black" stroke-linecap="round" stroke-linejoin="round"/>
<path d="M522.023 106.43C517.35 102.136 506.353 103.118 501.135 105.182C500.84 105.303 497.939 106.838 495.834 107.979C496.887 107.08 497.962 106.135 498.992 105.296C502.847 102.128 506.565 99.4594 509.883 97.1233C511.783 95.8154 513.525 94.6663 515.184 93.6079C517.41 94.243 526.43 96.6848 530.899 96.0422C535.367 95.3996 540.63 93.4038 542.887 89.329C545.144 85.2541 543.811 80.1058 539.434 78.246C533.375 75.6605 523.28 82.026 519.417 86.4335C519.084 86.819 514.548 93.4265 514.669 93.4567H514.805C513.2 94.4471 511.496 95.5206 509.663 96.7378C506.285 99.0058 502.491 101.591 498.553 104.691C494.274 107.979 490.19 111.513 486.322 115.275C481.971 119.474 478.002 124.051 474.462 128.951L474.348 129.132C474.947 127.295 476.439 122.102 476.507 121.693C477.484 115.887 475.954 104.101 470.092 101.062C465.874 98.8772 461.004 101.228 459.331 105.462C457.657 109.696 459.482 115.207 461.769 118.964C464.352 123.198 473.258 129.246 473.962 129.73C470.485 134.807 467.353 140.111 464.586 145.606C462.951 148.803 461.406 152.062 459.899 155.358C460.368 153.748 460.769 152.334 460.8 152.107C461.777 146.301 460.254 134.515 454.393 131.476C450.167 129.291 445.305 131.642 443.631 135.876C441.957 140.109 443.782 145.621 446.07 149.378C448.357 153.135 455.915 158.495 457.876 159.879C457.308 161.149 456.733 162.404 456.172 163.659C453.484 169.76 450.826 175.853 448.039 181.758C447.062 183.837 446.017 185.847 445.009 187.866C445.418 186.437 445.767 185.235 445.767 185.046C446.744 179.24 445.214 167.454 439.352 164.422C435.126 162.238 430.264 164.581 428.59 168.815C426.917 173.048 428.742 178.56 431.029 182.317C433.24 185.953 440.117 190.92 442.48 192.568C441.351 194.602 440.208 196.643 439.049 198.563C438.216 199.856 437.497 201.156 436.588 202.411L433.952 206.191C432.21 208.505 430.431 210.909 428.651 213.124C427.439 214.636 426.25 216.148 425.069 217.599C426.068 215.536 427.947 211.468 428.06 211.105C429.505 206.131 429.646 200.871 428.469 195.827C428.653 195.28 428.787 194.719 428.871 194.148C429.492 189.612 426.417 185.205 421.661 185.039C415.064 184.804 407.93 194.33 405.923 199.864C405.802 200.189 404.916 203.871 404.409 206.207C404.5 204.793 404.613 203.417 404.696 201.95C404.878 199.062 404.969 196.174 405.09 193.067C405.09 191.555 405.09 190.043 405.09 188.531C405.09 187.019 404.969 185.401 404.916 183.821C404.712 180.162 404.325 176.458 403.856 172.738C406.393 172.897 415.405 173.305 419.548 171.756C423.69 170.206 428.537 167.076 429.863 162.616C431.188 158.155 428.795 153.408 424.122 152.523C417.632 151.298 409.134 159.629 406.317 164.793C406.135 165.118 404.53 169.049 403.689 171.234C403.394 168.966 403.106 166.766 402.727 164.513C401.644 158.019 400.342 151.48 399.069 144.948C398.683 142.944 398.312 140.949 397.941 138.953C398.85 139.013 409.543 139.709 414.186 138C418.306 136.488 423.13 133.343 424.455 128.883C425.781 124.422 423.387 119.675 418.715 118.79C412.224 117.566 403.727 125.897 400.91 131.06C400.698 131.453 398.388 137.108 397.88 138.62C397.063 134.213 396.29 129.82 395.699 125.458C394.877 119.571 394.437 113.636 394.382 107.692C394.806 107.692 405.969 108.524 410.717 106.747C414.845 105.235 419.661 102.09 420.987 97.6298C422.312 93.1694 419.919 88.4218 415.246 87.5372C408.756 86.3125 400.266 94.6361 397.441 99.8071C397.222 100.215 394.745 106.309 394.412 107.45C394.412 107.103 394.374 106.747 394.374 106.399C394.49 100.437 395.134 94.4974 396.298 88.6486C396.904 85.4129 397.661 82.3511 398.464 79.3876C400.524 79.7504 409.975 81.3002 414.428 80.1436C414.981 79.9999 415.549 79.8412 416.117 79.6446" stroke="black" stroke-linecap="round" stroke-linejoin="round"/>
<path d="M494.106 108.297C494.19 108.388 498.37 101.553 498.582 101.092C501.059 95.755 502.71 83.9765 497.825 79.5085C494.334 76.288 489.025 77.2405 486.283 80.9147C483.541 84.5889 483.852 90.3496 485.064 94.5756C486.518 99.5425 494.106 108.289 494.106 108.297Z" stroke="black" stroke-linecap="round" stroke-linejoin="round"/>
</g>
<path d="M259.644 152.334H500.733L469.531 325.004H228.441L259.644 152.334Z" fill="white" stroke="#263238" stroke-linecap="round" stroke-linejoin="round"/>
<path d="M495.909 152.334L480.906 235.373L467.055 312.039L464.707 325.012H223.625L246.921 196.091L254.827 152.334H495.909Z" fill="#263238" stroke="#263238" stroke-linecap="round" stroke-linejoin="round"/>
<path d="M261.408 157.747H487.374L458.126 319.591H232.16L261.408 157.747Z" fill="#94EE8B" stroke="#263238" stroke-linecap="round" stroke-linejoin="round"/>
<path d="M234.447 306.936L232.16 319.591H458.126L460.413 306.936H234.447Z" fill="#BFBFBF" stroke="#263238" stroke-linecap="round" stroke-linejoin="round"/>
<path d="M480.679 157.747L451.431 319.591H458.125L487.374 157.747H480.679Z" fill="#BFBFBF" stroke="#263238" stroke-linecap="round" stroke-linejoin="round"/>
<path d="M476.741 216.564L482.428 185.076H475.741L470.046 216.564H476.741Z" fill="#A1A1A1" stroke="#263238" stroke-linecap="round" stroke-linejoin="round"/>
<path d="M465.843 313.574H169.907V325.004H465.843V313.574Z" fill="white" stroke="#263238" stroke-linecap="round" stroke-linejoin="round"/>
<path d="M212.106 313.574H66.8496V325.004H212.106V313.574Z" fill="#263238" stroke="#263238" stroke-linecap="round" stroke-linejoin="round"/>
<path d="M259.341 169.178H485.306L487.374 157.747H261.408L259.341 169.178Z" fill="#BFBFBF" stroke="#263238" stroke-linecap="round" stroke-linejoin="round"/>
<path d="M273.563 165.617H381.196L382.18 160.166H274.548L273.563 165.617Z" fill="white" stroke="#263238" stroke-linecap="round" stroke-linejoin="round"/>
<path opacity="0.2" d="M268.293 220.858H351.758L340.959 280.642H257.493L268.293 220.858Z" fill="black"/>
<path d="M263.143 215.331H346.617L335.817 275.108H252.344L263.143 215.331Z" fill="white" stroke="#263238" stroke-linecap="round" stroke-linejoin="round"/>
<path d="M345.351 222.294L346.616 215.331H263.143L261.886 222.294H345.351Z" fill="#263238" stroke="#263238" stroke-linecap="round" stroke-linejoin="round"/>
<path d="M341.99 218.968C341.991 219.377 341.871 219.777 341.644 220.117C341.418 220.458 341.095 220.724 340.717 220.881C340.339 221.038 339.922 221.079 339.521 221C339.119 220.921 338.75 220.724 338.46 220.435C338.17 220.146 337.973 219.777 337.894 219.376C337.814 218.975 337.856 218.56 338.013 218.182C338.171 217.805 338.437 217.482 338.778 217.256C339.119 217.03 339.52 216.91 339.93 216.912C340.476 216.912 341 217.128 341.386 217.514C341.772 217.899 341.99 218.422 341.99 218.968Z" fill="white" stroke="#263238" stroke-linecap="round" stroke-linejoin="round"/>
<path d="M295.512 228.932C299.571 229.522 300.851 232.765 299.935 237.376L299.753 238.306H296.163L296.398 237.127C296.996 234.103 296.14 232.221 293.369 232.221C290.597 232.221 289.067 234.088 288.469 237.127C286.954 244.831 298.488 244.884 296.58 254.515C295.671 259.127 293.051 262.415 288.756 263.005L288.241 265.605H285.099L285.614 263.005C281.456 262.415 280.176 259.172 281.07 254.515L281.486 252.406H285.076L284.614 254.757C284 257.849 284.932 259.618 287.689 259.618C290.445 259.618 292.066 257.849 292.672 254.757C294.187 247.106 282.705 247.008 284.614 237.369C285.538 232.659 288.067 229.567 292.324 228.924L292.869 226.18H296.012L295.512 228.932Z" fill="#263238"/>
<path d="M303.312 258.378L302.373 263.141H298.685L299.624 258.378H303.312ZM302.229 244.944L305.417 228.803H309.249L306.061 244.944L303.478 255.528H300.661L302.229 244.944Z" fill="#263238"/>
<path d="M311.075 258.378L310.135 263.141H306.447L307.386 258.378H311.075ZM309.999 244.944L313.18 228.803H317.02L313.831 244.944L311.264 255.528H308.409L309.999 244.944Z" fill="#263238"/>
<path opacity="0.2" d="M480.907 235.373L467.055 312.039H380.605L394.465 235.373H480.907Z" fill="black"/>
<path d="M388.126 230.232H495.168L481.316 306.898H374.274L388.126 230.232Z" fill="white" stroke="#263238" stroke-linecap="round" stroke-linejoin="round"/>
<path d="M493.554 239.168L495.167 230.232H388.126L386.513 239.168H493.554Z" fill="#263238" stroke="#263238" stroke-linecap="round" stroke-linejoin="round"/>
<path d="M489.238 234.904C489.238 235.428 489.082 235.94 488.791 236.375C488.499 236.81 488.085 237.15 487.6 237.35C487.115 237.55 486.582 237.602 486.067 237.499C485.553 237.396 485.081 237.143 484.71 236.773C484.34 236.402 484.088 235.93 483.987 235.416C483.885 234.902 483.939 234.37 484.14 233.886C484.342 233.403 484.683 232.99 485.12 232.701C485.557 232.411 486.07 232.257 486.595 232.258C486.943 232.258 487.287 232.327 487.608 232.46C487.929 232.593 488.221 232.788 488.466 233.034C488.712 233.28 488.906 233.571 489.039 233.892C489.171 234.213 489.239 234.557 489.238 234.904Z" fill="white" stroke="#263238" stroke-linecap="round" stroke-linejoin="round"/>
<path d="M399.152 267.964C399.994 266.808 401.101 265.869 402.38 265.228C403.66 264.586 405.074 264.259 406.506 264.275C412.239 264.275 413.958 268.471 412.701 274.859L410.982 283.576C409.641 290.38 405.514 294.825 398.698 294.825C391.882 294.825 389.61 290.38 390.92 283.576L391.511 280.552H396.161L395.51 283.863C394.752 287.87 395.896 290.281 399.463 290.281C403.03 290.281 405.166 287.87 405.953 283.863L407.657 275.184C408.452 271.177 407.271 268.758 403.704 268.758C400.97 268.758 398.819 270.27 397.729 273.528L397.532 274.549H392.882L398.978 249.813H416.533L415.655 254.265H402.553L399.152 267.964Z" fill="#263238"/>
<path d="M419.911 260.586C421.252 253.782 425.5 249.397 432.309 249.397C439.117 249.397 441.7 253.789 440.359 260.586L435.815 283.545C434.475 290.349 430.219 294.795 423.342 294.795C416.465 294.795 414.027 290.349 415.375 283.545L419.911 260.586ZM420.222 283.863C419.465 287.87 420.676 290.281 424.243 290.281C427.81 290.281 430.007 287.87 430.794 283.863L435.467 260.336C436.27 256.261 435.088 253.85 431.453 253.85C427.818 253.85 425.69 256.261 424.887 260.336L420.222 283.863Z" fill="#263238"/>
<path d="M450.235 253.691L449.099 259.626C448.743 261.455 447.637 262.65 445.812 262.65C443.987 262.65 443.358 261.44 443.722 259.626L444.896 253.691C445.252 251.892 446.35 250.667 448.182 250.667C450.015 250.667 450.613 251.892 450.235 253.691ZM457.051 250.765L445.91 269.567H444.646L455.763 250.765H457.051ZM446.236 253.608L445.032 259.731C444.827 260.752 445.032 261.425 446.039 261.425C447.046 261.425 447.554 260.752 447.72 259.731L448.932 253.608C449.129 252.587 448.864 251.892 447.925 251.892C446.986 251.892 446.418 252.587 446.213 253.608H446.236ZM458.126 260.699L456.96 266.611C456.604 268.433 455.529 269.635 453.673 269.635C451.818 269.635 451.219 268.425 451.583 266.611L452.749 260.699C453.105 258.9 454.203 257.675 456.028 257.675C457.854 257.675 458.459 258.9 458.103 260.699H458.126ZM454.105 260.623L452.885 266.717C452.681 267.737 452.946 268.433 453.885 268.433C454.824 268.433 455.4 267.737 455.574 266.717L456.778 260.623C456.975 259.603 456.71 258.93 455.763 258.93C454.817 258.93 454.287 259.603 454.082 260.623H454.105Z" fill="#263238"/>
<path d="M439.064 276.552C439.822 272.886 442.094 270.504 445.752 270.504C449.41 270.504 450.811 272.863 450.084 276.552L447.637 288.958C446.88 292.595 444.608 295.006 440.92 295.006C437.232 295.006 435.899 292.61 436.618 288.958L439.064 276.552ZM439.231 289.102C438.799 291.294 439.473 292.557 441.397 292.557C443.321 292.557 444.494 291.294 444.934 289.102L447.433 276.416C447.865 274.262 447.228 272.954 445.267 272.954C443.305 272.954 442.162 274.262 441.738 276.416L439.231 289.102Z" fill="#263238"/>
<path d="M459.769 281.935L459.292 284.369H453.764L451.711 294.757H449.03L453.771 270.761H463.314L462.836 273.196H455.967L454.241 281.935H459.769Z" fill="#263238"/>
<path d="M471.44 281.935L470.963 284.369H465.435L463.382 294.757H460.709L465.442 270.761H474.985L474.508 273.196H467.639L465.919 281.935H471.44Z" fill="#263238"/>
<path opacity="0.2" d="M314.104 152.334L306.197 196.091H246.921L254.827 152.334H314.104Z" fill="black"/>
<path d="M202.216 107.73H316.194L301.449 189.37H187.463L202.216 107.73Z" fill="white" stroke="#263238" stroke-linecap="round" stroke-linejoin="round"/>
<path d="M267.544 107.73L260.947 115.713L260.478 107.73H258.122L254.245 114.685L252.382 107.73H249.792L247.353 115.003L243.657 107.73H241.741L240.552 116.658L233.327 107.783L234.085 119.569L225.14 112.417L228.215 123.636L217.885 118.488L223.164 128.709L211.849 125.753L219.127 134.583L207.26 133.933L216.249 141.032L204.291 142.718L214.651 147.813L203.057 151.767L214.402 154.662L203.61 160.733L215.492 161.315L205.927 169.268L217.885 167.522L209.918 177.055L221.498 173.041L215.431 183.784L226.193 177.66L222.255 189.204L231.775 181.198L230.639 189.37H233.206L238.038 183.527L238.386 189.37H242.052L244.748 184.547L246.035 189.37H249.913L251.632 184.23L254.252 189.37H257.532L258.44 182.582L263.969 189.37H265.529L264.9 179.663L273.852 186.815L270.77 175.596L281.107 180.752L275.821 170.523L287.143 173.487L279.865 164.657L291.733 165.307L282.736 158.201L294.702 156.522L284.334 151.427L295.928 147.473L284.591 144.577L295.376 138.507L283.501 137.917L293.058 129.964L281.1 131.71L289.067 122.177L277.487 126.199L283.554 115.449L272.799 121.58L276.738 110.028L267.218 118.034L268.649 107.73H267.544Z" fill="white" stroke="#263238" stroke-linecap="round" stroke-linejoin="round"/>
<path d="M314.476 117.248L316.195 107.73H202.216L200.497 117.248H314.476Z" fill="#263238" stroke="#263238" stroke-linecap="round" stroke-linejoin="round"/>
<path d="M309.886 112.704C309.888 113.263 309.723 113.809 309.413 114.274C309.103 114.739 308.662 115.101 308.146 115.316C307.629 115.53 307.061 115.587 306.512 115.478C305.963 115.37 305.459 115.101 305.064 114.706C304.668 114.311 304.399 113.808 304.29 113.26C304.181 112.713 304.238 112.145 304.453 111.629C304.668 111.114 305.031 110.674 305.496 110.364C305.962 110.055 306.509 109.891 307.069 109.892C307.816 109.892 308.533 110.188 309.061 110.716C309.589 111.243 309.886 111.959 309.886 112.704Z" fill="white" stroke="#263238" stroke-linecap="round" stroke-linejoin="round"/>
<path d="M233.57 137.184C237.553 137.184 238.75 139.081 238.008 142.839L237.773 144.041C237.235 146.74 236.137 148.418 233.774 149.113C236.122 149.809 236.682 151.775 236.13 154.587L235.698 156.734C234.941 160.567 232.669 162.721 228.677 162.721H222.793L227.829 137.184H233.57ZM229.185 160.128C231.268 160.128 232.434 159.032 232.903 156.666L233.35 154.398C233.911 151.555 232.964 150.618 230.518 150.618H228.034L226.156 160.136L229.185 160.128ZM230.737 148.032C233.009 148.032 234.312 147.276 234.842 144.638L235.138 143.126C235.584 140.858 235.031 139.769 232.987 139.769H230.169L228.541 148.01L230.737 148.032Z" fill="#263238"/>
<path d="M241.006 156.696C240.552 158.964 241.195 160.385 243.278 160.385C245.361 160.385 246.512 158.994 246.966 156.696L250.813 137.184H253.487L249.655 156.552C248.897 160.423 246.625 163.009 242.649 163.009C238.673 163.009 237.462 160.423 238.219 156.552L242.044 137.184H244.861L241.006 156.696Z" fill="#263238"/>
<path d="M257.592 153.566L255.418 137.184H258.379L259.894 149.733L266.392 137.184H269.095L260.416 153.566L258.606 162.721H255.797L257.592 153.566Z" fill="#263238"/>
<path d="M269.565 159.183L268.868 162.721H266.127L266.824 159.183H269.565ZM268.762 149.189L271.125 137.184H273.973L271.602 149.189L269.686 157.067H267.566L268.762 149.189Z" fill="#263238"/>
<path opacity="0.2" d="M457.021 152.334L449.053 196.416H365.58L373.547 152.334H457.021Z" fill="black"/>
<path d="M371.632 131.106H455.105L444.298 190.882H360.832L371.632 131.106Z" fill="white" stroke="#263238" stroke-linecap="round" stroke-linejoin="round"/>
<path d="M453.84 138.068L455.104 131.106H371.631L370.374 138.068H453.84Z" fill="#263238" stroke="#263238" stroke-linecap="round" stroke-linejoin="round"/>
<path d="M448.417 136.806C449.559 136.806 450.485 135.882 450.485 134.742C450.485 133.602 449.559 132.678 448.417 132.678C447.275 132.678 446.35 133.602 446.35 134.742C446.35 135.882 447.275 136.806 448.417 136.806Z" fill="white" stroke="#263238" stroke-linecap="round" stroke-linejoin="round"/>
<path d="M395.646 153.324L394.041 161.436H392.026L395.586 143.406H397.6L396.002 151.518H400.44L402.038 143.406H404.053L400.493 161.436H398.479L400.084 153.324H395.646Z" fill="#263238"/>
<path d="M405.105 147.76C405.643 145.001 407.377 143.224 410.126 143.224C412.875 143.224 413.913 145.001 413.383 147.76L411.542 157.082C411.005 159.811 409.27 161.618 406.499 161.618C403.727 161.618 402.712 159.811 403.257 157.082L405.105 147.76ZM405.226 157.188C404.901 158.836 405.408 159.788 406.854 159.788C408.301 159.788 409.187 158.836 409.513 157.188L411.391 147.654C411.717 146.029 411.239 145.054 409.763 145.054C408.286 145.054 407.43 146.029 407.112 147.654L405.226 157.188Z" fill="#263238"/>
<path d="M415.201 161.436L418.397 145.235H415.072L415.436 143.406H424.107L423.744 145.235H420.419L417.216 161.436H415.201Z" fill="#263238"/>
<path d="M390.209 167.764L390.118 168.255H388.209L388.323 167.658C388.641 166.04 388.209 165.088 386.771 165.088C385.332 165.088 384.499 166.04 384.196 167.635C383.4 171.68 389.391 172.066 388.384 177.138C387.846 179.868 386.18 181.674 383.423 181.674C380.666 181.674 379.72 179.89 380.257 177.138L380.462 176.11H382.348L382.121 177.244C381.802 178.87 382.287 179.822 383.726 179.822C385.165 179.822 386.036 178.87 386.354 177.244C387.149 173.222 381.181 172.837 382.189 167.764C382.734 164.982 384.37 163.228 387.073 163.228C389.777 163.228 390.784 165.035 390.209 167.764Z" fill="#263238"/>
<path d="M392.041 177.834L390.625 181.44H388.77L395.79 163.409H398.706L398.6 181.44H396.593V177.804L392.041 177.834ZM392.639 176.11H396.669V165.7L392.639 176.11Z" fill="#263238"/>
<path d="M400.175 181.44L403.734 163.409H405.749L402.553 179.61H407.71L407.347 181.44H400.175Z" fill="#263238"/>
<path d="M417.291 171.423L416.935 173.222H412.519L411.232 179.641H416.647L416.306 181.44H408.869L412.429 163.409H419.866L419.502 165.231H414.087L412.868 171.393L417.291 171.423Z" fill="#263238"/>
<path d="M420.616 178.968L420.123 181.47H418.185L418.677 178.968H420.616ZM420.048 171.914L421.721 163.44H423.736L422.062 171.914L420.707 177.479H419.192L420.048 171.914Z" fill="#263238"/>
<path d="M424.69 178.968L424.198 181.47H422.267L422.759 178.968H424.69ZM424.107 171.914L425.781 163.44H427.795L426.121 171.914L424.766 177.479H423.251L424.107 171.914Z" fill="#263238"/>
<path d="M247.852 354.201C247.852 354.201 248.973 360.914 250.215 363.53C251.457 366.146 253.707 369.366 252.207 369.744C250.708 370.122 248.602 369.367 247.103 367.756C245.398 365.735 243.523 363.864 241.498 362.162C238.764 359.894 238.386 359.297 239.136 357.686C240.092 355.991 241.173 354.369 242.369 352.833L247.852 354.201Z" fill="white" stroke="#263238" stroke-linecap="round" stroke-linejoin="round"/>
<path d="M252.132 369.752C248.602 368.278 246.073 364.566 243.869 362.283C242.374 360.747 240.716 359.378 238.924 358.2C238.507 359.463 239.075 360.174 241.499 362.162C243.523 363.864 245.398 365.735 247.103 367.756C248.572 369.344 250.678 370.085 252.132 369.752Z" fill="white" stroke="#263238" stroke-linecap="round" stroke-linejoin="round"/>
<path d="M218.113 296.027C218.113 296.027 213.879 301.493 212.508 305.348C211.138 309.204 211.751 313.302 214.25 314.549C216.749 315.796 250.738 314.549 250.738 314.549L242.408 352.833L247.891 354.201C247.891 354.201 264.454 316.537 265.575 313.8C266.696 311.064 268.437 305.348 267.566 303.859C266.695 302.37 252.374 300.752 252.374 300.752L252.435 296.821L219.249 296.896L218.113 296.027Z" fill="#263238" stroke="#263238" stroke-linecap="round" stroke-linejoin="round"/>
<path d="M251.125 313.067L253.064 304.146" stroke="#7A7A7A" stroke-linecap="round" stroke-linejoin="round"/>
<path d="M241.908 224.85C241.908 224.85 240.711 220.661 237.864 220.215C235.016 219.769 232.328 220.215 232.63 221.41C232.933 222.604 233.077 223.05 233.077 223.05C233.077 223.05 226.791 223.353 223.497 226.49C220.203 229.627 223.648 236.318 225.443 238.888C227.238 241.459 229.336 243.825 229.488 244.566C229.639 245.307 230.533 247.855 228.73 249.2C226.928 250.546 211.365 257.864 211.667 259.512C211.97 261.16 217.385 296.821 217.385 296.821H252.389C252.389 296.821 258.251 257.72 257.494 256.972C256.736 256.224 241.484 249.2 241.484 249.2L242.241 245.02C242.241 245.02 247.186 244.422 247.035 243.228C246.883 242.033 245.687 236.499 245.687 236.499L246.883 234.859L243.862 231.124V228.728L241.908 224.85Z" fill="#94EE8B" stroke="#263238" stroke-linecap="round" stroke-linejoin="round"/>
<path d="M241.461 249.2L242.218 245.02C242.218 245.02 247.164 244.422 247.012 243.228C246.861 242.033 245.664 236.499 245.664 236.499L246.861 234.859L243.862 231.124V228.728L241.915 224.85C241.915 224.85 240.719 220.661 237.871 220.215C235.024 219.769 232.335 220.215 232.638 221.41C232.941 222.604 233.085 223.05 233.085 223.05C233.085 223.05 226.799 223.353 223.504 226.49C220.21 229.627 223.656 236.318 225.451 238.888C227.246 241.459 229.344 243.825 229.495 244.566C229.646 245.307 230.54 247.855 228.738 249.2C228.127 249.605 227.495 249.976 226.844 250.312C228.548 252.081 231.949 255.12 235.652 255.649C239.015 256.133 242.256 252.874 244.172 250.455L241.461 249.2Z" fill="white" stroke="#263238" stroke-linecap="round" stroke-linejoin="round"/>
<path d="M228.586 243.084C228.704 243.083 228.818 243.037 228.904 242.956C230.169 241.693 231.858 240.937 230.926 240.174C229.995 239.41 230.926 237.15 231.35 237.15C231.774 237.15 233.122 236.809 233.122 236.477C232.666 235.471 232.069 234.534 231.35 233.695C230.676 232.848 234.478 229.393 235.485 228.803C236.493 228.214 232.872 228.894 232.698 227.458C232.524 226.021 240.953 224.744 241.824 224.608C241.521 223.708 240.309 220.608 237.863 220.223C235.023 219.777 232.327 220.223 232.63 221.417C232.933 222.612 233.077 223.058 233.077 223.058C233.077 223.058 226.791 223.36 223.497 226.498C220.202 229.635 223.648 236.326 225.443 238.896C226.556 240.461 227.783 241.98 228.586 243.084Z" fill="#263238" stroke="#263238" stroke-linecap="round" stroke-linejoin="round"/>
<path d="M232.775 238.291C232.775 238.291 230.23 234.111 228.738 236.023C227.246 237.936 229.185 241.398 231.01 241.701C231.5 241.801 232.006 241.8 232.496 241.698C232.986 241.595 233.449 241.393 233.858 241.104L235.653 242.449" fill="white"/>
<path d="M232.775 238.291C232.775 238.291 230.23 234.111 228.738 236.023C227.246 237.936 229.185 241.398 231.01 241.701C231.5 241.801 232.006 241.8 232.496 241.698C232.986 241.595 233.449 241.393 233.858 241.104L235.653 242.449" stroke="#263238" stroke-linecap="round" stroke-linejoin="round"/>
<path d="M242.158 231.729C242.211 232.266 242.022 232.719 241.719 232.757C241.416 232.795 241.12 232.387 241.067 231.85C241.014 231.313 241.204 230.86 241.499 230.829C241.795 230.799 242.097 231.2 242.158 231.729Z" fill="#263238"/>
<path d="M241.65 238.14C242.714 238.477 243.842 238.563 244.945 238.389" stroke="#263238" stroke-linecap="round" stroke-linejoin="round"/>
<path d="M239.712 229.726C240.096 229.302 240.599 229.003 241.155 228.868C241.712 228.734 242.296 228.769 242.832 228.97" stroke="#263238" stroke-linecap="round" stroke-linejoin="round"/>
<path d="M254.206 275.834L256.388 281.882L251.745 290.16L255.032 293.222L267.339 285.844C267.64 285.657 267.867 285.372 267.979 285.036C268.091 284.7 268.081 284.336 267.952 284.007L257.395 256.654L256.213 256.307" fill="#94EE8B"/>
<path d="M254.206 275.834L256.388 281.882L251.745 290.16L255.032 293.222L267.339 285.844C267.64 285.657 267.867 285.372 267.979 285.036C268.091 284.7 268.081 284.336 267.952 284.007L257.395 256.654L256.213 256.307" stroke="#263238" stroke-linecap="round" stroke-linejoin="round"/>
<path d="M256.388 281.875C257.464 281.443 258.63 281.287 259.782 281.419C260.933 281.551 262.034 281.967 262.984 282.631" stroke="#263238" stroke-linecap="round" stroke-linejoin="round"/>
<path d="M250.36 286.176C250.36 286.176 247.724 286.857 247.33 286.932C246.937 287.008 246.05 288.512 245.596 289.2C245.142 289.888 242.953 290.1 244.013 291.158C245.074 292.217 246.346 291.007 246.952 290.478C247.558 289.949 248.307 289.276 248.307 289.276L249.671 289.503C250.072 290.426 250.605 291.287 251.253 292.058C252.155 293.041 252.715 293.789 254.676 293.57C256.638 293.351 257.365 291.241 255.934 289.208C254.502 287.174 250.36 286.176 250.36 286.176Z" fill="white" stroke="#263238" stroke-linecap="round" stroke-linejoin="round"/>
<path d="M252.548 285.768C252.548 285.768 251.723 284.256 250.814 284.642C249.905 285.027 248.625 290.213 249.231 290.894C249.837 291.574 250.36 289.238 251.344 287.87C251.847 287.232 252.253 286.524 252.548 285.768Z" fill="white" stroke="#263238" stroke-linecap="round" stroke-linejoin="round"/>
<path d="M252.548 285.768C252.548 285.768 249.988 290.062 250.587 291.272C251.185 292.481 251.874 291.347 252.7 289.986C253.525 288.626 254.358 287.431 254.214 286.524C254.07 285.617 253.306 285.503 252.548 285.768Z" fill="white" stroke="#263238" stroke-linecap="round" stroke-linejoin="round"/>
<path d="M254.283 287.461C254.283 287.461 255.722 287.605 255.722 288.815C255.722 290.024 253.23 292.126 252.397 292.126C251.564 292.126 252.17 291.226 252.17 291.226L254.283 287.461Z" fill="white" stroke="#263238" stroke-linecap="round" stroke-linejoin="round"/>
<path d="M255.645 289.714C255.645 289.714 256.32 289.495 256.403 290.319C256.486 291.143 254.593 292.587 253.616 292.806C252.639 293.026 253.616 291.529 253.616 291.529L255.645 289.714Z" fill="white" stroke="#263238" stroke-linecap="round" stroke-linejoin="round"/>
<path d="M217.151 272.024L213.228 281.852L217.855 289.087L215.886 292.738L202.254 285.821C201.952 285.635 201.726 285.349 201.614 285.013C201.502 284.678 201.511 284.313 201.64 283.984L211.531 259.142L212.455 258.499" fill="#94EE8B"/>
<path d="M217.151 272.024L213.228 281.852L217.855 289.087L215.886 292.738L202.254 285.821C201.952 285.635 201.726 285.349 201.614 285.013C201.502 284.678 201.511 284.313 201.64 283.984L211.531 259.142L212.455 258.499" stroke="#263238" stroke-linecap="round" stroke-linejoin="round"/>
<path d="M208.342 281.776C207.734 281.992 207.159 282.29 206.631 282.661" stroke="#263238" stroke-linecap="round" stroke-linejoin="round"/>
<path d="M213.228 281.875C212.267 281.488 211.231 281.325 210.198 281.398" stroke="#263238" stroke-linecap="round" stroke-linejoin="round"/>
<path d="M216.484 287.885C216.484 287.885 214.371 291.347 215.431 292.784C216.492 294.22 219.975 292.33 219.975 292.33C219.975 292.33 220.347 292.481 221.634 291.876C222.921 291.272 223.906 289.389 223.368 288.096C222.831 286.804 216.484 287.885 216.484 287.885Z" fill="white" stroke="#263238" stroke-linecap="round" stroke-linejoin="round"/>
<path d="M223.626 285.768C224.096 286.21 224.681 286.512 225.315 286.637C226.178 286.721 228.488 286.222 228.942 286.637C229.397 287.053 229.064 288.323 228.117 288.611C227.17 288.898 226.466 288.565 225.398 288.49C224.33 288.414 223.997 288.406 223.997 288.406L223.626 285.768Z" fill="white" stroke="#263238" stroke-linecap="round" stroke-linejoin="round"/>
<path d="M221.581 285.995C221.581 285.995 222.687 285.292 223.497 285.692C224.307 286.093 224.807 288.716 224.807 289.714C224.807 290.712 224.398 291.619 224.103 291.619C223.879 291.587 223.668 291.495 223.491 291.354C223.314 291.214 223.178 291.029 223.096 290.818C222.891 290.319 221.982 287.499 221.884 287C221.812 286.657 221.711 286.321 221.581 285.995Z" fill="white" stroke="#263238" stroke-linecap="round" stroke-linejoin="round"/>
<path d="M219.869 286.524C220.552 286.165 221.317 285.993 222.088 286.025C222.891 286.222 223.292 290.448 223.391 291.249C223.489 292.05 223.194 292.557 222.391 292.058C221.588 291.559 221.081 289.238 220.679 288.641C220.278 288.044 219.369 287.197 219.869 286.524Z" fill="white" stroke="#263238" stroke-linecap="round" stroke-linejoin="round"/>
<path d="M218.06 287.401C218.25 287.1 218.519 286.856 218.838 286.696C219.157 286.536 219.514 286.466 219.87 286.494C220.975 286.698 221.983 290.818 222.187 291.423C222.392 292.028 221.384 292.527 220.975 292.224C220.002 291.024 219.129 289.747 218.362 288.406C218.256 288.104 218.06 287.401 218.06 287.401Z" fill="white" stroke="#263238" stroke-linecap="round" stroke-linejoin="round"/>
<path d="M218.544 287.59C218.45 287.441 218.307 287.329 218.14 287.274C217.973 287.219 217.792 287.224 217.628 287.288C217.409 287.35 217.207 287.458 217.033 287.604C216.86 287.75 216.719 287.93 216.62 288.134C216.287 288.951 217.378 290.402 218.135 291.34C218.892 292.277 219.862 292.202 219.945 291.627C219.764 290.199 219.287 288.824 218.544 287.59Z" fill="white" stroke="#263238" stroke-linecap="round" stroke-linejoin="round"/>
<path d="M255.108 279.463H219.869V301.712H255.108V279.463Z" fill="white" stroke="#263238" stroke-linecap="round" stroke-linejoin="round"/>
<path d="M237.265 289.82C238.675 289.82 239.817 288.679 239.817 287.272C239.817 285.865 238.675 284.725 237.265 284.725C235.856 284.725 234.713 285.865 234.713 287.272C234.713 288.679 235.856 289.82 237.265 289.82Z" fill="white" stroke="#263238" stroke-linecap="round" stroke-linejoin="round"/>
<path d="M221.452 353.808C221.452 353.808 221.081 363.009 222.694 366.237C224.307 369.465 226.806 371.582 228.427 368.353C230.048 365.125 227.556 356.794 227.556 355.426C227.541 354.469 227.457 353.514 227.306 352.568L221.452 353.188V353.808Z" fill="white" stroke="#263238" stroke-linecap="round" stroke-linejoin="round"/>
<path d="M215.477 305.968C215.477 305.968 215.969 325.859 217.839 337.176C219.71 348.493 221.452 353.808 221.452 353.808C222.772 354.006 224.115 354.006 225.436 353.808C226.303 353.565 227.088 353.092 227.708 352.44C227.708 352.44 229.98 313.528 230.07 310.172C230.161 306.815 229.949 303.587 229.078 302.612C228.207 301.636 220.748 301.001 218.12 302.491" fill="#263238"/>
<path d="M215.477 305.968C215.477 305.968 215.969 325.859 217.839 337.176C219.71 348.493 221.452 353.808 221.452 353.808C222.772 354.006 224.115 354.006 225.436 353.808C226.303 353.565 227.088 353.092 227.708 352.44C227.708 352.44 229.98 313.528 230.07 310.172C230.161 306.815 229.949 303.587 229.078 302.612C228.207 301.636 220.748 301.001 218.12 302.491" stroke="#263238" stroke-linecap="round" stroke-linejoin="round"/>
</svg>
