<svg width="24" height="24" viewBox="0 0 24 24" fill="none" xmlns="http://www.w3.org/2000/svg">
<path fill-rule="evenodd" clip-rule="evenodd" d="M14.5816 17.8494C14.5898 17.8692 14.596 17.8899 14.6002 17.911C14.6047 17.9324 14.6068 17.9543 14.6068 17.9758C14.6068 17.9973 14.6047 18.0188 14.6002 18.0402C14.596 18.0614 14.5898 18.0822 14.5816 18.1022C14.5732 18.1221 14.563 18.1412 14.551 18.1592C14.539 18.1774 14.525 18.1943 14.5101 18.2091C14.4794 18.2398 14.4429 18.2641 14.4027 18.2806C14.3828 18.289 14.362 18.2954 14.3408 18.2997C14.3197 18.3038 14.2978 18.3063 14.2763 18.3063C14.2549 18.3063 14.233 18.3038 14.2119 18.2997C14.1909 18.2955 14.1698 18.2889 14.15 18.2806C14.1097 18.2643 14.0732 18.2399 14.0426 18.2091C14.0272 18.194 14.0135 18.1772 14.0017 18.1592C13.9897 18.1412 13.9795 18.1221 13.9711 18.1022C13.9629 18.0822 13.9567 18.0614 13.9525 18.0402C13.9481 18.019 13.9459 17.9974 13.946 17.9758C13.946 17.9543 13.948 17.9324 13.9525 17.911C13.9566 17.8899 13.9629 17.8693 13.9711 17.8494C13.9794 17.8292 13.9897 17.8102 14.0017 17.7924C14.0137 17.7743 14.0273 17.7574 14.0426 17.742C14.0579 17.7267 14.0748 17.7131 14.093 17.7007C14.1107 17.6891 14.1301 17.6788 14.15 17.6705C14.17 17.6623 14.1907 17.656 14.2119 17.6515C14.2545 17.6428 14.2983 17.6428 14.3408 17.6515C14.3619 17.6561 14.383 17.6623 14.4028 17.6705C14.4226 17.6788 14.442 17.6891 14.4598 17.7007C14.4779 17.7131 14.4949 17.7267 14.5102 17.742C14.525 17.7573 14.5391 17.7742 14.5511 17.7924C14.563 17.8102 14.5733 17.8292 14.5816 17.8494ZM21.1907 15.9989C21.1728 15.9135 21.1343 15.8338 21.0787 15.7667C20.9932 15.6637 20.8627 15.5848 20.6886 15.5459C20.6412 15.5353 20.5964 15.5321 20.5532 15.5365C20.5118 15.5407 20.4692 15.5529 20.4246 15.5729L14.5608 18.2089C14.5559 18.2111 14.5514 18.2142 14.5477 18.2181C14.544 18.222 14.5411 18.2266 14.5392 18.2316C14.4005 18.5882 14.1449 18.874 13.8296 19.056C13.8225 19.0602 13.8152 19.064 13.8079 19.0676C13.4474 19.269 13.0119 19.3365 12.5846 19.222L8.29267 18.0719C8.20938 18.0482 8.13875 17.9927 8.09601 17.9174C8.05327 17.8421 8.04185 17.753 8.06421 17.6693C8.08657 17.5856 8.14092 17.5141 8.21553 17.4702C8.29014 17.4262 8.37905 17.4133 8.46307 17.4343L12.7551 18.5843C13.0097 18.6525 13.2687 18.6135 13.4834 18.4951C13.4886 18.4918 13.4939 18.4886 13.4992 18.4855C13.7174 18.3596 13.8877 18.151 13.9576 17.8905L13.9577 17.8902C14.0258 17.6356 13.9867 17.3767 13.8683 17.1622L13.8669 17.1598C13.8641 17.1553 13.8613 17.1509 13.8587 17.1464C13.7327 16.9282 13.5242 16.7578 13.2637 16.688L9.06806 15.5638C9.06096 15.5618 9.05344 15.5618 9.04636 15.5639L6.74303 16.2013C6.73429 16.2037 6.72657 16.2089 6.72109 16.2161C6.71561 16.2233 6.71267 16.2321 6.71275 16.2411V20.7917C6.71275 20.805 6.71841 20.8164 6.72897 20.8245C6.73953 20.8326 6.75206 20.835 6.76492 20.8315L8.33534 20.4033C8.43215 20.3769 8.52604 20.3638 8.62065 20.3642C8.71852 20.3645 8.81318 20.378 8.90841 20.4046L8.90831 20.4049L13.2911 21.6311C13.3521 21.6481 13.4118 21.6522 13.4692 21.6434C13.5251 21.6348 13.5801 21.6132 13.6328 21.5789L20.7279 16.9544C20.732 16.9517 20.7384 16.9472 20.7478 16.9403L20.754 16.9357L20.7565 16.9337L20.7657 16.9257L20.7664 16.9251C21.0012 16.7302 21.1391 16.5074 21.1865 16.2958C21.2094 16.1927 21.2106 16.0918 21.1907 15.9989ZM5.93942 15.641C5.90414 15.6054 5.86218 15.5772 5.81596 15.5579C5.76974 15.5387 5.72017 15.5287 5.67009 15.5286H3.17759C3.12752 15.5287 3.07795 15.5387 3.03173 15.558C2.98552 15.5772 2.94356 15.6055 2.90827 15.641C2.87273 15.6763 2.8445 15.7182 2.82522 15.7644C2.80594 15.8107 2.79597 15.8602 2.7959 15.9103V21.3659C2.7959 21.4705 2.83895 21.5659 2.90827 21.6352C2.97758 21.7045 3.07295 21.7476 3.17759 21.7476H5.67014C5.72022 21.7476 5.76979 21.7376 5.81601 21.7183C5.86223 21.699 5.90418 21.6708 5.93947 21.6352C5.97249 21.6023 5.99926 21.5636 6.01847 21.521C6.03988 21.4735 6.05183 21.421 6.05183 21.3659V15.9104C6.05183 15.8424 6.03369 15.7784 6.00196 15.7228C5.98485 15.6929 5.96381 15.6654 5.93942 15.641ZM7.14523 8.86074V4.28749C7.14523 3.16809 8.06111 2.2522 9.18047 2.2522H16.7091C17.8285 2.2522 18.7444 3.16809 18.7444 4.28749V8.86074C18.7444 9.98015 17.8285 10.896 16.7091 10.896H11.9726C11.9672 10.8959 11.9618 10.897 11.9567 10.8991C11.9517 10.9011 11.9472 10.9042 11.9434 10.9081L9.19679 13.6547C9.19107 13.6606 9.18371 13.6646 9.17567 13.6662C9.16764 13.6678 9.1593 13.6669 9.15177 13.6637C9.14417 13.6607 9.13766 13.6554 9.13311 13.6486C9.12856 13.6418 9.12618 13.6337 9.12628 13.6256V10.9351C9.12628 10.9245 9.12218 10.9143 9.11484 10.9066C9.1075 10.8989 9.09749 10.8944 9.08687 10.8939C8.01052 10.8445 7.14523 9.94881 7.14523 8.86074ZM14.8794 6.57412C14.8794 6.83529 14.9853 7.07178 15.1565 7.24295C15.3276 7.41412 15.5641 7.52005 15.8253 7.52005C16.0865 7.52005 16.323 7.41417 16.4941 7.24295C16.6653 7.07178 16.7712 6.83529 16.7712 6.57412C16.7712 6.31295 16.6653 6.07645 16.4941 5.90529C16.323 5.73412 16.0865 5.62818 15.8253 5.62818C15.5641 5.62818 15.3276 5.73407 15.1565 5.90529C15.0685 5.99302 14.9988 6.09727 14.9512 6.21205C14.9037 6.32684 14.8793 6.44988 14.8794 6.57412ZM11.9989 6.57412C11.9989 6.83529 12.1048 7.07178 12.276 7.24295C12.4472 7.41412 12.6837 7.52005 12.9448 7.52005C13.206 7.52005 13.4425 7.41417 13.6137 7.24295C13.7848 7.07178 13.8907 6.83529 13.8907 6.57412C13.8907 6.31295 13.7848 6.07645 13.6137 5.90529C13.4425 5.73412 13.206 5.62818 12.9448 5.62818C12.6837 5.62818 12.4472 5.73407 12.276 5.90529C12.188 5.99302 12.1183 6.09727 12.0707 6.21205C12.0232 6.32684 11.9988 6.44988 11.9989 6.57412ZM9.11846 6.57412C9.11846 6.83529 9.22435 7.07178 9.39551 7.24295C9.56668 7.41412 9.80318 7.52005 10.0643 7.52005C10.3255 7.52005 10.562 7.41417 10.7332 7.24295C10.9043 7.07178 11.0102 6.83529 11.0102 6.57412C11.0102 6.31295 10.9043 6.07645 10.7332 5.90529C10.562 5.73412 10.3255 5.62818 10.0643 5.62818C9.80318 5.62818 9.56668 5.73407 9.39551 5.90529C9.30755 5.99302 9.23779 6.09727 9.19024 6.21205C9.1427 6.32684 9.1183 6.44988 9.11846 6.57412Z" fill="white"/>
</svg>
