<svg width="24" height="24" viewBox="0 0 24 24" fill="none" xmlns="http://www.w3.org/2000/svg">
<path fill-rule="evenodd" clip-rule="evenodd" d="M14.5816 17.8495C14.5898 17.8693 14.596 17.89 14.6002 17.911C14.6047 17.9325 14.6068 17.9544 14.6068 17.9759C14.6068 17.9973 14.6047 18.0188 14.6002 18.0403C14.596 18.0615 14.5898 18.0822 14.5816 18.1022C14.5732 18.1222 14.563 18.1412 14.551 18.1592C14.539 18.1774 14.525 18.1944 14.5101 18.2092C14.4794 18.2399 14.4429 18.2642 14.4027 18.2807C14.3828 18.2891 14.362 18.2955 14.3408 18.2997C14.3197 18.3038 14.2978 18.3063 14.2763 18.3063C14.2549 18.3063 14.233 18.3038 14.2119 18.2997C14.1909 18.2955 14.1698 18.289 14.15 18.2807C14.1097 18.2643 14.0732 18.24 14.0426 18.2092C14.0272 18.1941 14.0135 18.1773 14.0017 18.1592C13.9897 18.1412 13.9795 18.1222 13.9711 18.1022C13.9629 18.0822 13.9567 18.0615 13.9525 18.0403C13.9481 18.0191 13.9459 17.9975 13.946 17.9759C13.946 17.9544 13.948 17.9325 13.9525 17.911C13.9566 17.8899 13.9629 17.8693 13.9711 17.8495C13.9794 17.8292 13.9897 17.8102 14.0017 17.7925C14.0137 17.7744 14.0273 17.7574 14.0426 17.7421C14.0579 17.7268 14.0748 17.7132 14.093 17.7008C14.1107 17.6892 14.1301 17.6789 14.15 17.6706C14.17 17.6624 14.1907 17.656 14.2119 17.6516C14.2545 17.6429 14.2983 17.6429 14.3408 17.6516C14.3619 17.6561 14.383 17.6623 14.4028 17.6706C14.4226 17.6788 14.442 17.6892 14.4598 17.7008C14.4779 17.7132 14.4949 17.7268 14.5102 17.7421C14.525 17.7574 14.5391 17.7743 14.5511 17.7925C14.563 17.8102 14.5733 17.8292 14.5816 17.8495ZM21.1907 15.9989C21.1728 15.9136 21.1343 15.8339 21.0787 15.7668C20.9932 15.6638 20.8627 15.5849 20.6886 15.546C20.6412 15.5353 20.5964 15.5322 20.5532 15.5366C20.5118 15.5408 20.4692 15.5529 20.4246 15.5729L14.5608 18.209C14.5559 18.2111 14.5514 18.2142 14.5477 18.2181C14.544 18.222 14.5411 18.2266 14.5392 18.2316C14.4005 18.5882 14.1449 18.8741 13.8296 19.0561C13.8225 19.0602 13.8152 19.0641 13.8079 19.0677C13.4474 19.2691 13.0119 19.3366 12.5846 19.222L8.29267 18.072C8.20938 18.0483 8.13875 17.9928 8.09601 17.9175C8.05327 17.8421 8.04185 17.753 8.06421 17.6694C8.08657 17.5857 8.14092 17.5142 8.21553 17.4702C8.29014 17.4263 8.37905 17.4134 8.46307 17.4344L12.7551 18.5844C13.0097 18.6526 13.2687 18.6135 13.4834 18.4952C13.4886 18.4918 13.4939 18.4886 13.4992 18.4856C13.7174 18.3596 13.8877 18.1511 13.9576 17.8906L13.9577 17.8902C14.0258 17.6357 13.9867 17.3768 13.8683 17.1622L13.8669 17.1598C13.8641 17.1554 13.8613 17.1509 13.8587 17.1464C13.7327 16.9283 13.5242 16.7579 13.2637 16.6881L9.06806 15.5639C9.06096 15.5619 9.05344 15.5619 9.04636 15.564L6.74303 16.2014C6.73429 16.2037 6.72657 16.2089 6.72109 16.2161C6.71561 16.2233 6.71267 16.2321 6.71275 16.2412V20.7917C6.71275 20.805 6.71841 20.8164 6.72897 20.8246C6.73953 20.8326 6.75206 20.8351 6.76492 20.8316L8.33534 20.4034C8.43215 20.377 8.52604 20.3639 8.62065 20.3642C8.71852 20.3645 8.81318 20.378 8.90841 20.4047L8.90831 20.405L13.2911 21.6312C13.3521 21.6482 13.4118 21.6522 13.4692 21.6434C13.5251 21.6348 13.5801 21.6133 13.6328 21.5789L20.7279 16.9544C20.732 16.9518 20.7384 16.9472 20.7478 16.9404L20.754 16.9357L20.7565 16.9337L20.7657 16.9258L20.7664 16.9252C21.0012 16.7302 21.1391 16.5075 21.1865 16.2958C21.2094 16.1928 21.2106 16.0919 21.1907 15.9989ZM5.93942 15.641C5.90414 15.6055 5.86218 15.5773 5.81596 15.558C5.76974 15.5387 5.72017 15.5287 5.67009 15.5287H3.17759C3.12752 15.5288 3.07795 15.5387 3.03173 15.558C2.98552 15.5773 2.94356 15.6055 2.90827 15.641C2.87273 15.6763 2.8445 15.7183 2.82522 15.7645C2.80594 15.8107 2.79597 15.8603 2.7959 15.9104V21.366C2.7959 21.4706 2.83895 21.566 2.90827 21.6353C2.97758 21.7046 3.07295 21.7477 3.17759 21.7477H5.67014C5.72022 21.7476 5.76979 21.7376 5.81601 21.7183C5.86223 21.699 5.90418 21.6708 5.93947 21.6353C5.97249 21.6023 5.99926 21.5636 6.01847 21.5211C6.03988 21.4736 6.05183 21.4211 6.05183 21.366V15.9104C6.05183 15.8424 6.03369 15.7784 6.00196 15.7229C5.98485 15.6929 5.96381 15.6654 5.93942 15.641ZM7.14523 8.8608V4.28755C7.14523 3.16814 8.06111 2.25225 9.18047 2.25225H16.7091C17.8285 2.25225 18.7444 3.16814 18.7444 4.28755V8.8608C18.7444 9.98021 17.8285 10.8961 16.7091 10.8961H11.9726C11.9672 10.896 11.9618 10.897 11.9567 10.8991C11.9517 10.9012 11.9472 10.9043 11.9434 10.9082L9.19679 13.6548C9.19107 13.6607 9.18371 13.6647 9.17567 13.6663C9.16764 13.6679 9.1593 13.667 9.15177 13.6638C9.14417 13.6607 9.13766 13.6555 9.13311 13.6486C9.12856 13.6418 9.12618 13.6338 9.12628 13.6256V10.9352C9.12628 10.9245 9.12218 10.9143 9.11484 10.9067C9.1075 10.899 9.09749 10.8944 9.08687 10.8939C8.01052 10.8446 7.14523 9.94886 7.14523 8.8608ZM14.8794 6.57418C14.8794 6.83534 14.9853 7.07184 15.1565 7.24301C15.3276 7.41418 15.5641 7.52011 15.8253 7.52011C16.0865 7.52011 16.323 7.41422 16.4941 7.24301C16.6653 7.07184 16.7712 6.83534 16.7712 6.57418C16.7712 6.31301 16.6653 6.07651 16.4941 5.90534C16.323 5.73417 16.0865 5.62824 15.8253 5.62824C15.5641 5.62824 15.3276 5.73413 15.1565 5.90534C15.0685 5.99308 14.9988 6.09733 14.9512 6.21211C14.9037 6.32689 14.8793 6.44994 14.8794 6.57418ZM11.9989 6.57418C11.9989 6.83534 12.1048 7.07184 12.276 7.24301C12.4472 7.41418 12.6837 7.52011 12.9448 7.52011C13.206 7.52011 13.4425 7.41422 13.6137 7.24301C13.7848 7.07184 13.8907 6.83534 13.8907 6.57418C13.8907 6.31301 13.7848 6.07651 13.6137 5.90534C13.4425 5.73417 13.206 5.62824 12.9448 5.62824C12.6837 5.62824 12.4472 5.73413 12.276 5.90534C12.188 5.99308 12.1183 6.09733 12.0707 6.21211C12.0232 6.32689 11.9988 6.44994 11.9989 6.57418ZM9.11846 6.57418C9.11846 6.83534 9.22435 7.07184 9.39551 7.24301C9.56668 7.41418 9.80318 7.52011 10.0643 7.52011C10.3255 7.52011 10.562 7.41422 10.7332 7.24301C10.9043 7.07184 11.0102 6.83534 11.0102 6.57418C11.0102 6.31301 10.9043 6.07651 10.7332 5.90534C10.562 5.73417 10.3255 5.62824 10.0643 5.62824C9.80318 5.62824 9.56668 5.73413 9.39551 5.90534C9.30755 5.99308 9.23779 6.09733 9.19024 6.21211C9.1427 6.32689 9.1183 6.44994 9.11846 6.57418Z" fill="white"/>
</svg>
