<svg width="40" height="40" viewBox="0 0 40 40" fill="none" xmlns="http://www.w3.org/2000/svg">
<g id="1 3" clip-path="url(#clip0_1_2303)">
<g id="Group">
<path id="Vector" d="M35.6974 39.394C35.5156 39.394 35.3944 39.3334 35.2731 39.2122L32.3034 36.1819H18.1216C17.455 36.1819 16.7883 35.9394 16.3034 35.4546C15.8186 34.9697 15.5762 34.3637 15.5762 33.6364V22.4243C15.5762 22.0606 15.8186 21.8182 16.1822 21.8182C16.5459 21.8182 16.7883 22.0606 16.7883 22.4243V33.697C16.7883 34.0606 16.9095 34.3637 17.1519 34.6061C17.3944 34.8485 17.6974 34.9697 18.061 34.9697H32.5459C32.7277 34.9697 32.8489 35.0303 32.9701 35.1516L35.0913 37.3334V35.5758C35.0913 35.2728 35.3944 34.9697 35.6974 34.9697H36.8489C37.2125 34.9697 37.5156 34.8485 37.758 34.6061C38.0004 34.3637 38.1216 34 38.1216 33.697V21.7576C38.1216 21.0303 37.5156 20.4243 36.7883 20.4243H19.6368C19.2731 20.4243 19.0307 20.1819 19.0307 19.8182C19.0307 19.4546 19.2731 19.2122 19.6368 19.2122H36.9095C38.3034 19.2122 39.455 20.3637 39.455 21.7576V33.6364C39.455 34.3031 39.2125 34.9697 38.7277 35.4546C38.2428 35.9394 37.6368 36.1819 36.9095 36.1819H36.364L36.3034 38.7879C36.3034 39.0303 36.1216 39.2728 35.9398 39.3334C35.8186 39.3334 35.758 39.394 35.6974 39.394Z" fill="#2C9CF0"/>
<path id="Vector_2" d="M2.00038 23.5152C1.81857 23.5152 1.69735 23.4546 1.57614 23.3334C1.45493 23.2121 1.39432 22.9697 1.39432 22.7879L2.30342 18C1.21251 16.2424 0.606445 14.1818 0.606445 12.0606C0.606445 5.75759 5.75796 0.606079 12.061 0.606079C18.364 0.606079 23.5155 5.75759 23.5155 12.0606C23.5155 18.3637 18.364 23.5152 12.061 23.5152C10.4852 23.5152 8.90948 23.2121 7.45493 22.5455L2.1216 23.5152H2.00038ZM7.51554 21.2727C7.57614 21.2727 7.69735 21.2727 7.75796 21.3334C9.1519 21.9394 10.5458 22.303 12.061 22.303C17.6974 22.303 22.3034 17.697 22.3034 12.0606C22.3034 6.42426 17.6974 1.8182 12.061 1.8182C6.42463 1.8182 1.81857 6.42426 1.81857 12.0606C1.81857 14 2.36402 15.9394 3.45493 17.5758C3.51554 17.697 3.57614 17.8788 3.51554 18L2.72766 22.1212L7.33372 21.2727H7.51554ZM8.24281 34.9697H8.00038C7.21251 34.8485 6.66705 34.1212 6.66705 33.3334V32.9697C6.66705 31.7576 7.45493 30.6667 8.54584 30.3637C9.09129 30.2424 9.39432 29.697 9.27311 29.1515C9.1519 28.7273 8.78826 28.4243 8.36402 28.4243C7.87917 28.4243 7.51554 28.7273 7.39432 28.9697C7.09129 29.6364 6.30342 30.0606 5.57614 29.8788C5.09129 29.7576 4.66705 29.4546 4.48523 29.0303C4.24281 28.6061 4.24281 28.0606 4.48523 27.6364C4.97008 26.6061 5.87917 25.8182 6.97008 25.4546C8.06099 25.0909 9.27311 25.1515 10.364 25.697C11.2125 26.1212 11.8792 26.8485 12.2428 27.7576C12.7277 28.9091 12.6671 30.1818 12.1822 31.2727C11.6974 32.2424 10.9701 32.9697 9.93978 33.394V33.3334C9.93978 33.8182 9.75796 34.2424 9.39432 34.5455C8.97008 34.8485 8.60645 34.9697 8.24281 34.9697ZM8.1822 33.7576C8.36402 33.7576 8.48523 33.697 8.54584 33.697C8.66705 33.6364 8.66705 33.5152 8.66705 33.394C8.66705 32.7879 8.66705 32.3637 9.1519 32.303C10.0004 32.0606 10.6064 31.4546 10.9701 30.7273C11.3337 29.9394 11.3337 29.0303 11.0307 28.1818C10.7883 27.5758 10.3034 27.0303 9.69735 26.7273C8.90948 26.303 8.06099 26.2424 7.27311 26.5455C6.48523 26.7879 5.81857 27.394 5.51554 28.1212C5.45493 28.2424 5.45493 28.3637 5.51554 28.4849C5.57614 28.5455 5.63675 28.6667 5.81857 28.7273C6.00039 28.7879 6.1822 28.6667 6.30341 28.4849C6.66705 27.697 7.51554 27.1515 8.42463 27.2121C9.39432 27.2727 10.2428 27.9394 10.4852 28.9091C10.7883 30.1212 10.061 31.2727 8.90948 31.5758C8.36402 31.7576 7.93978 32.303 7.93978 33.0303V33.394C7.81857 33.5152 8.00038 33.697 8.1822 33.7576ZM8.24281 39.394C7.21251 39.394 6.36402 38.5455 6.36402 37.5152C6.36402 36.4849 7.21251 35.6364 8.24281 35.6364C9.27311 35.6364 10.1216 36.4849 10.1216 37.5152C10.1216 38.5455 9.27311 39.394 8.24281 39.394ZM8.24281 36.7879C7.87917 36.7879 7.57614 37.0909 7.57614 37.4546C7.57614 37.8182 7.87917 38.1212 8.24281 38.1212C8.60645 38.1212 8.90948 37.8182 8.90948 37.4546C8.90948 37.0909 8.60645 36.7879 8.24281 36.7879ZM33.3337 14C32.9701 14 32.7277 13.7576 32.7277 13.394V12.6667C32.7277 11.4546 33.2125 10.3637 34.1216 9.45456C34.9701 8.60608 35.4549 7.51517 35.4549 6.30305C35.4549 5.09093 34.9701 3.93941 34.061 3.09093C33.1519 2.24244 32.0004 1.8182 30.7883 1.87881C28.4852 2.00002 26.6671 3.87881 26.6064 6.12123C26.5458 7.39396 27.0307 8.60608 27.9398 9.45456C28.8489 10.303 29.3337 11.4546 29.3337 12.6667V13.4546C29.3337 13.8182 29.0913 14.0606 28.7277 14.0606C28.364 14.0606 28.1216 13.8182 28.1216 13.4546V12.6667C28.1216 11.8182 27.758 10.9697 27.0913 10.3637C25.9398 9.27275 25.3337 7.69699 25.3943 6.12123C25.5155 3.21214 27.8792 0.848503 30.7883 0.727291C32.364 0.666685 33.8186 1.21214 34.9701 2.30305C36.1216 3.39396 36.7277 4.8485 36.7277 6.36365C36.7277 7.87881 36.1216 9.33335 35.0307 10.3637C34.364 11.0303 34.0004 11.8788 34.0004 12.7273V13.4546C33.9398 13.7576 33.6367 14 33.3337 14Z" fill="#2C9CF0"/>
<path id="Vector_3" d="M33.2127 15.9394H28.8491C28.0612 15.9394 27.3945 15.2727 27.3945 14.4849V14.1818C27.3945 13.394 28.0612 12.7273 28.8491 12.7273H33.2127C34.0006 12.7273 34.6673 13.394 34.6673 14.1818V14.4849C34.6067 15.2727 34.0006 15.9394 33.2127 15.9394ZM28.8491 14C28.7279 14 28.6067 14.1212 28.6067 14.2424V14.5455C28.6067 14.6667 28.7279 14.7879 28.8491 14.7879H33.2127C33.3339 14.7879 33.4551 14.6667 33.4551 14.5455V14.2424C33.4551 14.1212 33.3339 14 33.2127 14H28.8491Z" fill="#2C9CF0"/>
<path id="Vector_4" d="M30.9701 17.9394C29.6368 17.9394 28.5459 16.9091 28.5459 15.5757V15.3333C28.5459 14.9697 28.7883 14.7273 29.152 14.7273C29.5156 14.7273 29.758 14.9697 29.758 15.3333V15.5757C29.758 16.1818 30.2429 16.7273 30.9095 16.7273C31.5762 16.7273 32.1217 16.2424 32.1217 15.5757V15.3333C32.1217 14.9697 32.3641 14.7273 32.7277 14.7273C33.0914 14.7273 33.3338 14.9697 33.3338 15.3333V15.5757C33.3338 16.9091 32.2429 17.9394 30.9701 17.9394ZM31.0307 14C30.6671 14 30.4247 13.7576 30.4247 13.3939V9.2121C30.4247 9.03028 30.4853 8.90907 30.6065 8.78786L31.8186 7.57574C32.0611 7.33331 32.4247 7.33331 32.6671 7.57574C32.9095 7.81816 32.9095 8.1818 32.6671 8.42422L31.6368 9.45453V13.3939C31.6368 13.7576 31.3338 14 31.0307 14Z" fill="#2C9CF0"/>
<path id="Vector_5" d="M31.0303 9.81818C30.8485 9.81818 30.7273 9.75758 30.606 9.63636L29.3939 8.42424C29.1515 8.18182 29.1515 7.81818 29.3939 7.57576C29.6363 7.33333 30 7.33333 30.2424 7.57576L31.4545 8.78788C31.6969 9.0303 31.6969 9.39394 31.4545 9.63636C31.3333 9.75758 31.2121 9.81818 31.0303 9.81818ZM12.0606 14.0606C10.8485 14.0606 9.87876 13.1515 9.75755 12L9.33331 7.0303C9.2727 6.24242 9.51513 5.51515 10.0606 4.90909C10.606 4.30303 11.3333 4 12.1212 4C12.9091 4 13.5757 4.24242 14.0606 4.84848C14.606 5.39394 14.8485 6.18182 14.7879 6.9697L14.3636 11.9394C14.2424 13.1515 13.2727 14.0606 12.0606 14.0606ZM12.0606 5.15152C11.6363 5.15152 11.2121 5.33333 10.9091 5.63636C10.606 5.93939 10.4848 6.36364 10.4848 6.78788L10.9091 11.7576C10.9697 12.303 11.4545 12.7273 12 12.7273C12.5454 12.7273 13.0303 12.303 13.0909 11.7576L13.5151 6.78788C13.5757 6.36364 13.3939 5.93939 13.0909 5.63636C12.9091 5.33333 12.4848 5.15152 12.0606 5.15152ZM12.0606 20.1818C10.8485 20.1818 9.81816 19.1515 9.81816 17.9394C9.81816 16.7273 10.8485 15.697 12.0606 15.697C13.2727 15.697 14.303 16.7273 14.303 17.9394C14.303 19.1515 13.2727 20.1818 12.0606 20.1818ZM12.0606 16.9091C11.5151 16.9091 11.0303 17.3939 11.0303 17.9394C11.0303 18.4848 11.5151 18.9697 12.0606 18.9697C12.606 18.9697 13.0909 18.4848 13.0909 17.9394C13.0909 17.3939 12.606 16.9091 12.0606 16.9091ZM27.4545 23.5152H19.5151C19.1515 23.5152 18.9091 23.2727 18.9091 22.9091C18.9091 22.5455 19.1515 22.303 19.5151 22.303H27.4545C27.8182 22.303 28.0606 22.5455 28.0606 22.9091C28.0606 23.2727 27.8182 23.5152 27.4545 23.5152ZM35.3939 26.7273H19.5151C19.1515 26.7273 18.9091 26.4849 18.9091 26.1212C18.9091 25.7576 19.1515 25.5152 19.5151 25.5152H35.3939C35.7576 25.5152 36 25.7576 36 26.1212C36 26.4849 35.7576 26.7273 35.3939 26.7273ZM35.3939 29.9394H19.5151C19.1515 29.9394 18.9091 29.697 18.9091 29.3333C18.9091 28.9697 19.1515 28.7273 19.5151 28.7273H35.3939C35.7576 28.7273 36 28.9697 36 29.3333C36 29.697 35.7576 29.9394 35.3939 29.9394ZM35.3939 33.0909H19.5151C19.1515 33.0909 18.9091 32.8485 18.9091 32.4849C18.9091 32.1212 19.1515 31.8788 19.5151 31.8788H35.3939C35.7576 31.8788 36 32.1212 36 32.4849C36 32.8485 35.7576 33.0909 35.3939 33.0909Z" fill="#2C9CF0"/>
</g>
</g>
<defs>
<clipPath id="clip0_1_2303">
<rect width="40" height="40" fill="white"/>
</clipPath>
</defs>
</svg>
