<svg width="24" height="24" viewBox="0 0 24 24" fill="none" xmlns="http://www.w3.org/2000/svg">
<g clip-path="url(#clip0_1_11427)">
<path d="M5.88776 22.6146H7.96831C9.17441 22.6146 9.17619 20.7354 7.96831 20.7354H5.88776C4.68172 20.7354 4.67994 22.6146 5.88776 22.6146ZM5.88776 21.4386H7.96831C8.27394 21.4386 8.27394 21.9114 7.96831 21.9114H5.88776C5.58219 21.9114 5.58219 21.4386 5.88776 21.4386ZM8.46978 12.0839L6.17952 14.3742L5.38634 13.581C5.06483 13.2597 4.56772 13.7567 4.88914 14.0782L5.93094 15.12C6.09669 15.2572 6.26244 15.2572 6.42814 15.12L8.96703 12.5811C9.28841 12.2596 8.7913 11.7626 8.46978 12.0839Z" fill="white"/>
<path d="M23.7385 15.5529C23.5966 15.282 23.4938 14.9852 23.4239 14.6873C23.0806 13.2521 22.5606 11.865 21.876 10.5577L20.7319 8.37398C20.0842 7.1377 18.1729 7.34325 17.8121 8.6992C16.9562 8.39128 15.99 8.89739 15.756 9.77639C15.0484 9.52177 14.2313 9.82167 13.8562 10.4724V1.37358C13.8561 0.616219 13.2399 0 12.4825 0H4.29248C3.83794 0 3.83794 0.703125 4.29248 0.703125H12.4825C12.8522 0.703125 13.153 1.00388 13.153 1.37358V2.40108H0.703125V1.37358C0.703125 1.00388 1.00388 0.703125 1.37358 0.703125H2.32378C2.77833 0.703125 2.77833 0 2.32378 0H1.37358C0.616219 0 0 0.616219 0 1.37358V22.6264C0 23.3838 0.616219 24 1.37358 24H12.4825C13.2399 24 13.8561 23.3838 13.8561 22.6264V18.2891L15.1124 18.9105C15.4242 19.0654 15.6766 19.3183 15.8309 19.6305C16.389 20.7646 17.8194 21.2348 18.943 20.6461L21.0376 19.5487C21.4403 19.3378 21.114 18.715 20.7113 18.9259L18.6167 20.0233C17.8387 20.4311 16.8496 20.1081 16.4618 19.32C16.241 18.8713 15.8725 18.502 15.4241 18.2802L10.0929 15.6432C9.09159 15.1568 9.81572 13.586 10.8326 14.0603L12.7684 15.0793C13.067 15.2365 13.4002 14.9041 13.2435 14.6051L9.88078 8.18644C9.32859 7.14834 10.8074 6.19012 11.3714 7.26694L13.7483 11.8039L14.3692 12.989C14.5741 13.3803 15.2024 13.0643 14.992 12.6627L14.3876 11.5089C14.1428 10.6933 15.1498 10.0356 15.798 10.6042L16.4706 11.8881C16.6755 12.2794 17.3038 11.9634 17.0934 11.5618L16.4095 10.2564C16.3455 9.50644 17.2639 9.02381 17.8444 9.51848L18.5214 10.8107C18.7263 11.2021 19.3546 10.8861 19.1442 10.4844L18.4671 9.192C18.375 8.27161 19.6704 7.863 20.109 8.70023L21.253 10.884C21.9107 12.1396 22.4102 13.472 22.74 14.8506C22.8199 15.2079 22.9457 15.5547 23.1157 15.8791C23.5208 16.6523 23.2212 17.6108 22.4481 18.0159C22.0455 18.227 22.3718 18.8498 22.7744 18.6388C23.891 18.0538 24.3235 16.6695 23.7385 15.5529ZM13.153 22.6264C13.153 22.9961 12.8522 23.2969 12.4825 23.2969H1.37358C1.00388 23.2969 0.703125 22.9961 0.703125 22.6264V20.0488H13.153V22.6264ZM9.03947 14.1748C8.80083 14.6765 8.84719 15.2773 9.15816 15.7374C8.57677 16.3458 7.77914 16.6905 6.92803 16.6905C5.22497 16.6905 3.83944 15.305 3.83944 13.602C3.83944 11.8989 5.22497 10.5134 6.92803 10.5134C8.54395 10.5134 9.87314 11.761 10.005 13.3434C9.58856 13.4705 9.22664 13.7812 9.03947 14.1748ZM11.5921 6.44831C11.4367 6.32226 11.2588 6.22695 11.0678 6.16748C9.94167 5.81559 8.80753 6.84825 9.05541 8.00147H2.38116C2.35008 8.00144 2.32029 7.98909 2.29832 7.96712C2.27635 7.94515 2.26399 7.91535 2.26397 7.88428V5.37187C2.26397 5.30723 2.31652 5.25469 2.38116 5.25469H11.4749C11.5395 5.25469 11.5921 5.30723 11.5921 5.37187V6.44831ZM13.153 9.15244L12.2952 7.51523V5.37187C12.2952 4.91958 11.9272 4.55156 11.4749 4.55156H2.38116C1.92886 4.55156 1.56084 4.91958 1.56084 5.37187V7.88433C1.56084 8.33663 1.92886 8.70464 2.38116 8.70464H9.35841L12.0967 13.9313L11.1533 13.4346C11.1491 13.4324 11.1449 13.4303 11.1406 13.4282C11.003 13.3627 10.8567 13.3173 10.7062 13.2936C10.5486 11.3467 8.91488 9.81023 6.92808 9.81023C4.83731 9.81023 3.13636 11.5112 3.13636 13.602C3.13636 15.6927 4.83731 17.3937 6.92808 17.3937C7.97667 17.3937 8.95992 16.9685 9.6742 16.2166C10.7895 16.8594 11.999 17.3705 13.153 17.9413V19.3456H0.703125V3.1042H13.153V9.15244Z" fill="white"/>
</g>
<defs>
<clipPath id="clip0_1_11427">
<rect width="24" height="24" fill="white"/>
</clipPath>
</defs>
</svg>
