<svg width="18" height="18" viewBox="0 0 18 18" fill="none" xmlns="http://www.w3.org/2000/svg">
<g id="phone_in_talk_FILL0_wght400_GRAD0_opsz48 1">
<path id="Vector" d="M14.55 8.8687C14.4875 7.3562 13.9313 6.07495 12.8813 5.02495C11.8313 3.97495 10.55 3.4187 9.0375 3.3562V2.2312C9.9375 2.2562 10.7844 2.44683 11.5781 2.80308C12.3719 3.15933 13.0688 3.63745 13.6688 4.23745C14.2688 4.83745 14.7469 5.53433 15.1031 6.32808C15.4594 7.12183 15.65 7.9687 15.675 8.8687H14.55ZM11.3813 8.8687C11.3188 8.2437 11.0688 7.71558 10.6313 7.28433C10.1938 6.85308 9.6625 6.6062 9.0375 6.5437V5.4187C9.975 5.4812 10.7719 5.83745 11.4281 6.48745C12.0844 7.13745 12.4438 7.9312 12.5063 8.8687H11.3813ZM14.9063 15.75C13.3813 15.75 11.8656 15.375 10.3594 14.625C8.85313 13.875 7.5 12.9 6.3 11.7C5.1 10.5 4.125 9.14683 3.375 7.64058C2.625 6.13433 2.25 4.6187 2.25 3.0937C2.25 2.85263 2.33036 2.65173 2.49107 2.49102C2.65178 2.33031 2.85268 2.24995 3.09375 2.24995H5.71875C5.88889 2.24995 6.0408 2.30933 6.17449 2.42808C6.30816 2.54683 6.39375 2.7062 6.43125 2.9062L6.9375 5.2687C6.9625 5.4437 6.95938 5.60308 6.92813 5.74683C6.89688 5.89058 6.83125 6.01245 6.73125 6.11245L4.85625 8.0062C5.55625 9.1687 6.34063 10.1812 7.20938 11.0437C8.07812 11.9062 9.0625 12.6375 10.1625 13.2375L11.9438 11.4C12.0688 11.2625 12.2125 11.1656 12.375 11.1093C12.5375 11.0531 12.7 11.0437 12.8625 11.0812L15.0938 11.5687C15.2852 11.6109 15.4424 11.7058 15.5654 11.8535C15.6885 12.0011 15.75 12.175 15.75 12.375V14.9062C15.75 15.1473 15.6696 15.3482 15.5089 15.5089C15.3482 15.6696 15.1473 15.75 14.9063 15.75ZM4.29375 6.97495L5.8125 5.43745L5.38125 3.37495H3.375C3.375 3.86245 3.45 4.39683 3.6 4.97808C3.75 5.55933 3.98125 6.22495 4.29375 6.97495ZM11.2125 13.7812C11.725 14.0187 12.2812 14.2125 12.8813 14.3625C13.4813 14.5125 14.0625 14.6 14.625 14.625V12.6187L12.6938 12.225L11.2125 13.7812Z" fill="#2C9CF0"/>
</g>
</svg>
