<svg width="32" height="32" viewBox="0 0 32 32" fill="none" xmlns="http://www.w3.org/2000/svg">
<path fill-rule="evenodd" clip-rule="evenodd" d="M16.5176 2.66663C23.5954 2.66663 29.333 8.27755 29.333 15.199C29.333 22.1204 23.5954 27.7313 16.5176 27.7313C13.4904 27.7313 10.7084 26.7049 8.51552 24.9885L4.34994 29.0515L4.23912 29.1448C3.85238 29.4247 3.30411 29.3928 2.95418 29.0497C2.56925 28.6723 2.57006 28.0612 2.95599 27.6848L7.07261 23.6695C4.97969 21.439 3.70223 18.4649 3.70223 15.199C3.70223 8.27755 9.43988 2.66663 16.5176 2.66663ZM16.5179 4.59692C10.5303 4.59692 5.67643 9.34361 5.67643 15.199C5.67643 21.0543 10.5303 25.801 16.5179 25.801C22.5055 25.801 27.3594 21.0543 27.3594 15.199C27.3594 9.34361 22.5055 4.59692 16.5179 4.59692Z" fill="white"/>
</svg>
