<svg width="24" height="24" viewBox="0 0 24 24" fill="none" xmlns="http://www.w3.org/2000/svg">
<g id="social media logo">
<rect width="24" height="24" rx="9" fill="#2C9CF0"/>
<path id="Ellipse 451" d="M16.5469 11.1641C16.5469 7.88487 13.8886 5.22656 10.6094 5.22656C7.33018 5.22656 4.67188 7.88487 4.67188 11.1641C4.67188 12.2457 4.96113 13.2599 5.4665 14.1333L4.67187 17.1016L7.64025 16.307C8.51366 16.8123 9.52774 17.1016 10.6094 17.1016C11.2573 17.1016 11.8811 16.9978 12.4648 16.8059" stroke="white" stroke-width="1.125" stroke-linejoin="round"/>
<path id="Ellipse 452" d="M19.5156 14.875C19.5156 15.5511 19.3348 16.1849 19.019 16.7308L19.1445 18.2148L17.6603 18.0894C17.1144 18.4052 16.4807 18.5859 15.8047 18.5859C13.7552 18.5859 12.0938 16.9245 12.0938 14.875C12.0938 12.8255 13.7552 11.1641 15.8047 11.1641C17.8542 11.1641 19.5156 12.8255 19.5156 14.875Z" stroke="white" stroke-width="1.125" stroke-linejoin="round"/>
</g>
</svg>
