<svg width="24" height="24" viewBox="0 0 24 24" fill="none" xmlns="http://www.w3.org/2000/svg">
<g id="svgexport-7 (5) 1">
<g id="Group">
<g id="Layer 2">
<path id="Vector" d="M20 21.3601H4C3.27065 21.3601 2.57118 21.0704 2.05546 20.5546C1.53973 20.0389 1.25 19.3394 1.25 18.6101V4.6001C1.25 3.87075 1.53973 3.17128 2.05546 2.65555C2.57118 2.13983 3.27065 1.8501 4 1.8501H20C20.7293 1.8501 21.4288 2.13983 21.9445 2.65555C22.4603 3.17128 22.75 3.87075 22.75 4.6001V18.6001C22.7513 18.9621 22.6812 19.3207 22.5435 19.6555C22.4059 19.9903 22.2036 20.2947 21.9481 20.5511C21.6926 20.8075 21.389 21.011 21.0547 21.1498C20.7204 21.2886 20.362 21.3601 20 21.3601ZM4 3.3501C3.66848 3.3501 3.35054 3.48179 3.11612 3.71621C2.8817 3.95063 2.75 4.26858 2.75 4.6001V18.6001C2.74999 18.9325 2.88137 19.2515 3.1155 19.4875C3.34964 19.7235 3.66756 19.8575 4 19.8601H20C20.3307 19.8575 20.6471 19.7249 20.881 19.4911C21.1149 19.2572 21.2474 18.9408 21.25 18.6101V4.6001C21.25 4.26858 21.1183 3.95063 20.8839 3.71621C20.6495 3.48179 20.3315 3.3501 20 3.3501H4Z" fill="#2F2F2F"/>
<path id="Vector_2" d="M11.9998 14.2502C11.8017 14.2476 11.6124 14.1677 11.4723 14.0276C11.3322 13.8875 11.2524 13.6983 11.2498 13.5002V12.8002C11.2428 12.3599 11.3664 11.9274 11.6049 11.5573C11.8433 11.1871 12.186 10.8958 12.5898 10.7201C12.8979 10.5945 13.157 10.3724 13.3284 10.0872C13.4997 9.80194 13.574 9.46888 13.5403 9.13786C13.5065 8.80683 13.3664 8.49565 13.141 8.2509C12.9156 8.00615 12.6169 7.84099 12.2898 7.78015C12.0639 7.7329 11.8301 7.73807 11.6065 7.79528C11.3828 7.85249 11.1753 7.9602 10.9998 8.11015C10.8285 8.25562 10.6907 8.43637 10.5958 8.64003C10.5009 8.84369 10.4511 9.06546 10.4498 9.29015C10.4498 9.48906 10.3708 9.67983 10.2301 9.82048C10.0895 9.96113 9.89871 10.0401 9.69979 10.0401C9.50088 10.0401 9.31012 9.96113 9.16946 9.82048C9.02881 9.67983 8.94979 9.48906 8.94979 9.29015C8.94101 8.84123 9.0331 8.39607 9.21928 7.98749C9.40546 7.57891 9.68098 7.21733 10.0255 6.92941C10.3701 6.6415 10.7748 6.43459 11.21 6.32395C11.6451 6.21331 12.0996 6.20176 12.5398 6.29015C13.2112 6.37481 13.8343 6.68399 14.3078 7.16747C14.7813 7.65094 15.0774 8.2803 15.1481 8.95333C15.2187 9.62635 15.0598 10.3035 14.697 10.8748C14.3342 11.446 13.789 11.8779 13.1498 12.1002C13.0223 12.1635 12.9158 12.2623 12.8431 12.3847C12.7704 12.5071 12.7345 12.6479 12.7398 12.7902V13.4901C12.7399 13.6883 12.6625 13.8786 12.5243 14.0206C12.3861 14.1626 12.1979 14.2449 11.9998 14.2502Z" fill="#2F2F2F"/>
<path id="Vector_3" d="M12 17C12.5523 17 13 16.5523 13 16C13 15.4477 12.5523 15 12 15C11.4477 15 11 15.4477 11 16C11 16.5523 11.4477 17 12 17Z" fill="#2F2F2F"/>
</g>
</g>
</g>
</svg>
