<svg width="24" height="24" viewBox="0 0 24 24" fill="none" xmlns="http://www.w3.org/2000/svg">
<path d="M17.2451 16.2851L16.5001 14.8201C16.47 14.7595 16.4278 14.7056 16.3763 14.6618C16.3247 14.618 16.2648 14.585 16.2001 14.5651C16.0543 14.5206 15.9025 14.4987 15.7501 14.5001C15.3178 14.5001 14.9032 14.6718 14.5975 14.9775C14.2918 15.2832 14.1201 15.6978 14.1201 16.1301C14.1201 16.9018 14.2723 17.6659 14.5679 18.3787C14.8635 19.0916 15.2968 19.7391 15.8429 20.2843C16.3891 20.8295 17.0374 21.2617 17.7507 21.5561C18.464 21.8505 19.2284 22.0014 20.0001 22.0001C20.2532 22.0016 20.5032 21.944 20.7301 21.8319C20.9571 21.7197 21.1546 21.5561 21.3071 21.3541C21.4596 21.152 21.5628 20.9172 21.6085 20.6682C21.6541 20.4192 21.641 20.1631 21.5701 19.9201C21.5502 19.854 21.5168 19.7929 21.472 19.7404C21.4273 19.6879 21.3721 19.6452 21.3101 19.6151L19.8501 18.8851C19.7558 18.8376 19.6489 18.8213 19.5447 18.8383C19.4405 18.8554 19.3444 18.905 19.2701 18.9801L18.8601 19.3901C18.3707 19.2191 17.9261 18.9403 17.5591 18.5742C17.1921 18.2081 16.9122 17.7641 16.7401 17.2751L17.1551 16.8601C17.2283 16.7856 17.2763 16.6901 17.2924 16.587C17.3085 16.4839 17.292 16.3783 17.2451 16.2851ZM16.8501 19.2851C17.3968 19.8342 18.0777 20.2306 18.8251 20.4351H18.9051C18.9854 20.4511 19.0685 20.4472 19.147 20.4237C19.2254 20.4002 19.2969 20.3577 19.3551 20.3001L19.7251 19.9301L20.6301 20.3851C20.6262 20.5495 20.5581 20.7059 20.4404 20.8209C20.3226 20.9358 20.1646 21.0001 20.0001 21.0001C19.3608 21.0001 18.7278 20.8741 18.1372 20.6293C17.5466 20.3845 17.0101 20.0257 16.5583 19.5734C16.1065 19.1211 15.7482 18.5842 15.504 17.9933C15.2598 17.4025 15.1345 16.7694 15.1351 16.1301C15.1349 15.968 15.1972 15.8122 15.3089 15.6949C15.4206 15.5775 15.5733 15.5078 15.7351 15.5001L16.1901 16.4101L15.8201 16.7801C15.7617 16.8388 15.7188 16.9111 15.6952 16.9905C15.6716 17.0699 15.6682 17.154 15.6851 17.2351C15.6835 17.2584 15.6835 17.2818 15.6851 17.3051C15.8923 18.0547 16.2942 18.7361 16.8501 19.2801V19.2851Z" fill="white"/>
<path d="M2.36524 19.7901C2.3649 20.0456 2.37826 20.301 2.40524 20.5551C2.41884 20.6779 2.47746 20.7914 2.56979 20.8736C2.66213 20.9557 2.78163 21.0008 2.90524 21.0001H13.1352C13.2678 21.0001 13.395 20.9474 13.4888 20.8536C13.5826 20.7598 13.6352 20.6327 13.6352 20.5001C13.6352 20.3675 13.5826 20.2403 13.4888 20.1465C13.395 20.0527 13.2678 20.0001 13.1352 20.0001H3.37024V19.7901C3.37288 17.6015 4.24244 15.503 5.78861 13.954C7.33479 12.405 9.43164 11.5317 11.6202 11.5251H11.6452C13.7919 11.5224 15.8541 12.3606 17.3902 13.8601C17.4857 13.9522 17.6139 14.0027 17.7466 14.0003C17.8793 13.998 18.0056 13.943 18.0977 13.8476C18.1899 13.7521 18.2404 13.6239 18.238 13.4912C18.2357 13.3585 18.1807 13.2322 18.0852 13.1401C16.9666 12.0524 15.5904 11.2662 14.0852 10.8551C14.9846 10.3234 15.6842 9.51088 16.0765 8.54261C16.4688 7.57434 16.532 6.50397 16.2564 5.49625C15.9808 4.48853 15.3817 3.59932 14.5512 2.96547C13.7207 2.33163 12.705 1.98828 11.6602 1.98828C10.6155 1.98828 9.59974 2.33163 8.76926 2.96547C7.93879 3.59932 7.33964 4.48853 7.06404 5.49625C6.78843 6.50397 6.85165 7.57434 7.24396 8.54261C7.63627 9.51088 8.33593 10.3234 9.23524 10.8551C7.26827 11.384 5.52997 12.5454 4.28843 14.1601C3.04689 15.7749 2.37108 17.7532 2.36524 19.7901ZM7.86524 6.79006C7.86425 6.04563 8.08398 5.31761 8.49664 4.69802C8.9093 4.07843 9.49638 3.59508 10.1837 3.30906C10.871 3.02304 11.6276 2.94718 12.358 3.09108C13.0884 3.23498 13.7597 3.59218 14.2872 4.11752C14.8146 4.64287 15.1745 5.31278 15.3213 6.0426C15.4681 6.77241 15.3953 7.52936 15.112 8.21779C14.8287 8.90622 14.3477 9.49521 13.7297 9.91034C13.1118 10.3255 12.3847 10.5481 11.6402 10.5501H11.6152C11.1208 10.5474 10.6317 10.4475 10.176 10.2558C9.72016 10.0642 9.30658 9.78466 8.95883 9.43319C8.61107 9.08172 8.33595 8.66519 8.14917 8.2074C7.96239 7.7496 7.86761 7.25949 7.87024 6.76506L7.86524 6.79006Z" fill="white"/>
</svg>
