<svg width="24" height="24" viewBox="0 0 24 24" fill="none" xmlns="http://www.w3.org/2000/svg">
<path d="M17.2451 16.2849L16.5001 14.8199C16.47 14.7593 16.4278 14.7055 16.3763 14.6617C16.3247 14.6178 16.2648 14.5849 16.2001 14.5649C16.0543 14.5205 15.9025 14.4986 15.7501 14.4999C15.3178 14.4999 14.9032 14.6717 14.5975 14.9774C14.2918 15.283 14.1201 15.6976 14.1201 16.1299C14.1201 16.9016 14.2723 17.6658 14.5679 18.3786C14.8635 19.0914 15.2968 19.739 15.8429 20.2842C16.3891 20.8294 17.0374 21.2616 17.7507 21.556C18.464 21.8504 19.2284 22.0012 20.0001 21.9999C20.2532 22.0015 20.5032 21.9439 20.7301 21.8317C20.9571 21.7196 21.1546 21.556 21.3071 21.354C21.4596 21.1519 21.5628 20.9171 21.6085 20.6681C21.6541 20.4191 21.641 20.1629 21.5701 19.9199C21.5502 19.8539 21.5168 19.7927 21.472 19.7402C21.4273 19.6878 21.3721 19.6451 21.3101 19.6149L19.8501 18.8849C19.7558 18.8375 19.6489 18.8212 19.5447 18.8382C19.4405 18.8553 19.3444 18.9049 19.2701 18.9799L18.8601 19.3899C18.3707 19.219 17.9261 18.9402 17.5591 18.5741C17.1921 18.2079 16.9122 17.7639 16.7401 17.2749L17.1551 16.8599C17.2283 16.7855 17.2763 16.69 17.2924 16.5869C17.3085 16.4838 17.292 16.3782 17.2451 16.2849ZM16.8501 19.2849C17.3968 19.834 18.0777 20.2305 18.8251 20.4349H18.9051C18.9854 20.451 19.0685 20.4471 19.147 20.4236C19.2254 20.4 19.2969 20.3576 19.3551 20.2999L19.7251 19.9299L20.6301 20.3849C20.6262 20.5494 20.5581 20.7058 20.4404 20.8207C20.3226 20.9357 20.1646 21 20.0001 20.9999C19.3608 20.9999 18.7278 20.8739 18.1372 20.6291C17.5466 20.3843 17.0101 20.0255 16.5583 19.5732C16.1065 19.121 15.7482 18.5841 15.504 17.9932C15.2598 17.4024 15.1345 16.7692 15.1351 16.1299C15.1349 15.9679 15.1972 15.8121 15.3089 15.6947C15.4206 15.5774 15.5733 15.5076 15.7351 15.4999L16.1901 16.4099L15.8201 16.7799C15.7617 16.8387 15.7188 16.911 15.6952 16.9904C15.6716 17.0698 15.6682 17.1538 15.6851 17.2349C15.6835 17.2582 15.6835 17.2816 15.6851 17.3049C15.8923 18.0546 16.2942 18.736 16.8501 19.2799V19.2849Z" fill="#2C9CF0"/>
<path d="M2.34024 19.7899L2.34024 19.7899L2.90524 20.9999V21.0249H2.90539H13.1352C13.2745 21.0249 13.408 20.9696 13.5065 20.8712C13.6049 20.7727 13.6602 20.6392 13.6602 20.4999C13.6602 20.3607 13.6049 20.2272 13.5065 20.1287C13.408 20.0303 13.2745 19.9749 13.1352 19.9749H3.39524V19.79C3.39787 17.608 4.2648 15.5159 5.80631 13.9716C7.34781 12.4273 9.43833 11.5565 11.6203 11.5499H11.6452H11.6453C13.7854 11.5473 15.8414 12.3829 17.3728 13.8778L17.3729 13.8779C17.4731 13.9747 17.6077 14.0277 17.747 14.0252C17.8863 14.0228 18.019 13.965 18.1157 13.8648C18.2125 13.7646 18.2655 13.63 18.263 13.4907C18.2606 13.3514 18.2029 13.2188 18.1027 13.122C16.995 12.045 15.6353 11.2627 14.1481 10.8464C15.028 10.3116 15.7126 9.50715 16.0997 8.55187C16.4941 7.57852 16.5576 6.50254 16.2806 5.48954C16.0035 4.47653 15.4012 3.58265 14.5664 2.94548C13.7316 2.30831 12.7104 1.96316 11.6602 1.96316C10.61 1.96316 9.58893 2.30831 8.7541 2.94548C7.91926 3.58265 7.31697 4.47653 7.03992 5.48954C6.76287 6.50254 6.82642 7.57852 7.22079 8.55187C7.60779 9.50705 8.29233 10.3114 9.17209 10.8462C7.22311 11.3835 5.50156 12.5412 4.26861 14.1448C3.02372 15.7639 2.3461 17.7475 2.34024 19.7899ZM7.89524 6.76507L7.89029 6.76457C7.89427 6.03391 8.11221 5.3202 8.51745 4.71176C8.92737 4.09628 9.51055 3.61614 10.1933 3.33202C10.876 3.0479 11.6276 2.97255 12.3532 3.11549C13.0787 3.25843 13.7456 3.61326 14.2695 4.13511C14.7935 4.65697 15.151 5.32244 15.2968 6.0474C15.4426 6.77237 15.3703 7.5243 15.0889 8.20816C14.8075 8.89201 14.3296 9.4771 13.7158 9.88946C13.102 10.3018 12.3797 10.523 11.6402 10.5249H11.6154C11.1242 10.5223 10.6384 10.423 10.1856 10.2327C9.73288 10.0423 9.32204 9.76462 8.9766 9.41549C8.63115 9.06635 8.35785 8.65259 8.17231 8.19783C7.98677 7.74307 7.89262 7.25622 7.89524 6.76507Z" fill="#2C9CF0" stroke="#2C9CF0" stroke-width="0.05"/>
</svg>
