<svg width="18" height="18" viewBox="0 0 18 18" fill="none" xmlns="http://www.w3.org/2000/svg">
<g clip-path="url(#clip0_1_5879)">
<mask id="mask0_1_5879" style="mask-type:luminance" maskUnits="userSpaceOnUse" x="0" y="0" width="18" height="18">
<path fill-rule="evenodd" clip-rule="evenodd" d="M0 0H18V18H0V0Z" fill="white"/>
</mask>
<g mask="url(#mask0_1_5879)">
<path fill-rule="evenodd" clip-rule="evenodd" d="M2.64446 4.03195L2.57246 3.88739C2.53966 3.82104 2.49397 3.7619 2.43805 3.71341C2.38213 3.66493 2.3171 3.62808 2.24677 3.60502C2.17676 3.58145 2.10276 3.57204 2.02907 3.57736C1.95539 3.58267 1.8835 3.60259 1.81759 3.63595C1.75079 3.66796 1.69127 3.71333 1.6427 3.76925C1.59413 3.82517 1.55755 3.89046 1.53521 3.96108C1.51081 4.03094 1.50097 4.10506 1.50629 4.17887C1.51161 4.25268 1.53198 4.32462 1.56615 4.39027L2.30865 5.87639C2.34145 5.94274 2.38714 6.00189 2.44306 6.05037C2.49898 6.09885 2.56401 6.1357 2.63434 6.15877C2.71548 6.18612 2.80184 6.19442 2.88671 6.183C2.97158 6.17159 3.05268 6.14078 3.12371 6.09295L6.49871 3.84295C6.5605 3.80227 6.61357 3.74968 6.65481 3.68825C6.69605 3.62683 6.72464 3.5578 6.7389 3.4852C6.75357 3.41284 6.75371 3.33828 6.73932 3.26586C6.72493 3.19344 6.6963 3.12459 6.65509 3.06333C6.61504 3.00097 6.56263 2.94748 6.50109 2.90617C6.43956 2.86486 6.37022 2.8366 6.29734 2.82314C6.22502 2.8076 6.15029 2.80702 6.07773 2.82143C6.00518 2.83584 5.93635 2.86495 5.87546 2.90695L4.7814 3.63539L3.03034 4.8037L2.64446 4.03195ZM8.99959 3.37495C8.84434 3.37495 8.71159 3.43008 8.6019 3.53977C8.49221 3.64945 8.43709 3.78164 8.43709 3.93745C8.43709 4.09327 8.49221 4.22545 8.6019 4.33514C8.65342 4.38831 8.71529 4.43036 8.78369 4.4587C8.85208 4.48705 8.92556 4.50109 8.99959 4.49995H16.8746C16.9486 4.50109 17.0221 4.48705 17.0905 4.4587C17.1589 4.43036 17.2207 4.38831 17.2723 4.33514C17.382 4.22545 17.4371 4.09327 17.4371 3.93745C17.4371 3.78164 17.382 3.64945 17.2723 3.53977C17.1626 3.43008 17.0304 3.37495 16.8746 3.37495H8.99959ZM2.65627 8.53195L2.58371 8.38739C2.55161 8.32072 2.50621 8.26132 2.4503 8.21286C2.39438 8.16439 2.32914 8.12788 2.25859 8.10558C2.18877 8.08106 2.11466 8.0711 2.04085 8.07633C1.96703 8.08155 1.89507 8.10184 1.8294 8.13595C1.76311 8.16869 1.70399 8.2143 1.65551 8.27012C1.60703 8.32594 1.57015 8.39085 1.54702 8.46108C1.52346 8.53109 1.51405 8.6051 1.51936 8.67878C1.52468 8.75247 1.5446 8.82436 1.57796 8.89027L2.32046 10.3764C2.35253 10.4432 2.39799 10.5028 2.45401 10.5514C2.51003 10.5999 2.57543 10.6365 2.64615 10.6588C2.72711 10.6873 2.81369 10.6962 2.89876 10.6848C2.98384 10.6734 3.06499 10.6419 3.13552 10.593L6.51052 8.34295C6.57278 8.30285 6.62616 8.25041 6.66737 8.18888C6.70858 8.12736 6.73675 8.05804 6.75015 7.9852C6.76577 7.91292 6.76645 7.83821 6.75213 7.76566C6.73781 7.69311 6.70881 7.62426 6.6669 7.56333C6.62687 7.50095 6.57447 7.44745 6.51294 7.40613C6.4514 7.36482 6.38204 7.33657 6.30915 7.32314C6.23683 7.3076 6.1621 7.30702 6.08955 7.32143C6.01699 7.33584 5.94816 7.36495 5.88727 7.40695L3.04159 9.30371L2.65627 8.53195ZM8.99959 8.43745C8.84434 8.43745 8.71159 8.49258 8.6019 8.60227C8.49221 8.71195 8.43709 8.84414 8.43709 8.99995C8.43709 9.15577 8.49221 9.28796 8.6019 9.39764C8.71159 9.50733 8.84377 9.56245 8.99959 9.56245H16.8746C17.0298 9.56245 17.1626 9.50733 17.2723 9.39764C17.382 9.28796 17.4371 9.15577 17.4371 8.99995C17.4371 8.84414 17.382 8.71195 17.2723 8.60227C17.1626 8.49258 17.0304 8.43745 16.8746 8.43745H8.99959ZM2.65627 13.032L2.58371 12.8874C2.55164 12.8207 2.50625 12.7613 2.45033 12.7128C2.39441 12.6644 2.32916 12.6279 2.25859 12.6056C2.18877 12.5811 2.11466 12.5711 2.04085 12.5763C1.96703 12.5816 1.89507 12.6018 1.8294 12.636C1.76311 12.6687 1.70399 12.7143 1.65551 12.7701C1.60703 12.8259 1.57015 12.8909 1.54702 12.9611C1.52346 13.0311 1.51405 13.1051 1.51936 13.1788C1.52468 13.2525 1.5446 13.3244 1.57796 13.3903L2.32046 14.8764C2.35253 14.9432 2.39799 15.0028 2.45401 15.0514C2.51003 15.0999 2.57543 15.1365 2.64615 15.1588C2.72711 15.1873 2.81369 15.1962 2.89876 15.1848C2.98384 15.1734 3.06499 15.1419 3.13552 15.093L6.51052 12.843C6.57221 12.8022 6.62517 12.7496 6.66631 12.6882C6.70745 12.6268 6.73595 12.5578 6.75015 12.4852C6.7649 12.4129 6.76513 12.3383 6.75084 12.2659C6.73655 12.1935 6.70802 12.1246 6.6669 12.0633C6.62687 12.0009 6.57447 11.9474 6.51294 11.9061C6.4514 11.8648 6.38204 11.8366 6.30915 11.8231C6.23683 11.8076 6.1621 11.807 6.08955 11.8214C6.01699 11.8358 5.94816 11.8649 5.88727 11.907L4.79377 12.6354L3.04215 13.8037L2.65627 13.032ZM8.99959 13.5C8.84434 13.5 8.71159 13.5551 8.6019 13.6648C8.49221 13.7745 8.43709 13.9066 8.43709 14.0625C8.43709 14.2183 8.49221 14.3505 8.6019 14.4601C8.71159 14.5698 8.84377 14.625 8.99959 14.625H16.8746C17.0298 14.625 17.1626 14.5698 17.2723 14.4601C17.382 14.3505 17.4371 14.2183 17.4371 14.0625C17.4371 13.9066 17.382 13.7745 17.2723 13.6648C17.1626 13.5551 17.0304 13.5 16.8746 13.5H8.99959Z" fill="#2C9CF0"/>
</g>
</g>
<defs>
<clipPath id="clip0_1_5879">
<rect width="18" height="18" fill="white"/>
</clipPath>
</defs>
</svg>
