<svg width="25" height="24" viewBox="0 0 25 24" fill="none" xmlns="http://www.w3.org/2000/svg">
<g clip-path="url(#clip0_1_10956)">
<path d="M4.99769 0C3.80457 0 2.66032 0.473966 1.81665 1.31763C0.972989 2.16129 0.499023 3.30555 0.499023 4.49867C0.499023 5.69179 0.972989 6.83605 1.81665 7.67971C2.66032 8.52338 3.80457 8.99734 4.99769 8.99734C6.19082 8.99734 7.33507 8.52338 8.17874 7.67971C9.0224 6.83605 9.49637 5.69179 9.49637 4.49867C9.49637 3.30555 9.0224 2.16129 8.17874 1.31763C7.33507 0.473966 6.19082 0 4.99769 0ZM19.9989 0C18.8058 0 17.6616 0.473966 16.8179 1.31763C15.9742 2.16129 15.5003 3.30555 15.5003 4.49867C15.5003 5.69179 15.9742 6.83605 16.8179 7.67971C17.6616 8.52338 18.8058 8.99734 19.9989 8.99734C21.1921 8.99734 22.3363 8.52338 23.18 7.67971C24.0236 6.83605 24.4976 5.69179 24.4976 4.49867C24.4976 3.30555 24.0236 2.16129 23.18 1.31763C22.3363 0.473966 21.1921 0 19.9989 0ZM4.99769 0.751196C5.99198 0.751195 6.9456 1.14588 7.64906 1.84855C8.35253 2.55121 8.7483 3.50439 8.74942 4.49867C8.74718 5.49287 8.35114 6.44568 7.648 7.14856C6.94486 7.85143 5.99189 8.24711 4.99769 8.24898C4.00343 8.24898 3.04988 7.85401 2.34683 7.15096C1.64377 6.4479 1.2488 5.49436 1.2488 4.50009C1.2488 3.50582 1.64377 2.55227 2.34683 1.84922C3.04988 1.14617 4.00343 0.751196 4.99769 0.751196ZM19.9989 0.751196C20.9932 0.751195 21.9468 1.14588 22.6503 1.84855C23.3538 2.55121 23.7495 3.50439 23.7507 4.49867C23.7484 5.49287 23.3524 6.44568 22.6492 7.14856C21.9461 7.85143 20.9931 8.24711 19.9989 8.24898C19.0047 8.24898 18.0511 7.85401 17.3481 7.15096C16.645 6.4479 16.25 5.49436 16.25 4.50009C16.25 3.50582 16.645 2.55227 17.3481 1.84922C18.0511 1.14617 19.0047 0.751196 19.9989 0.751196ZM4.99911 1.31247C4.81486 1.31247 4.62351 1.43436 4.62351 1.68665V2.04524C4.259 2.12368 3.93219 2.3242 3.69714 2.61363C3.46208 2.90307 3.33288 3.26407 3.33089 3.63692C3.33089 4.18969 3.61011 4.50576 3.9446 4.66875C4.28052 4.83317 4.63769 4.85726 4.96084 4.88986C5.284 4.92388 5.57597 4.96781 5.72621 5.0401C5.81692 5.09254 5.91897 5.14215 5.91897 5.39727C5.91897 5.87634 5.52495 6.27603 5.01329 6.28028C4.58525 6.27178 4.24792 6.00815 4.10618 5.53901C3.94035 5.06703 3.25294 5.2853 3.389 5.76578C3.62995 6.51273 4.13311 6.85714 4.6221 6.9847V7.31353C4.6221 7.82094 5.37329 7.80252 5.37329 7.31353V6.98754C5.73749 6.90852 6.06404 6.70813 6.29942 6.41919C6.53479 6.13025 6.66502 5.76992 6.66875 5.39727C6.66875 4.85159 6.38953 4.53269 6.05504 4.36827C5.71913 4.20386 5.36195 4.17977 5.0388 4.14575C4.71564 4.11315 4.42367 4.0678 4.27343 3.99409C4.16287 3.94023 4.08067 3.86653 4.08067 3.63692C4.08067 3.14935 4.47469 2.76667 4.98636 2.76242C5.44558 2.77942 5.74464 3.02179 5.89346 3.4966C6.05362 3.95866 6.73962 3.76165 6.61064 3.26983C6.42638 2.68446 6.02953 2.22099 5.37329 2.05374V1.68665C5.37329 1.43861 5.18337 1.31388 4.99911 1.31247ZM20.0004 1.31247C19.8161 1.31247 19.6248 1.43436 19.6248 1.68665V2.04524C19.2602 2.12368 18.9334 2.3242 18.6984 2.61363C18.4633 2.90307 18.3341 3.26407 18.3321 3.63692C18.3321 4.18969 18.6113 4.50576 18.9458 4.66875C19.2818 4.83317 19.6389 4.85726 19.9621 4.88986C20.2852 4.92388 20.5758 4.96781 20.726 5.0401C20.8182 5.09254 20.9202 5.14215 20.9202 5.39727C20.9202 5.87634 20.5262 6.27603 20.0145 6.28028C19.5865 6.27178 19.2492 6.00815 19.1074 5.53901C18.9416 5.06703 18.2542 5.2853 18.3902 5.76578C18.6312 6.51273 19.1329 6.85714 19.6233 6.9847V7.31353C19.6233 7.82094 20.3745 7.80252 20.3745 7.31353V6.98754C20.7387 6.90852 21.0653 6.70813 21.3007 6.41919C21.536 6.13025 21.6663 5.76992 21.67 5.39727C21.67 4.85159 21.3908 4.53269 21.0549 4.36827C20.7204 4.20386 20.3632 4.17977 20.04 4.14575C19.7169 4.11315 19.4249 4.0678 19.2747 3.99409C19.1641 3.94023 19.0819 3.86653 19.0819 3.63692C19.0819 3.14935 19.4759 2.76667 19.9876 2.76242C20.4468 2.77942 20.7445 3.02179 20.8947 3.4966C21.0549 3.95866 21.7394 3.76165 21.6119 3.26983C21.4276 2.68446 21.0308 2.22099 20.3745 2.05374V1.68665C20.3745 1.43861 20.1846 1.31388 20.0004 1.31247ZM13.1744 3.08132L13.4664 3.37471H10.6274C10.1257 3.37471 10.1257 4.12591 10.6274 4.12591H14.3749C14.4491 4.12597 14.5217 4.10403 14.5835 4.06285C14.6453 4.02168 14.6935 3.96311 14.722 3.89455C14.7505 3.826 14.7581 3.75053 14.7437 3.67768C14.7294 3.60483 14.6937 3.53787 14.6414 3.48527L13.7031 2.54981C13.3473 2.19548 12.8229 2.72982 13.1744 3.08132ZM10.6274 4.87569C10.5529 4.87534 10.4799 4.89718 10.4178 4.93842C10.3557 4.97967 10.3073 5.03846 10.2787 5.10731C10.2502 5.17616 10.2427 5.25195 10.2574 5.32504C10.272 5.39813 10.3081 5.46521 10.3609 5.51775L11.2893 6.43902C11.6592 6.80754 12.1908 6.27461 11.8194 5.90752L11.5359 5.62405H14.3749C14.878 5.62405 14.878 4.87569 14.3749 4.87569H10.6274ZM19.8331 10.0915L18.1153 11.078C17.6334 11.353 17.4279 11.9568 17.7057 12.4358L17.751 12.5124C16.9701 12.7902 16.1593 12.725 15.5669 12.6258C14.5477 12.4513 13.5093 12.4193 12.4813 12.5308C11.7259 12.613 10.5254 12.854 9.99102 13.5229L7.58719 13.0481L7.62121 12.9886C7.68977 12.8715 7.73439 12.7419 7.75247 12.6074C7.77054 12.4729 7.76172 12.3361 7.72652 12.2051C7.69131 12.074 7.63042 11.9512 7.54738 11.8439C7.46434 11.7365 7.3608 11.6468 7.24278 11.5798L5.52637 10.5947C5.28822 10.4576 5.0055 10.4203 4.73995 10.491C4.4744 10.5616 4.24759 10.7344 4.10902 10.9717L0.642176 16.9458C0.573994 17.0631 0.529688 17.1926 0.511813 17.327C0.493937 17.4615 0.502846 17.5981 0.538024 17.7291C0.573203 17.86 0.633957 17.9827 0.716782 18.0901C0.799608 18.1975 0.902868 18.2874 1.02061 18.3547L2.7356 19.3398C3.23168 19.6232 3.83121 19.439 4.09201 19.0563L5.05864 19.7777C4.96316 19.9537 4.91362 20.151 4.91461 20.3513C4.9156 20.5515 4.96708 20.7483 5.0643 20.9234C5.16152 21.0984 5.30133 21.2462 5.47079 21.3529C5.64025 21.4596 5.83388 21.5218 6.03378 21.5338C5.99867 21.7508 6.02375 21.9733 6.10629 22.1771C6.18883 22.3808 6.32568 22.558 6.50193 22.6894C6.67818 22.8208 6.8871 22.9013 7.10594 22.9222C7.32477 22.9431 7.54516 22.9036 7.7431 22.808C7.88654 23.0883 8.13393 23.3015 8.4324 23.4018C8.73088 23.5022 9.05677 23.4819 9.34046 23.3452C9.44502 23.5533 9.60872 23.7259 9.81102 23.8413C10.0876 23.9979 10.4146 24.0396 10.7216 23.9574C11.0286 23.8752 11.291 23.6757 11.4523 23.4019L11.6323 23.0915L12.8697 23.803C13.0401 23.9005 13.2319 23.9548 13.4282 23.9611C13.6245 23.9674 13.8193 23.9256 13.9957 23.8391C14.172 23.7527 14.3245 23.6244 14.4398 23.4654C14.5551 23.3064 14.6296 23.1215 14.6569 22.9271C14.8331 23.0071 15.026 23.0433 15.2192 23.0327C15.4124 23.0221 15.6002 22.9649 15.7665 22.8661C15.9329 22.7672 16.0728 22.6297 16.1746 22.4651C16.2763 22.3005 16.3367 22.1137 16.3507 21.9207C16.5909 21.9634 16.8384 21.9312 17.0597 21.8285C17.281 21.7258 17.4654 21.5576 17.588 21.3467C17.6688 21.2107 17.7213 21.0598 17.7425 20.9031C17.9605 21.0033 18.2036 21.0356 18.4403 20.996C18.6769 20.9564 18.8962 20.8466 19.0697 20.6809C19.2433 20.5152 19.363 20.3011 19.4134 20.0666C19.4639 19.832 19.4427 19.5877 19.3526 19.3653L20.8607 17.8671C21.1413 18.3533 21.7735 18.4737 22.2511 18.1988L23.9704 17.2123C24.4508 16.9359 24.6549 16.3335 24.3757 15.8559C23.324 14.0445 22.2667 12.2346 21.2193 10.4204C20.9642 9.97957 20.3575 9.78964 19.8331 10.0915ZM20.5701 10.7917L23.7266 16.2287C23.7804 16.3236 23.7351 16.4824 23.5919 16.5646L21.8741 17.5511C21.7295 17.6333 21.5679 17.5936 21.5127 17.4986C21.4517 17.3937 19.4235 13.8659 18.3562 12.0617C18.2995 11.9667 18.3421 11.8108 18.4909 11.7257L20.2101 10.7393C20.3731 10.6457 20.5177 10.7024 20.5701 10.7917ZM5.14935 11.2396L6.86718 12.2246C6.90024 12.2426 6.9293 12.2671 6.95262 12.2966C6.97594 12.3261 6.99301 12.36 7.00282 12.3964C7.01263 12.4327 7.01496 12.4706 7.00967 12.5078C7.00439 12.5451 6.99159 12.5809 6.97206 12.613L3.50097 18.5886C3.48222 18.6208 3.45728 18.649 3.4276 18.6716C3.39791 18.6942 3.36406 18.7107 3.32798 18.7202C3.2919 18.7297 3.25431 18.7319 3.21735 18.7269C3.18039 18.7218 3.1448 18.7095 3.11262 18.6906L1.39621 17.7055C1.33137 17.6681 1.28395 17.6066 1.2643 17.5344C1.24465 17.4622 1.25437 17.3851 1.29132 17.32C1.35794 17.2038 3.60869 13.3387 4.761 11.3445C4.77952 11.3118 4.80434 11.2831 4.83403 11.2601C4.86372 11.2371 4.89769 11.2203 4.93395 11.2105C4.97021 11.2008 5.00805 11.1983 5.04528 11.2033C5.0825 11.2083 5.11694 11.2206 5.14935 11.2396ZM18.1323 13.1672C18.9217 14.5179 19.6829 15.846 20.4624 17.201C19.9592 17.7055 19.2605 18.3972 18.8636 18.7941L12.1993 14.9701C12.1184 14.9232 12.023 14.9083 11.9317 14.9282C11.8405 14.9481 11.7599 15.0015 11.706 15.0778C11.2723 15.6915 10.5948 16.3165 10.0335 16.6425C9.75291 16.8055 9.50487 16.8877 9.37731 16.8906C9.29085 16.8906 9.24549 16.8906 9.2214 16.7828C9.2149 16.634 9.23506 16.4852 9.28093 16.3435C9.35038 16.094 9.47369 15.7893 9.62676 15.4789C9.93291 14.8609 10.3992 14.1636 10.6203 13.9425C10.9534 13.6108 11.6507 13.3812 12.5663 13.2763C13.5226 13.1748 14.4883 13.2049 15.4365 13.3656C16.4187 13.5385 17.1727 13.4535 17.6872 13.3174C17.8375 13.2763 17.9849 13.2324 18.1323 13.1672ZM7.19034 13.7327L9.49778 14.1919C9.2982 14.4987 9.11647 14.8167 8.95352 15.1444C8.79064 15.4645 8.65779 15.799 8.55666 16.1436C8.47871 16.4313 8.41068 16.7701 8.52832 17.0833C8.66722 17.4518 8.99321 17.6531 9.38865 17.6389C9.73448 17.6304 10.0888 17.4802 10.4091 17.2931C11.003 16.9487 11.6295 16.386 12.11 15.7836L18.4597 19.4262C18.5113 19.4546 18.5567 19.4931 18.5931 19.5394C18.6296 19.5858 18.6563 19.6389 18.6718 19.6958C18.6873 19.7526 18.6912 19.812 18.6832 19.8704C18.6753 19.9288 18.6556 19.985 18.6255 20.0357C18.5958 20.0869 18.5562 20.1317 18.5091 20.1676C18.462 20.2035 18.4083 20.2298 18.351 20.2449C18.2938 20.2601 18.2341 20.2638 18.1754 20.2558C18.1167 20.2479 18.0602 20.2285 18.009 20.1987C16.5491 19.3596 14.2828 18.0641 13.6435 17.6942C13.2112 17.4448 12.8342 18.0953 13.2694 18.3448L16.7773 20.3574C16.9984 20.485 17.0608 20.7571 16.9403 20.9669C16.8797 21.0701 16.7807 21.1452 16.6649 21.1757C16.5491 21.2062 16.426 21.1898 16.3223 21.1299C15.3217 20.5544 14.321 19.979 13.3175 19.4049C12.8853 19.1555 12.5111 19.8075 12.9448 20.0569C13.7569 20.5218 14.5691 20.9853 15.3798 21.4516C15.6009 21.5792 15.6633 21.8485 15.5414 22.0596C15.481 22.1628 15.3823 22.2378 15.2667 22.2684C15.1512 22.2989 15.0283 22.2825 14.9248 22.2226C14.2572 21.8385 13.5883 21.4573 12.9235 21.0732C12.4898 20.8223 12.1156 21.4743 12.5479 21.7252L13.6917 22.38C13.9142 22.5075 13.978 22.7811 13.8576 22.9894C13.7969 23.0927 13.6979 23.1677 13.5822 23.1983C13.4664 23.2288 13.3433 23.2123 13.2396 23.1524L11.9328 22.4012C11.9654 22.1653 11.9266 21.9251 11.8215 21.7114C11.7165 21.4977 11.5499 21.3204 11.3432 21.2021C11.1402 21.0844 10.907 21.0292 10.6728 21.0434C10.6588 20.8489 10.5972 20.6608 10.4934 20.4957C10.3896 20.3306 10.2467 20.1935 10.0775 20.0966C9.8751 19.9786 9.64239 19.9229 9.40849 19.9365C9.38808 19.6916 9.29328 19.4588 9.13681 19.2694C8.98034 19.0799 8.76968 18.9428 8.53308 18.8765C8.29648 18.8102 8.04526 18.8178 7.81312 18.8983C7.58097 18.9788 7.37899 19.1284 7.23427 19.327C7.13383 19.1968 7.00769 19.0886 6.8637 19.0091C6.7197 18.9296 6.56091 18.8806 6.39718 18.8651C6.23345 18.8495 6.06827 18.8678 5.91189 18.9187C5.75551 18.9696 5.61126 19.0522 5.4881 19.1612L4.47469 18.4057L7.19034 13.7327ZM8.43477 19.6402C8.64737 19.7621 8.72533 20.0314 8.59776 20.2497C8.26044 20.8336 7.90043 21.4516 7.60704 21.9562C7.57782 22.0074 7.53873 22.0523 7.49202 22.0882C7.44532 22.1242 7.39193 22.1505 7.33497 22.1657C7.278 22.1809 7.21859 22.1846 7.16019 22.1766C7.10178 22.1686 7.04554 22.1491 6.99474 22.1192C6.94328 22.0906 6.89805 22.052 6.86169 22.0057C6.82532 21.9594 6.79857 21.9064 6.78299 21.8496C6.76742 21.7928 6.76333 21.7335 6.77097 21.6752C6.77861 21.6168 6.79783 21.5606 6.82749 21.5097L7.81822 19.8018C7.84783 19.7504 7.88734 19.7055 7.93446 19.6695C7.98158 19.6335 8.03538 19.6072 8.09274 19.5922C8.15009 19.5772 8.20986 19.5737 8.26857 19.5819C8.32728 19.5902 8.38378 19.61 8.43477 19.6402ZM6.50717 19.6728C6.72119 19.7961 6.80056 20.0626 6.673 20.2823L6.50859 20.5658C6.44446 20.6589 6.34767 20.7245 6.23741 20.7496C6.12715 20.7747 6.01148 20.7575 5.91336 20.7013C5.81523 20.6451 5.74182 20.554 5.70767 20.4462C5.67353 20.3384 5.68116 20.2217 5.72905 20.1193L5.89204 19.8344C5.92137 19.7827 5.96074 19.7375 6.00783 19.7013C6.05492 19.6651 6.10879 19.6387 6.16625 19.6236C6.22371 19.6086 6.2836 19.6052 6.3424 19.6136C6.40119 19.6221 6.45628 19.6422 6.50717 19.6728ZM9.70047 20.7458C9.75148 20.775 9.7962 20.814 9.83204 20.8606C9.86788 20.9072 9.89414 20.9604 9.90929 21.0172C9.92445 21.074 9.9282 21.1333 9.92033 21.1915C9.91247 21.2498 9.89314 21.3059 9.86346 21.3566L9.20297 22.4919C9.14226 22.5923 9.0447 22.6649 8.93114 22.6943C8.81759 22.7237 8.69704 22.7075 8.59526 22.6492C8.49347 22.5909 8.41852 22.4952 8.38642 22.3823C8.35431 22.2695 8.36759 22.1486 8.42343 22.0455L9.08392 20.9088C9.14429 20.8056 9.24303 20.7306 9.35856 20.7C9.47409 20.6695 9.59702 20.6859 9.70047 20.7458ZM10.9662 21.8513C11.1788 21.9732 11.2581 22.2411 11.1306 22.4608L10.8003 23.0291C10.7409 23.1325 10.6429 23.208 10.5278 23.2391C10.4127 23.2702 10.29 23.2543 10.1866 23.1949C10.0832 23.1355 10.0077 23.0375 9.9766 22.9224C9.9455 22.8073 9.96139 22.6846 10.0208 22.5812L10.3496 22.0115C10.3793 21.9602 10.4189 21.9154 10.4661 21.8795C10.5133 21.8437 10.5671 21.8175 10.6244 21.8027C10.6818 21.7878 10.7415 21.7844 10.8002 21.7927C10.8588 21.8011 10.9152 21.821 10.9662 21.8513Z" fill="white"/>
</g>
<defs>
<clipPath id="clip0_1_10956">
<rect width="24" height="24" fill="white" transform="translate(0.5)"/>
</clipPath>
</defs>
</svg>
