<svg width="28" height="28" viewBox="0 0 28 28" fill="none" xmlns="http://www.w3.org/2000/svg">
<path d="M24.5 6.97725C20.615 6.59225 16.7067 6.39392 12.81 6.39392C10.5 6.39392 8.19 6.51059 5.88 6.74392L3.5 6.97725" stroke="#C92626" stroke-width="1.5" stroke-linecap="round" stroke-linejoin="round"/>
<path d="M9.91699 5.79837L10.1737 4.27004C10.3603 3.16171 10.5003 2.33337 12.472 2.33337H15.5287C17.5003 2.33337 17.652 3.20837 17.827 4.28171L18.0837 5.79837" stroke="#C92626" stroke-width="1.5" stroke-linecap="round" stroke-linejoin="round"/>
<path d="M21.9921 10.663L21.2338 22.4113C21.1055 24.243 21.0005 25.6663 17.7455 25.6663H10.2555C7.00046 25.6663 6.89546 24.243 6.76712 22.4113L6.00879 10.663" stroke="#C92626" stroke-width="1.5" stroke-linecap="round" stroke-linejoin="round"/>
<path d="M12.0518 19.25H15.9368" stroke="#C92626" stroke-width="1.5" stroke-linecap="round" stroke-linejoin="round"/>
<path d="M11.083 14.5834H16.9163" stroke="#C92626" stroke-width="1.5" stroke-linecap="round" stroke-linejoin="round"/>
</svg>
